<ttFont>
    <TTGlyph name=".notdef" xMin="26" yMin="0" xMax="680" yMax="660">
      <contour>
        <pt x="156" y="660" on="1"/>
        <pt x="680" y="660" on="1"/>
        <pt x="550" y="0" on="1"/>
        <pt x="26" y="0" on="1"/>
      </contour>
      <contour>
        <pt x="234" y="516" on="1"/>
        <pt x="162" y="162" on="1"/>
        <pt x="280" y="340" on="1"/>
      </contour>
      <contour>
        <pt x="478" y="162" on="1"/>
        <pt x="550" y="516" on="1"/>
        <pt x="432" y="340" on="1"/>
      </contour>
      <contour>
        <pt x="242" y="98" on="1"/>
        <pt x="372" y="98" on="1"/>
        <pt x="358" y="164" on="1"/>
        <pt x="342" y="260" on="1"/>
        <pt x="338" y="260" on="1"/>
        <pt x="284" y="164" on="1"/>
      </contour>
      <contour>
        <pt x="432" y="514" on="1"/>
        <pt x="460" y="562" on="1"/>
        <pt x="338" y="562" on="1"/>
        <pt x="350" y="514" on="1"/>
        <pt x="370" y="418" on="1"/>
        <pt x="374" y="418" on="1"/>
      </contour>
    </TTGlyph>
    <TTGlyph name="A" xMin="-66" yMin="0" xMax="528" yMax="650">
      <contour>
        <pt x="352" y="268" on="1"/>
        <pt x="350" y="344" on="1"/>
        <pt x="348" y="391" on="0"/>
        <pt x="346" y="480" on="0"/>
        <pt x="346" y="530" on="1"/>
        <pt x="342" y="530" on="1"/>
        <pt x="322" y="482" on="0"/>
        <pt x="287" y="391" on="0"/>
        <pt x="266" y="344" on="1"/>
        <pt x="232" y="268" on="1"/>
      </contour>
      <contour>
        <pt x="356" y="148" on="1"/>
        <pt x="177" y="148" on="1"/>
        <pt x="110" y="0" on="1"/>
        <pt x="-66" y="0" on="1"/>
        <pt x="274" y="650" on="1"/>
        <pt x="466" y="650" on="1"/>
        <pt x="528" y="0" on="1"/>
        <pt x="360" y="0" on="1"/>
      </contour>
    </TTGlyph>
    <TTGlyph name="AE" xMin="-36" yMin="0" xMax="868" yMax="650">
      <contour>
        <pt x="403" y="264" on="1"/>
        <pt x="457" y="536" on="1"/>
        <pt x="454" y="536" on="1"/>
        <pt x="427" y="489" on="0"/>
        <pt x="376" y="405" on="0"/>
        <pt x="350" y="360" on="1"/>
        <pt x="295" y="264" on="1"/>
      </contour>
      <contour>
        <pt x="612" y="516" on="1"/>
        <pt x="590" y="402" on="1"/>
        <pt x="784" y="402" on="1"/>
        <pt x="758" y="268" on="1"/>
        <pt x="564" y="268" on="1"/>
        <pt x="536" y="134" on="1"/>
        <pt x="774" y="134" on="1"/>
        <pt x="748" y="0" on="1"/>
        <pt x="350" y="0" on="1"/>
        <pt x="378" y="140" on="1"/>
        <pt x="224" y="140" on="1"/>
        <pt x="144" y="0" on="1"/>
        <pt x="-36" y="0" on="1"/>
        <pt x="372" y="650" on="1"/>
        <pt x="868" y="650" on="1"/>
        <pt x="842" y="516" on="1"/>
      </contour>
    </TTGlyph>
    <TTGlyph name="Aacute" xMin="-66" yMin="0" xMax="554" yMax="822">
      <component glyphName="A" x="0" y="0" flags="0x204"/>
      <component glyphName="uni0301.cap" x="244" y="0" flags="0x4"/>
    </TTGlyph>
    <TTGlyph name="Abreve" xMin="-66" yMin="0" xMax="528" yMax="822">
      <component glyphName="A" x="0" y="0" flags="0x204"/>
      <component glyphName="uni0306.cap" x="244" y="0" flags="0x4"/>
    </TTGlyph>
    <TTGlyph name="Acircumflex" xMin="-66" yMin="0" xMax="534" yMax="822">
      <component glyphName="A" x="0" y="0" flags="0x204"/>
      <component glyphName="uni0302.cap" x="244" y="0" flags="0x4"/>
    </TTGlyph>
    <TTGlyph name="Adieresis" xMin="-66" yMin="0" xMax="552" yMax="844">
      <component glyphName="A" x="0" y="0" flags="0x204"/>
      <component glyphName="uni0308.cap" x="244" y="0" flags="0x4"/>
    </TTGlyph>
    <TTGlyph name="Agrave" xMin="-66" yMin="0" xMax="528" yMax="822">
      <component glyphName="A" x="0" y="0" flags="0x204"/>
      <component glyphName="uni0300.cap" x="244" y="0" flags="0x4"/>
    </TTGlyph>
    <TTGlyph name="Amacron" xMin="-66" yMin="0" xMax="528" yMax="818">
      <component glyphName="A" x="0" y="0" flags="0x204"/>
      <component glyphName="uni0304.cap" x="244" y="0" flags="0x4"/>
    </TTGlyph>
    <TTGlyph name="Aogonek" xMin="-66" yMin="-226" xMax="528" yMax="650">
      <contour>
        <pt x="352" y="268" on="1"/>
        <pt x="350" y="344" on="1"/>
        <pt x="348" y="391" on="0"/>
        <pt x="346" y="480" on="0"/>
        <pt x="346" y="530" on="1"/>
        <pt x="342" y="530" on="1"/>
        <pt x="322" y="482" on="0"/>
        <pt x="287" y="391" on="0"/>
        <pt x="266" y="344" on="1"/>
        <pt x="232" y="268" on="1"/>
      </contour>
      <contour>
        <pt x="528" y="0" on="1"/>
        <pt x="465" y="-21" on="0"/>
        <pt x="420" y="-73" on="0"/>
        <pt x="420" y="-94" on="1"/>
        <pt x="420" y="-109" on="0"/>
        <pt x="440" y="-124" on="0"/>
        <pt x="454" y="-124" on="1"/>
        <pt x="465" y="-124" on="0"/>
        <pt x="478" y="-116" on="1"/>
        <pt x="508" y="-192" on="1"/>
        <pt x="485" y="-207" on="0"/>
        <pt x="421" y="-226" on="0"/>
        <pt x="394" y="-226" on="1"/>
        <pt x="350" y="-226" on="0"/>
        <pt x="296" y="-184" on="0"/>
        <pt x="296" y="-146" on="1"/>
        <pt x="296" y="-121" on="0"/>
        <pt x="316" y="-75" on="0"/>
        <pt x="346" y="-38" on="0"/>
        <pt x="379" y="-9" on="0"/>
        <pt x="392" y="0" on="1"/>
        <pt x="360" y="0" on="1"/>
        <pt x="356" y="148" on="1"/>
        <pt x="177" y="148" on="1"/>
        <pt x="110" y="0" on="1"/>
        <pt x="-66" y="0" on="1"/>
        <pt x="274" y="650" on="1"/>
        <pt x="466" y="650" on="1"/>
      </contour>
    </TTGlyph>
    <TTGlyph name="Aring" xMin="-66" yMin="0" xMax="528" yMax="898">
      <component glyphName="A" x="0" y="0" flags="0x204"/>
      <component glyphName="uni030A.cap" x="244" y="0" flags="0x4"/>
    </TTGlyph>
    <TTGlyph name="Atilde" xMin="-66" yMin="0" xMax="562" yMax="840">
      <component glyphName="A" x="0" y="0" flags="0x204"/>
      <component glyphName="uni0303.cap" x="244" y="0" flags="0x4"/>
    </TTGlyph>
    <TTGlyph name="B" xMin="26" yMin="0" xMax="590" yMax="650">
      <contour>
        <pt x="156" y="650" on="1"/>
        <pt x="364" y="650" on="1"/>
        <pt x="413" y="650" on="0"/>
        <pt x="496" y="633" on="0"/>
        <pt x="556" y="597" on="0"/>
        <pt x="590" y="540" on="0"/>
        <pt x="590" y="500" on="1"/>
        <pt x="590" y="447" on="0"/>
        <pt x="518" y="359" on="0"/>
        <pt x="450" y="338" on="1"/>
        <pt x="448" y="334" on="1"/>
        <pt x="558" y="307" on="0"/>
        <pt x="558" y="216" on="1"/>
        <pt x="558" y="157" on="0"/>
        <pt x="511" y="75" on="0"/>
        <pt x="433" y="24" on="0"/>
        <pt x="329" y="0" on="0"/>
        <pt x="272" y="0" on="1"/>
        <pt x="26" y="0" on="1"/>
      </contour>
      <contour>
        <pt x="318" y="390" on="1"/>
        <pt x="377" y="390" on="0"/>
        <pt x="426" y="434" on="0"/>
        <pt x="426" y="472" on="1"/>
        <pt x="426" y="528" on="0"/>
        <pt x="338" y="528" on="1"/>
        <pt x="292" y="528" on="1"/>
        <pt x="264" y="390" on="1"/>
      </contour>
      <contour>
        <pt x="284" y="122" on="1"/>
        <pt x="344" y="122" on="0"/>
        <pt x="404" y="169" on="0"/>
        <pt x="404" y="210" on="1"/>
        <pt x="404" y="282" on="0"/>
        <pt x="316" y="282" on="1"/>
        <pt x="242" y="282" on="1"/>
        <pt x="210" y="122" on="1"/>
      </contour>
    </TTGlyph>
    <TTGlyph name="C" xMin="56" yMin="-12" xMax="584" yMax="662">
      <contour>
        <pt x="56" y="264" on="1"/>
        <pt x="56" y="351" on="0"/>
        <pt x="111" y="497" on="0"/>
        <pt x="207" y="603" on="0"/>
        <pt x="334" y="662" on="0"/>
        <pt x="406" y="662" on="1"/>
        <pt x="463" y="662" on="0"/>
        <pt x="555" y="607" on="0"/>
        <pt x="584" y="556" on="1"/>
        <pt x="476" y="472" on="1"/>
        <pt x="441" y="524" on="0"/>
        <pt x="398" y="524" on="1"/>
        <pt x="363" y="524" on="0"/>
        <pt x="298" y="485" on="0"/>
        <pt x="249" y="418" on="0"/>
        <pt x="220" y="326" on="0"/>
        <pt x="220" y="274" on="1"/>
        <pt x="220" y="203" on="0"/>
        <pt x="278" y="126" on="0"/>
        <pt x="344" y="126" on="1"/>
        <pt x="370" y="126" on="0"/>
        <pt x="421" y="152" on="0"/>
        <pt x="444" y="172" on="1"/>
        <pt x="510" y="70" on="1"/>
        <pt x="496" y="57" on="0"/>
        <pt x="456" y="28" on="0"/>
        <pt x="405" y="4" on="0"/>
        <pt x="344" y="-12" on="0"/>
        <pt x="310" y="-12" on="1"/>
        <pt x="253" y="-12" on="0"/>
        <pt x="159" y="25" on="0"/>
        <pt x="93" y="95" on="0"/>
        <pt x="56" y="198" on="0"/>
      </contour>
    </TTGlyph>
    <TTGlyph name="Cacute" xMin="56" yMin="-12" xMax="624" yMax="822">
      <component glyphName="C" x="0" y="0" flags="0x204"/>
      <component glyphName="uni0301.cap" x="314" y="0" flags="0x4"/>
    </TTGlyph>
    <TTGlyph name="Ccaron" xMin="56" yMin="-12" xMax="628" yMax="822">
      <component glyphName="C" x="0" y="0" flags="0x204"/>
      <component glyphName="uni030C.cap" x="314" y="0" flags="0x4"/>
    </TTGlyph>
    <TTGlyph name="Ccedilla" xMin="56" yMin="-222" xMax="584" yMax="662">
      <component glyphName="C" x="0" y="0" flags="0x204"/>
      <component glyphName="uni0327.cap" x="294" y="0" flags="0x4"/>
    </TTGlyph>
    <TTGlyph name="Ccircumflex" xMin="56" yMin="-12" xMax="604" yMax="822">
      <component glyphName="C" x="0" y="0" flags="0x204"/>
      <component glyphName="uni0302.cap" x="314" y="0" flags="0x4"/>
    </TTGlyph>
    <TTGlyph name="Cdotaccent" xMin="56" yMin="-12" xMax="584" yMax="862">
      <component glyphName="C" x="0" y="0" flags="0x204"/>
      <component glyphName="uni0307.cap" x="314" y="0" flags="0x4"/>
    </TTGlyph>
    <TTGlyph name="D" xMin="26" yMin="0" xMax="600" yMax="650">
      <contour>
        <pt x="156" y="650" on="1"/>
        <pt x="308" y="650" on="1"/>
        <pt x="376" y="650" on="0"/>
        <pt x="485" y="619" on="0"/>
        <pt x="560" y="556" on="0"/>
        <pt x="600" y="460" on="0"/>
        <pt x="600" y="394" on="1"/>
        <pt x="600" y="295" on="0"/>
        <pt x="545" y="147" on="0"/>
        <pt x="448" y="49" on="0"/>
        <pt x="316" y="0" on="0"/>
        <pt x="240" y="0" on="1"/>
        <pt x="26" y="0" on="1"/>
      </contour>
      <contour>
        <pt x="236" y="128" on="1"/>
        <pt x="276" y="128" on="0"/>
        <pt x="349" y="155" on="0"/>
        <pt x="404" y="216" on="0"/>
        <pt x="436" y="313" on="0"/>
        <pt x="436" y="384" on="1"/>
        <pt x="436" y="422" on="0"/>
        <pt x="416" y="475" on="0"/>
        <pt x="381" y="508" on="0"/>
        <pt x="332" y="522" on="0"/>
        <pt x="304" y="522" on="1"/>
        <pt x="290" y="522" on="1"/>
        <pt x="212" y="128" on="1"/>
      </contour>
    </TTGlyph>
    <TTGlyph name="Dcaron" xMin="26" yMin="0" xMax="600" yMax="822">
      <component glyphName="D" x="0" y="0" flags="0x204"/>
      <component glyphName="uni030C.cap" x="274" y="0" flags="0x4"/>
    </TTGlyph>
    <TTGlyph name="Dcroat" xMin="34" yMin="0" xMax="618" yMax="650">
      <component glyphName="Eth" x="0" y="0" flags="0x204"/>
    </TTGlyph>
    <TTGlyph name="E" xMin="26" yMin="0" xMax="552" yMax="650">
      <contour>
        <pt x="156" y="650" on="1"/>
        <pt x="552" y="650" on="1"/>
        <pt x="526" y="516" on="1"/>
        <pt x="288" y="516" on="1"/>
        <pt x="266" y="402" on="1"/>
        <pt x="468" y="402" on="1"/>
        <pt x="442" y="268" on="1"/>
        <pt x="240" y="268" on="1"/>
        <pt x="212" y="134" on="1"/>
        <pt x="458" y="134" on="1"/>
        <pt x="432" y="0" on="1"/>
        <pt x="26" y="0" on="1"/>
      </contour>
    </TTGlyph>
    <TTGlyph name="Eacute" xMin="26" yMin="0" xMax="554" yMax="822">
      <component glyphName="E" x="0" y="0" flags="0x204"/>
      <component glyphName="uni0301.cap" x="244" y="0" flags="0x4"/>
    </TTGlyph>
    <TTGlyph name="Ebreve" xMin="26" yMin="0" xMax="552" yMax="822">
      <component glyphName="E" x="0" y="0" flags="0x204"/>
      <component glyphName="uni0306.cap" x="244" y="0" flags="0x4"/>
    </TTGlyph>
    <TTGlyph name="Ecaron" xMin="26" yMin="0" xMax="558" yMax="822">
      <component glyphName="E" x="0" y="0" flags="0x204"/>
      <component glyphName="uni030C.cap" x="244" y="0" flags="0x4"/>
    </TTGlyph>
    <TTGlyph name="Ecircumflex" xMin="26" yMin="0" xMax="552" yMax="822">
      <component glyphName="E" x="0" y="0" flags="0x204"/>
      <component glyphName="uni0302.cap" x="244" y="0" flags="0x4"/>
    </TTGlyph>
    <TTGlyph name="Edieresis" xMin="26" yMin="0" xMax="552" yMax="844">
      <component glyphName="E" x="0" y="0" flags="0x204"/>
      <component glyphName="uni0308.cap" x="244" y="0" flags="0x4"/>
    </TTGlyph>
    <TTGlyph name="Edotaccent" xMin="26" yMin="0" xMax="552" yMax="862">
      <component glyphName="E" x="0" y="0" flags="0x204"/>
      <component glyphName="uni0307.cap" x="244" y="0" flags="0x4"/>
    </TTGlyph>
    <TTGlyph name="Egrave" xMin="26" yMin="0" xMax="552" yMax="822">
      <component glyphName="E" x="0" y="0" flags="0x204"/>
      <component glyphName="uni0300.cap" x="244" y="0" flags="0x4"/>
    </TTGlyph>
    <TTGlyph name="Emacron" xMin="26" yMin="0" xMax="552" yMax="818">
      <component glyphName="E" x="0" y="0" flags="0x204"/>
      <component glyphName="uni0304.cap" x="244" y="0" flags="0x4"/>
    </TTGlyph>
    <TTGlyph name="Eogonek" xMin="26" yMin="-226" xMax="552" yMax="650">
      <contour>
        <pt x="156" y="650" on="1"/>
        <pt x="552" y="650" on="1"/>
        <pt x="526" y="516" on="1"/>
        <pt x="288" y="516" on="1"/>
        <pt x="266" y="402" on="1"/>
        <pt x="468" y="402" on="1"/>
        <pt x="442" y="268" on="1"/>
        <pt x="240" y="268" on="1"/>
        <pt x="212" y="134" on="1"/>
        <pt x="458" y="134" on="1"/>
        <pt x="432" y="0" on="1"/>
        <pt x="409" y="-4" on="0"/>
        <pt x="374" y="-26" on="0"/>
        <pt x="349" y="-54" on="0"/>
        <pt x="336" y="-84" on="0"/>
        <pt x="336" y="-94" on="1"/>
        <pt x="336" y="-109" on="0"/>
        <pt x="356" y="-124" on="0"/>
        <pt x="370" y="-124" on="1"/>
        <pt x="381" y="-124" on="0"/>
        <pt x="394" y="-116" on="1"/>
        <pt x="424" y="-192" on="1"/>
        <pt x="401" y="-207" on="0"/>
        <pt x="337" y="-226" on="0"/>
        <pt x="310" y="-226" on="1"/>
        <pt x="266" y="-226" on="0"/>
        <pt x="212" y="-184" on="0"/>
        <pt x="212" y="-146" on="1"/>
        <pt x="212" y="-120" on="0"/>
        <pt x="234" y="-73" on="0"/>
        <pt x="265" y="-34" on="0"/>
        <pt x="297" y="-7" on="0"/>
        <pt x="308" y="0" on="1"/>
        <pt x="26" y="0" on="1"/>
      </contour>
    </TTGlyph>
    <TTGlyph name="Eth" xMin="34" yMin="0" xMax="618" yMax="650">
      <contour>
        <pt x="254" y="128" on="1"/>
        <pt x="294" y="128" on="0"/>
        <pt x="367" y="155" on="0"/>
        <pt x="422" y="216" on="0"/>
        <pt x="454" y="313" on="0"/>
        <pt x="454" y="384" on="1"/>
        <pt x="454" y="422" on="0"/>
        <pt x="434" y="475" on="0"/>
        <pt x="399" y="508" on="0"/>
        <pt x="350" y="522" on="0"/>
        <pt x="322" y="522" on="1"/>
        <pt x="308" y="522" on="1"/>
        <pt x="279" y="376" on="1"/>
        <pt x="394" y="376" on="1"/>
        <pt x="378" y="300" on="1"/>
        <pt x="264" y="300" on="1"/>
        <pt x="230" y="128" on="1"/>
      </contour>
      <contour>
        <pt x="326" y="650" on="1"/>
        <pt x="394" y="650" on="0"/>
        <pt x="503" y="619" on="0"/>
        <pt x="578" y="556" on="0"/>
        <pt x="618" y="460" on="0"/>
        <pt x="618" y="394" on="1"/>
        <pt x="618" y="295" on="0"/>
        <pt x="563" y="147" on="0"/>
        <pt x="466" y="49" on="0"/>
        <pt x="334" y="0" on="0"/>
        <pt x="258" y="0" on="1"/>
        <pt x="44" y="0" on="1"/>
        <pt x="104" y="300" on="1"/>
        <pt x="34" y="300" on="1"/>
        <pt x="48" y="370" on="1"/>
        <pt x="119" y="376" on="1"/>
        <pt x="174" y="650" on="1"/>
      </contour>
    </TTGlyph>
    <TTGlyph name="Euro" xMin="14" yMin="-12" xMax="560" yMax="656">
      <contour>
        <pt x="238" y="218" on="1"/>
        <pt x="243" y="169" on="0"/>
        <pt x="288" y="116" on="0"/>
        <pt x="328" y="116" on="1"/>
        <pt x="349" y="116" on="0"/>
        <pt x="390" y="140" on="0"/>
        <pt x="410" y="160" on="1"/>
        <pt x="484" y="66" on="1"/>
        <pt x="431" y="21" on="0"/>
        <pt x="335" y="-12" on="0"/>
        <pt x="294" y="-12" on="1"/>
        <pt x="197" y="-12" on="0"/>
        <pt x="82" y="106" on="0"/>
        <pt x="77" y="218" on="1"/>
        <pt x="14" y="218" on="1"/>
        <pt x="30" y="292" on="1"/>
        <pt x="78" y="296" on="1"/>
        <pt x="80" y="309" on="0"/>
        <pt x="83" y="334" on="0"/>
        <pt x="85" y="346" on="1"/>
        <pt x="40" y="346" on="1"/>
        <pt x="56" y="420" on="1"/>
        <pt x="107" y="424" on="1"/>
        <pt x="127" y="478" on="0"/>
        <pt x="188" y="564" on="0"/>
        <pt x="266" y="624" on="0"/>
        <pt x="357" y="656" on="0"/>
        <pt x="406" y="656" on="1"/>
        <pt x="462" y="656" on="0"/>
        <pt x="534" y="602" on="0"/>
        <pt x="560" y="558" on="1"/>
        <pt x="446" y="482" on="1"/>
        <pt x="435" y="505" on="0"/>
        <pt x="410" y="528" on="0"/>
        <pt x="390" y="528" on="1"/>
        <pt x="347" y="528" on="0"/>
        <pt x="286" y="472" on="0"/>
        <pt x="266" y="426" on="1"/>
        <pt x="460" y="426" on="1"/>
        <pt x="444" y="346" on="1"/>
        <pt x="244" y="346" on="1"/>
        <pt x="240" y="324" on="0"/>
        <pt x="238" y="298" on="1"/>
        <pt x="396" y="298" on="1"/>
        <pt x="380" y="218" on="1"/>
      </contour>
    </TTGlyph>
    <TTGlyph name="F" xMin="26" yMin="0" xMax="552" yMax="650">
      <contour>
        <pt x="156" y="650" on="1"/>
        <pt x="552" y="650" on="1"/>
        <pt x="526" y="516" on="1"/>
        <pt x="288" y="516" on="1"/>
        <pt x="262" y="382" on="1"/>
        <pt x="464" y="382" on="1"/>
        <pt x="438" y="248" on="1"/>
        <pt x="236" y="248" on="1"/>
        <pt x="186" y="0" on="1"/>
        <pt x="26" y="0" on="1"/>
      </contour>
    </TTGlyph>
    <TTGlyph name="G" xMin="56" yMin="-12" xMax="604" yMax="662">
      <contour>
        <pt x="56" y="264" on="1"/>
        <pt x="56" y="351" on="0"/>
        <pt x="112" y="497" on="0"/>
        <pt x="209" y="603" on="0"/>
        <pt x="340" y="662" on="0"/>
        <pt x="416" y="662" on="1"/>
        <pt x="481" y="662" on="0"/>
        <pt x="575" y="607" on="0"/>
        <pt x="604" y="556" on="1"/>
        <pt x="496" y="472" on="1"/>
        <pt x="478" y="499" on="0"/>
        <pt x="437" y="524" on="0"/>
        <pt x="408" y="524" on="1"/>
        <pt x="369" y="524" on="0"/>
        <pt x="300" y="485" on="0"/>
        <pt x="249" y="418" on="0"/>
        <pt x="220" y="326" on="0"/>
        <pt x="220" y="274" on="1"/>
        <pt x="220" y="203" on="0"/>
        <pt x="279" y="124" on="0"/>
        <pt x="348" y="124" on="1"/>
        <pt x="362" y="124" on="0"/>
        <pt x="393" y="132" on="0"/>
        <pt x="404" y="140" on="1"/>
        <pt x="428" y="248" on="1"/>
        <pt x="332" y="248" on="1"/>
        <pt x="356" y="378" on="1"/>
        <pt x="592" y="378" on="1"/>
        <pt x="530" y="56" on="1"/>
        <pt x="492" y="27" on="0"/>
        <pt x="383" y="-12" on="0"/>
        <pt x="320" y="-12" on="1"/>
        <pt x="259" y="-12" on="0"/>
        <pt x="162" y="25" on="0"/>
        <pt x="93" y="95" on="0"/>
        <pt x="56" y="198" on="0"/>
      </contour>
    </TTGlyph>
    <TTGlyph name="Gbreve" xMin="56" yMin="-12" xMax="604" yMax="822">
      <component glyphName="G" x="0" y="0" flags="0x204"/>
      <component glyphName="uni0306.cap" x="308" y="0" flags="0x4"/>
    </TTGlyph>
    <TTGlyph name="Gcaron" xMin="56" yMin="-12" xMax="622" yMax="822">
      <component glyphName="G" x="0" y="0" flags="0x204"/>
      <component glyphName="uni030C.cap" x="308" y="0" flags="0x4"/>
    </TTGlyph>
    <TTGlyph name="Gcircumflex" xMin="56" yMin="-12" xMax="604" yMax="822">
      <component glyphName="G" x="0" y="0" flags="0x204"/>
      <component glyphName="uni0302.cap" x="308" y="0" flags="0x4"/>
    </TTGlyph>
    <TTGlyph name="Gdotaccent" xMin="56" yMin="-12" xMax="604" yMax="862">
      <component glyphName="G" x="0" y="0" flags="0x204"/>
      <component glyphName="uni0307.cap" x="308" y="0" flags="0x4"/>
    </TTGlyph>
    <TTGlyph name="H" xMin="26" yMin="0" xMax="668" yMax="650">
      <contour>
        <pt x="156" y="650" on="1"/>
        <pt x="316" y="650" on="1"/>
        <pt x="266" y="406" on="1"/>
        <pt x="460" y="406" on="1"/>
        <pt x="508" y="650" on="1"/>
        <pt x="668" y="650" on="1"/>
        <pt x="538" y="0" on="1"/>
        <pt x="378" y="0" on="1"/>
        <pt x="432" y="266" on="1"/>
        <pt x="238" y="266" on="1"/>
        <pt x="186" y="0" on="1"/>
        <pt x="26" y="0" on="1"/>
      </contour>
    </TTGlyph>
    <TTGlyph name="Hbar" xMin="26" yMin="0" xMax="750" yMax="650">
      <contour>
        <pt x="476" y="488" on="1"/>
        <pt x="283" y="488" on="1"/>
        <pt x="266" y="406" on="1"/>
        <pt x="460" y="406" on="1"/>
      </contour>
      <contour>
        <pt x="736" y="488" on="1"/>
        <pt x="636" y="488" on="1"/>
        <pt x="538" y="0" on="1"/>
        <pt x="378" y="0" on="1"/>
        <pt x="432" y="266" on="1"/>
        <pt x="238" y="266" on="1"/>
        <pt x="186" y="0" on="1"/>
        <pt x="26" y="0" on="1"/>
        <pt x="124" y="488" on="1"/>
        <pt x="68" y="488" on="1"/>
        <pt x="82" y="558" on="1"/>
        <pt x="139" y="563" on="1"/>
        <pt x="156" y="650" on="1"/>
        <pt x="316" y="650" on="1"/>
        <pt x="298" y="564" on="1"/>
        <pt x="491" y="564" on="1"/>
        <pt x="508" y="650" on="1"/>
        <pt x="668" y="650" on="1"/>
        <pt x="651" y="564" on="1"/>
        <pt x="750" y="564" on="1"/>
      </contour>
    </TTGlyph>
    <TTGlyph name="Hcircumflex" xMin="26" yMin="0" xMax="668" yMax="822">
      <component glyphName="H" x="0" y="0" flags="0x204"/>
      <component glyphName="uni0302.cap" x="284" y="0" flags="0x4"/>
    </TTGlyph>
    <TTGlyph name="I" xMin="26" yMin="0" xMax="316" yMax="650">
      <contour>
        <pt x="156" y="650" on="1"/>
        <pt x="316" y="650" on="1"/>
        <pt x="186" y="0" on="1"/>
        <pt x="26" y="0" on="1"/>
      </contour>
    </TTGlyph>
    <TTGlyph name="I.a" xMin="-6" yMin="0" xMax="416" yMax="650">
      <contour>
        <pt x="22" y="134" on="1"/>
        <pt x="86" y="134" on="1"/>
        <pt x="164" y="516" on="1"/>
        <pt x="98" y="516" on="1"/>
        <pt x="126" y="650" on="1"/>
        <pt x="416" y="650" on="1"/>
        <pt x="388" y="516" on="1"/>
        <pt x="324" y="516" on="1"/>
        <pt x="246" y="134" on="1"/>
        <pt x="314" y="134" on="1"/>
        <pt x="286" y="0" on="1"/>
        <pt x="-6" y="0" on="1"/>
      </contour>
    </TTGlyph>
    <TTGlyph name="Iacute" xMin="26" yMin="0" xMax="422" yMax="822">
      <component glyphName="I" x="0" y="0" flags="0x204"/>
      <component glyphName="uni0301.cap" x="112" y="0" flags="0x4"/>
    </TTGlyph>
    <TTGlyph name="Iacute.a" xMin="-6" yMin="0" xMax="458" yMax="822">
      <component glyphName="I.a" x="0" y="0" flags="0x204"/>
      <component glyphName="uni0301.cap" x="148" y="0" flags="0x4"/>
    </TTGlyph>
    <TTGlyph name="Icircumflex" xMin="26" yMin="0" xMax="402" yMax="822">
      <component glyphName="I" x="0" y="0" flags="0x204"/>
      <component glyphName="uni0302.cap" x="112" y="0" flags="0x4"/>
    </TTGlyph>
    <TTGlyph name="Icircumflex.a" xMin="-6" yMin="0" xMax="438" yMax="822">
      <component glyphName="I.a" x="0" y="0" flags="0x204"/>
      <component glyphName="uni0302.cap" x="148" y="0" flags="0x4"/>
    </TTGlyph>
    <TTGlyph name="Idieresis" xMin="26" yMin="0" xMax="420" yMax="844">
      <component glyphName="I" x="0" y="0" flags="0x204"/>
      <component glyphName="uni0308.cap" x="112" y="0" flags="0x4"/>
    </TTGlyph>
    <TTGlyph name="Idieresis.a" xMin="-6" yMin="0" xMax="456" yMax="844">
      <component glyphName="I.a" x="0" y="0" flags="0x204"/>
      <component glyphName="uni0308.cap" x="148" y="0" flags="0x4"/>
    </TTGlyph>
    <TTGlyph name="Idotaccent" xMin="26" yMin="0" xMax="338" yMax="862">
      <component glyphName="I" x="0" y="0" flags="0x204"/>
      <component glyphName="uni0307.cap" x="112" y="0" flags="0x4"/>
    </TTGlyph>
    <TTGlyph name="Idotaccent.a" xMin="-6" yMin="0" xMax="416" yMax="862">
      <component glyphName="I.a" x="0" y="0" flags="0x204"/>
      <component glyphName="uni0307.cap" x="148" y="0" flags="0x4"/>
    </TTGlyph>
    <TTGlyph name="Igrave" xMin="26" yMin="0" xMax="316" yMax="822">
      <component glyphName="I" x="0" y="0" flags="0x204"/>
      <component glyphName="uni0300.cap" x="112" y="0" flags="0x4"/>
    </TTGlyph>
    <TTGlyph name="Igrave.a" xMin="-6" yMin="0" xMax="416" yMax="822">
      <component glyphName="I.a" x="0" y="0" flags="0x204"/>
      <component glyphName="uni0300.cap" x="148" y="0" flags="0x4"/>
    </TTGlyph>
    <TTGlyph name="Imacron" xMin="26" yMin="0" xMax="396" yMax="818">
      <component glyphName="I" x="0" y="0" flags="0x204"/>
      <component glyphName="uni0304.cap" x="112" y="0" flags="0x4"/>
    </TTGlyph>
    <TTGlyph name="Imacron.a" xMin="-6" yMin="0" xMax="432" yMax="818">
      <component glyphName="I.a" x="0" y="0" flags="0x204"/>
      <component glyphName="uni0304.cap" x="148" y="0" flags="0x4"/>
    </TTGlyph>
    <TTGlyph name="Iogonek" xMin="-34" yMin="-226" xMax="316" yMax="650">
      <contour>
        <pt x="90" y="-94" on="1"/>
        <pt x="90" y="-109" on="0"/>
        <pt x="110" y="-124" on="0"/>
        <pt x="124" y="-124" on="1"/>
        <pt x="135" y="-124" on="0"/>
        <pt x="148" y="-116" on="1"/>
        <pt x="178" y="-192" on="1"/>
        <pt x="155" y="-207" on="0"/>
        <pt x="91" y="-226" on="0"/>
        <pt x="64" y="-226" on="1"/>
        <pt x="20" y="-226" on="0"/>
        <pt x="-34" y="-184" on="0"/>
        <pt x="-34" y="-146" on="1"/>
        <pt x="-34" y="-120" on="0"/>
        <pt x="-12" y="-73" on="0"/>
        <pt x="19" y="-34" on="0"/>
        <pt x="53" y="-7" on="0"/>
        <pt x="64" y="0" on="1"/>
        <pt x="26" y="0" on="1"/>
        <pt x="156" y="650" on="1"/>
        <pt x="316" y="650" on="1"/>
        <pt x="186" y="0" on="1"/>
        <pt x="135" y="-17" on="0"/>
        <pt x="90" y="-73" on="0"/>
      </contour>
    </TTGlyph>
    <TTGlyph name="Iogonek.a" xMin="-6" yMin="-226" xMax="416" yMax="650">
      <contour>
        <pt x="22" y="134" on="1"/>
        <pt x="86" y="134" on="1"/>
        <pt x="164" y="516" on="1"/>
        <pt x="98" y="516" on="1"/>
        <pt x="126" y="650" on="1"/>
        <pt x="416" y="650" on="1"/>
        <pt x="388" y="516" on="1"/>
        <pt x="324" y="516" on="1"/>
        <pt x="246" y="134" on="1"/>
        <pt x="314" y="134" on="1"/>
        <pt x="286" y="0" on="1"/>
        <pt x="220" y="0" on="1"/>
        <pt x="169" y="-17" on="0"/>
        <pt x="124" y="-73" on="0"/>
        <pt x="124" y="-94" on="1"/>
        <pt x="124" y="-109" on="0"/>
        <pt x="144" y="-124" on="0"/>
        <pt x="158" y="-124" on="1"/>
        <pt x="169" y="-124" on="0"/>
        <pt x="182" y="-116" on="1"/>
        <pt x="212" y="-192" on="1"/>
        <pt x="189" y="-207" on="0"/>
        <pt x="125" y="-226" on="0"/>
        <pt x="98" y="-226" on="1"/>
        <pt x="54" y="-226" on="0"/>
        <pt x="0" y="-184" on="0"/>
        <pt x="0" y="-146" on="1"/>
        <pt x="0" y="-120" on="0"/>
        <pt x="22" y="-73" on="0"/>
        <pt x="53" y="-34" on="0"/>
        <pt x="87" y="-7" on="0"/>
        <pt x="98" y="0" on="1"/>
        <pt x="-6" y="0" on="1"/>
      </contour>
    </TTGlyph>
    <TTGlyph name="Itilde" xMin="26" yMin="0" xMax="430" yMax="840">
      <component glyphName="I" x="0" y="0" flags="0x204"/>
      <component glyphName="uni0303.cap" x="112" y="0" flags="0x4"/>
    </TTGlyph>
    <TTGlyph name="Itilde.a" xMin="-6" yMin="0" xMax="466" yMax="840">
      <component glyphName="I.a" x="0" y="0" flags="0x204"/>
      <component glyphName="uni0303.cap" x="148" y="0" flags="0x4"/>
    </TTGlyph>
    <TTGlyph name="J" xMin="-10" yMin="-12" xMax="514" yMax="650">
      <contour>
        <pt x="426" y="211" on="1"/>
        <pt x="417" y="166" on="0"/>
        <pt x="380" y="86" on="0"/>
        <pt x="321" y="24" on="0"/>
        <pt x="237" y="-12" on="0"/>
        <pt x="182" y="-12" on="1"/>
        <pt x="126" y="-12" on="0"/>
        <pt x="22" y="38" on="0"/>
        <pt x="-10" y="86" on="1"/>
        <pt x="86" y="184" on="1"/>
        <pt x="101" y="163" on="0"/>
        <pt x="150" y="126" on="0"/>
        <pt x="182" y="126" on="1"/>
        <pt x="217" y="126" on="0"/>
        <pt x="260" y="179" on="0"/>
        <pt x="272" y="239" on="1"/>
        <pt x="354" y="650" on="1"/>
        <pt x="514" y="650" on="1"/>
        <pt x="426" y="211" on="1"/>
      </contour>
    </TTGlyph>
    <TTGlyph name="Jcircumflex" xMin="-10" yMin="-12" xMax="598" yMax="822">
      <component glyphName="J" x="0" y="0" flags="0x204"/>
      <component glyphName="uni0302.cap" x="308" y="0" flags="0x4"/>
    </TTGlyph>
    <TTGlyph name="K" xMin="26" yMin="0" xMax="658" yMax="650">
      <contour>
        <pt x="156" y="650" on="1"/>
        <pt x="316" y="650" on="1"/>
        <pt x="267" y="404" on="1"/>
        <pt x="271" y="404" on="1"/>
        <pt x="484" y="650" on="1"/>
        <pt x="658" y="650" on="1"/>
        <pt x="424" y="376" on="1"/>
        <pt x="568" y="0" on="1"/>
        <pt x="402" y="0" on="1"/>
        <pt x="306" y="276" on="1"/>
        <pt x="222" y="180" on="1"/>
        <pt x="186" y="0" on="1"/>
        <pt x="26" y="0" on="1"/>
      </contour>
    </TTGlyph>
    <TTGlyph name="L" xMin="26" yMin="0" xMax="448" yMax="650">
      <contour>
        <pt x="156" y="650" on="1"/>
        <pt x="316" y="650" on="1"/>
        <pt x="212" y="134" on="1"/>
        <pt x="448" y="134" on="1"/>
        <pt x="422" y="0" on="1"/>
        <pt x="26" y="0" on="1"/>
      </contour>
    </TTGlyph>
    <TTGlyph name="Lacute" xMin="26" yMin="0" xMax="448" yMax="822">
      <component glyphName="L" x="0" y="0" flags="0x204"/>
      <component glyphName="uni0301.cap" x="130" y="0" flags="0x4"/>
    </TTGlyph>
    <TTGlyph name="Lcaron" xMin="26" yMin="0" xMax="538" yMax="733">
      <component glyphName="L" x="0" y="0" flags="0x204"/>
      <component glyphName="uni030C.a" x="382" y="-41" flags="0x4"/>
    </TTGlyph>
    <TTGlyph name="Ldot" xMin="26" yMin="0" xMax="524" yMax="650">
      <component glyphName="L" x="0" y="0" flags="0x204"/>
      <component glyphName="period" x="310" y="240" flags="0x4"/>
    </TTGlyph>
    <TTGlyph name="Lslash" xMin="-8" yMin="0" xMax="448" yMax="650">
      <contour>
        <pt x="212" y="134" on="1"/>
        <pt x="448" y="134" on="1"/>
        <pt x="422" y="0" on="1"/>
        <pt x="26" y="0" on="1"/>
        <pt x="64" y="191" on="1"/>
        <pt x="-8" y="154" on="1"/>
        <pt x="18" y="286" on="1"/>
        <pt x="91" y="323" on="1"/>
        <pt x="156" y="650" on="1"/>
        <pt x="316" y="650" on="1"/>
        <pt x="267" y="404" on="1"/>
        <pt x="448" y="498" on="1"/>
        <pt x="422" y="366" on="1"/>
        <pt x="240" y="272" on="1"/>
      </contour>
    </TTGlyph>
    <TTGlyph name="M" xMin="26" yMin="0" xMax="758" yMax="650">
      <contour>
        <pt x="156" y="650" on="1"/>
        <pt x="322" y="650" on="1"/>
        <pt x="364" y="370" on="1"/>
        <pt x="379" y="260" on="1"/>
        <pt x="383" y="260" on="1"/>
        <pt x="440" y="370" on="1"/>
        <pt x="592" y="650" on="1"/>
        <pt x="758" y="650" on="1"/>
        <pt x="628" y="0" on="1"/>
        <pt x="478" y="0" on="1"/>
        <pt x="524" y="216" on="1"/>
        <pt x="529" y="241" on="0"/>
        <pt x="544" y="301" on="0"/>
        <pt x="562" y="361" on="0"/>
        <pt x="580" y="419" on="0"/>
        <pt x="588" y="444" on="1"/>
        <pt x="585" y="444" on="1"/>
        <pt x="504" y="292" on="1"/>
        <pt x="366" y="56" on="1"/>
        <pt x="306" y="56" on="1"/>
        <pt x="264" y="292" on="1"/>
        <pt x="244" y="444" on="1"/>
        <pt x="241" y="444" on="1"/>
        <pt x="239" y="419" on="0"/>
        <pt x="234" y="360" on="0"/>
        <pt x="228" y="300" on="0"/>
        <pt x="221" y="241" on="0"/>
        <pt x="216" y="216" on="1"/>
        <pt x="172" y="0" on="1"/>
        <pt x="26" y="0" on="1"/>
      </contour>
    </TTGlyph>
    <TTGlyph name="N" xMin="26" yMin="0" xMax="656" yMax="650">
      <contour>
        <pt x="156" y="650" on="1"/>
        <pt x="310" y="650" on="1"/>
        <pt x="400" y="342" on="1"/>
        <pt x="432" y="196" on="1"/>
        <pt x="436" y="196" on="1"/>
        <pt x="438" y="222" on="0"/>
        <pt x="442" y="284" on="0"/>
        <pt x="448" y="348" on="0"/>
        <pt x="456" y="413" on="0"/>
        <pt x="462" y="442" on="1"/>
        <pt x="504" y="650" on="1"/>
        <pt x="656" y="650" on="1"/>
        <pt x="526" y="0" on="1"/>
        <pt x="372" y="0" on="1"/>
        <pt x="282" y="308" on="1"/>
        <pt x="252" y="454" on="1"/>
        <pt x="248" y="454" on="1"/>
        <pt x="243" y="398" on="0"/>
        <pt x="232" y="269" on="0"/>
        <pt x="220" y="210" on="1"/>
        <pt x="178" y="0" on="1"/>
        <pt x="26" y="0" on="1"/>
      </contour>
    </TTGlyph>
    <TTGlyph name="Nacute" xMin="26" yMin="0" xMax="656" yMax="822">
      <component glyphName="N" x="0" y="0" flags="0x204"/>
      <component glyphName="uni0301.cap" x="296" y="0" flags="0x4"/>
    </TTGlyph>
    <TTGlyph name="Ncaron" xMin="26" yMin="0" xMax="656" yMax="822">
      <component glyphName="N" x="0" y="0" flags="0x204"/>
      <component glyphName="uni030C.cap" x="296" y="0" flags="0x4"/>
    </TTGlyph>
    <TTGlyph name="Ntilde" xMin="26" yMin="0" xMax="656" yMax="840">
      <component glyphName="N" x="0" y="0" flags="0x204"/>
      <component glyphName="uni0303.cap" x="296" y="0" flags="0x4"/>
    </TTGlyph>
    <TTGlyph name="O" xMin="56" yMin="-12" xMax="644" yMax="662">
      <contour>
        <pt x="308" y="-12" on="1"/>
        <pt x="252" y="-12" on="0"/>
        <pt x="159" y="25" on="0"/>
        <pt x="93" y="95" on="0"/>
        <pt x="56" y="198" on="0"/>
        <pt x="56" y="264" on="1"/>
        <pt x="56" y="355" on="0"/>
        <pt x="113" y="502" on="0"/>
        <pt x="206" y="606" on="0"/>
        <pt x="327" y="662" on="0"/>
        <pt x="392" y="662" on="1"/>
        <pt x="448" y="662" on="0"/>
        <pt x="541" y="625" on="0"/>
        <pt x="607" y="555" on="0"/>
        <pt x="644" y="452" on="0"/>
        <pt x="644" y="386" on="1"/>
        <pt x="644" y="295" on="0"/>
        <pt x="587" y="148" on="0"/>
        <pt x="494" y="44" on="0"/>
        <pt x="372" y="-12" on="0"/>
      </contour>
      <contour>
        <pt x="384" y="524" on="1"/>
        <pt x="356" y="524" on="0"/>
        <pt x="298" y="488" on="0"/>
        <pt x="250" y="422" on="0"/>
        <pt x="220" y="330" on="0"/>
        <pt x="220" y="274" on="1"/>
        <pt x="220" y="203" on="0"/>
        <pt x="271" y="126" on="0"/>
        <pt x="316" y="126" on="1"/>
        <pt x="344" y="126" on="0"/>
        <pt x="402" y="162" on="0"/>
        <pt x="450" y="228" on="0"/>
        <pt x="480" y="320" on="0"/>
        <pt x="480" y="376" on="1"/>
        <pt x="480" y="447" on="0"/>
        <pt x="429" y="524" on="0"/>
      </contour>
    </TTGlyph>
    <TTGlyph name="OE" xMin="56" yMin="0" xMax="856" yMax="650">
      <contour>
        <pt x="56" y="256" on="1"/>
        <pt x="56" y="355" on="0"/>
        <pt x="111" y="503" on="0"/>
        <pt x="208" y="601" on="0"/>
        <pt x="339" y="650" on="0"/>
        <pt x="416" y="650" on="1"/>
        <pt x="856" y="650" on="1"/>
        <pt x="830" y="516" on="1"/>
        <pt x="602" y="516" on="1"/>
        <pt x="580" y="402" on="1"/>
        <pt x="772" y="402" on="1"/>
        <pt x="746" y="268" on="1"/>
        <pt x="554" y="268" on="1"/>
        <pt x="526" y="134" on="1"/>
        <pt x="762" y="134" on="1"/>
        <pt x="736" y="0" on="1"/>
        <pt x="348" y="0" on="1"/>
        <pt x="211" y="0" on="0"/>
        <pt x="56" y="124" on="0"/>
      </contour>
      <contour>
        <pt x="420" y="522" on="1"/>
        <pt x="379" y="522" on="0"/>
        <pt x="307" y="495" on="0"/>
        <pt x="252" y="434" on="0"/>
        <pt x="220" y="336" on="0"/>
        <pt x="220" y="266" on="1"/>
        <pt x="220" y="228" on="0"/>
        <pt x="240" y="175" on="0"/>
        <pt x="275" y="142" on="0"/>
        <pt x="323" y="128" on="0"/>
        <pt x="352" y="128" on="1"/>
        <pt x="366" y="128" on="1"/>
        <pt x="444" y="522" on="1"/>
      </contour>
    </TTGlyph>
    <TTGlyph name="Oacute" xMin="56" yMin="-12" xMax="644" yMax="822">
      <component glyphName="O" x="0" y="0" flags="0x204"/>
      <component glyphName="uni0301.cap" x="298" y="0" flags="0x4"/>
    </TTGlyph>
    <TTGlyph name="Ocircumflex" xMin="56" yMin="-12" xMax="644" yMax="822">
      <component glyphName="O" x="0" y="0" flags="0x204"/>
      <component glyphName="uni0302.cap" x="298" y="0" flags="0x4"/>
    </TTGlyph>
    <TTGlyph name="Odieresis" xMin="56" yMin="-12" xMax="644" yMax="844">
      <component glyphName="O" x="0" y="0" flags="0x204"/>
      <component glyphName="uni0308.cap" x="298" y="0" flags="0x4"/>
    </TTGlyph>
    <TTGlyph name="Ograve" xMin="56" yMin="-12" xMax="644" yMax="822">
      <component glyphName="O" x="0" y="0" flags="0x204"/>
      <component glyphName="uni0300.cap" x="298" y="0" flags="0x4"/>
    </TTGlyph>
    <TTGlyph name="Ohorn" xMin="56" yMin="-12" xMax="714" yMax="778">
      <contour>
        <pt x="316" y="126" on="1"/>
        <pt x="344" y="126" on="0"/>
        <pt x="402" y="162" on="0"/>
        <pt x="450" y="228" on="0"/>
        <pt x="480" y="320" on="0"/>
        <pt x="480" y="376" on="1"/>
        <pt x="480" y="447" on="0"/>
        <pt x="429" y="524" on="0"/>
        <pt x="384" y="524" on="1"/>
        <pt x="356" y="524" on="0"/>
        <pt x="298" y="488" on="0"/>
        <pt x="250" y="422" on="0"/>
        <pt x="220" y="330" on="0"/>
        <pt x="220" y="274" on="1"/>
        <pt x="220" y="203" on="0"/>
        <pt x="271" y="126" on="0"/>
      </contour>
      <contour>
        <pt x="700" y="778" on="1"/>
        <pt x="714" y="747" on="0"/>
        <pt x="714" y="712" on="1"/>
        <pt x="714" y="663" on="0"/>
        <pt x="646" y="593" on="0"/>
        <pt x="583" y="580" on="1"/>
        <pt x="612" y="545" on="0"/>
        <pt x="644" y="448" on="0"/>
        <pt x="644" y="386" on="1"/>
        <pt x="644" y="295" on="0"/>
        <pt x="587" y="148" on="0"/>
        <pt x="494" y="44" on="0"/>
        <pt x="372" y="-12" on="0"/>
        <pt x="308" y="-12" on="1"/>
        <pt x="252" y="-12" on="0"/>
        <pt x="159" y="25" on="0"/>
        <pt x="93" y="95" on="0"/>
        <pt x="56" y="198" on="0"/>
        <pt x="56" y="264" on="1"/>
        <pt x="56" y="355" on="0"/>
        <pt x="113" y="502" on="0"/>
        <pt x="206" y="606" on="0"/>
        <pt x="327" y="662" on="0"/>
        <pt x="392" y="662" on="1"/>
        <pt x="462" y="662" on="0"/>
        <pt x="516" y="634" on="1"/>
        <pt x="554" y="639" on="0"/>
        <pt x="590" y="681" on="0"/>
        <pt x="590" y="704" on="1"/>
        <pt x="590" y="723" on="0"/>
        <pt x="582" y="742" on="1"/>
      </contour>
    </TTGlyph>
    <TTGlyph name="Ohungarumlaut" xMin="56" yMin="-12" xMax="676" yMax="822">
      <component glyphName="O" x="0" y="0" flags="0x204"/>
      <component glyphName="uni030B.cap" x="298" y="0" flags="0x4"/>
    </TTGlyph>
    <TTGlyph name="Omacron" xMin="56" yMin="-12" xMax="644" yMax="818">
      <component glyphName="O" x="0" y="0" flags="0x204"/>
      <component glyphName="uni0304.cap" x="298" y="0" flags="0x4"/>
    </TTGlyph>
    <TTGlyph name="Oslash" xMin="-12" yMin="-44" xMax="726" yMax="702">
      <contour>
        <pt x="253" y="155" on="1"/>
        <pt x="277" y="126" on="0"/>
        <pt x="316" y="126" on="1"/>
        <pt x="344" y="126" on="0"/>
        <pt x="402" y="162" on="0"/>
        <pt x="450" y="228" on="0"/>
        <pt x="480" y="320" on="0"/>
        <pt x="480" y="376" on="1"/>
        <pt x="480" y="387" on="1"/>
      </contour>
      <contour>
        <pt x="450" y="492" on="1"/>
        <pt x="426" y="524" on="0"/>
        <pt x="384" y="524" on="1"/>
        <pt x="356" y="524" on="0"/>
        <pt x="298" y="488" on="0"/>
        <pt x="250" y="422" on="0"/>
        <pt x="220" y="330" on="0"/>
        <pt x="220" y="274" on="1"/>
        <pt x="220" y="257" on="1"/>
      </contour>
      <contour>
        <pt x="617" y="526" on="1"/>
        <pt x="630" y="497" on="0"/>
        <pt x="644" y="427" on="0"/>
        <pt x="644" y="386" on="1"/>
        <pt x="644" y="295" on="0"/>
        <pt x="587" y="148" on="0"/>
        <pt x="494" y="44" on="0"/>
        <pt x="372" y="-12" on="0"/>
        <pt x="308" y="-12" on="1"/>
        <pt x="209" y="-12" on="0"/>
        <pt x="143" y="43" on="1"/>
        <pt x="58" y="-44" on="1"/>
        <pt x="-12" y="20" on="1"/>
        <pt x="85" y="119" on="1"/>
        <pt x="56" y="180" on="0"/>
        <pt x="56" y="264" on="1"/>
        <pt x="56" y="355" on="0"/>
        <pt x="113" y="502" on="0"/>
        <pt x="206" y="606" on="0"/>
        <pt x="327" y="662" on="0"/>
        <pt x="392" y="662" on="1"/>
        <pt x="494" y="662" on="0"/>
        <pt x="560" y="604" on="1"/>
        <pt x="656" y="702" on="1"/>
        <pt x="726" y="638" on="1"/>
      </contour>
    </TTGlyph>
    <TTGlyph name="Otilde" xMin="56" yMin="-12" xMax="644" yMax="840">
      <component glyphName="O" x="0" y="0" flags="0x204"/>
      <component glyphName="uni0303.cap" x="298" y="0" flags="0x4"/>
    </TTGlyph>
    <TTGlyph name="P" xMin="26" yMin="0" xMax="600" yMax="650">
      <contour>
        <pt x="156" y="650" on="1"/>
        <pt x="370" y="650" on="1"/>
        <pt x="418" y="650" on="0"/>
        <pt x="502" y="631" on="0"/>
        <pt x="564" y="589" on="0"/>
        <pt x="600" y="521" on="0"/>
        <pt x="600" y="472" on="1"/>
        <pt x="600" y="401" on="0"/>
        <pt x="550" y="302" on="0"/>
        <pt x="466" y="240" on="0"/>
        <pt x="355" y="212" on="0"/>
        <pt x="294" y="212" on="1"/>
        <pt x="228" y="212" on="1"/>
        <pt x="186" y="0" on="1"/>
        <pt x="26" y="0" on="1"/>
      </contour>
      <contour>
        <pt x="313" y="338" on="1"/>
        <pt x="375" y="338" on="0"/>
        <pt x="442" y="394" on="0"/>
        <pt x="442" y="448" on="1"/>
        <pt x="442" y="487" on="0"/>
        <pt x="393" y="524" on="0"/>
        <pt x="348" y="524" on="1"/>
        <pt x="290" y="524" on="1"/>
        <pt x="254" y="338" on="1"/>
      </contour>
    </TTGlyph>
    <TTGlyph name="Q" xMin="56" yMin="-182" xMax="644" yMax="662">
      <contour>
        <pt x="384" y="524" on="1"/>
        <pt x="356" y="524" on="0"/>
        <pt x="298" y="488" on="0"/>
        <pt x="250" y="422" on="0"/>
        <pt x="220" y="330" on="0"/>
        <pt x="220" y="274" on="1"/>
        <pt x="220" y="203" on="0"/>
        <pt x="271" y="126" on="0"/>
        <pt x="316" y="126" on="1"/>
        <pt x="344" y="126" on="0"/>
        <pt x="402" y="162" on="0"/>
        <pt x="450" y="228" on="0"/>
        <pt x="480" y="320" on="0"/>
        <pt x="480" y="376" on="1"/>
        <pt x="480" y="447" on="0"/>
        <pt x="429" y="524" on="0"/>
      </contour>
      <contour>
        <pt x="578" y="-164" on="1"/>
        <pt x="560" y="-172" on="0"/>
        <pt x="510" y="-182" on="0"/>
        <pt x="492" y="-182" on="1"/>
        <pt x="279" y="-182" on="0"/>
        <pt x="203" y="7" on="1"/>
        <pt x="134" y="35" on="0"/>
        <pt x="56" y="165" on="0"/>
        <pt x="56" y="264" on="1"/>
        <pt x="56" y="355" on="0"/>
        <pt x="113" y="502" on="0"/>
        <pt x="206" y="606" on="0"/>
        <pt x="327" y="662" on="0"/>
        <pt x="392" y="662" on="1"/>
        <pt x="448" y="662" on="0"/>
        <pt x="541" y="625" on="0"/>
        <pt x="607" y="555" on="0"/>
        <pt x="644" y="452" on="0"/>
        <pt x="644" y="386" on="1"/>
        <pt x="644" y="307" on="0"/>
        <pt x="601" y="175" on="0"/>
        <pt x="527" y="75" on="0"/>
        <pt x="429" y="9" on="0"/>
        <pt x="374" y="-4" on="1"/>
        <pt x="395" y="-30" on="0"/>
        <pt x="465" y="-54" on="0"/>
        <pt x="502" y="-54" on="1"/>
        <pt x="523" y="-54" on="0"/>
        <pt x="555" y="-49" on="0"/>
        <pt x="572" y="-44" on="1"/>
      </contour>
    </TTGlyph>
    <TTGlyph name="R" xMin="26" yMin="0" xMax="600" yMax="650">
      <contour>
        <pt x="256" y="350" on="1"/>
        <pt x="314" y="350" on="1"/>
        <pt x="379" y="350" on="0"/>
        <pt x="442" y="407" on="0"/>
        <pt x="442" y="454" on="1"/>
        <pt x="442" y="490" on="0"/>
        <pt x="393" y="524" on="0"/>
        <pt x="348" y="524" on="1"/>
        <pt x="290" y="524" on="1"/>
      </contour>
      <contour>
        <pt x="370" y="650" on="1"/>
        <pt x="419" y="650" on="0"/>
        <pt x="503" y="632" on="0"/>
        <pt x="565" y="591" on="0"/>
        <pt x="600" y="525" on="0"/>
        <pt x="600" y="478" on="1"/>
        <pt x="600" y="433" on="0"/>
        <pt x="577" y="360" on="0"/>
        <pt x="535" y="303" on="0"/>
        <pt x="477" y="262" on="0"/>
        <pt x="443" y="249" on="1"/>
        <pt x="540" y="0" on="1"/>
        <pt x="372" y="0" on="1"/>
        <pt x="297" y="224" on="1"/>
        <pt x="230" y="224" on="1"/>
        <pt x="186" y="0" on="1"/>
        <pt x="26" y="0" on="1"/>
        <pt x="156" y="650" on="1"/>
      </contour>
    </TTGlyph>
    <TTGlyph name="Racute" xMin="26" yMin="0" xMax="600" yMax="822">
      <component glyphName="R" x="0" y="0" flags="0x204"/>
      <component glyphName="uni0301.cap" x="264" y="0" flags="0x4"/>
    </TTGlyph>
    <TTGlyph name="Rcaron" xMin="26" yMin="0" xMax="600" yMax="822">
      <component glyphName="R" x="0" y="0" flags="0x204"/>
      <component glyphName="uni030C.cap" x="264" y="0" flags="0x4"/>
    </TTGlyph>
    <TTGlyph name="S" xMin="2" yMin="-12" xMax="543" yMax="662">
      <contour>
        <pt x="116" y="203" on="1"/>
        <pt x="142" y="168" on="0"/>
        <pt x="214" y="124" on="0"/>
        <pt x="252" y="124" on="1"/>
        <pt x="287" y="124" on="0"/>
        <pt x="328" y="154" on="0"/>
        <pt x="328" y="181" on="1"/>
        <pt x="328" y="203" on="0"/>
        <pt x="288" y="230" on="0"/>
        <pt x="254" y="251" on="1"/>
        <pt x="198" y="286" on="1"/>
        <pt x="153" y="315" on="0"/>
        <pt x="102" y="391" on="0"/>
        <pt x="102" y="452" on="1"/>
        <pt x="102" y="496" on="0"/>
        <pt x="140" y="572" on="0"/>
        <pt x="204" y="629" on="0"/>
        <pt x="291" y="662" on="0"/>
        <pt x="341" y="662" on="1"/>
        <pt x="398" y="662" on="0"/>
        <pt x="503" y="609" on="0"/>
        <pt x="543" y="561" on="1"/>
        <pt x="443" y="467" on="1"/>
        <pt x="418" y="492" on="0"/>
        <pt x="367" y="524" on="0"/>
        <pt x="335" y="524" on="1"/>
        <pt x="300" y="524" on="0"/>
        <pt x="266" y="491" on="0"/>
        <pt x="266" y="468" on="1"/>
        <pt x="266" y="448" on="0"/>
        <pt x="307" y="421" on="0"/>
        <pt x="346" y="396" on="1"/>
        <pt x="406" y="359" on="1"/>
        <pt x="453" y="330" on="0"/>
        <pt x="494" y="261" on="0"/>
        <pt x="494" y="204" on="1"/>
        <pt x="494" y="159" on="0"/>
        <pt x="458" y="81" on="0"/>
        <pt x="392" y="22" on="0"/>
        <pt x="298" y="-12" on="0"/>
        <pt x="240" y="-12" on="1"/>
        <pt x="178" y="-12" on="0"/>
        <pt x="53" y="45" on="0"/>
        <pt x="2" y="113" on="1"/>
      </contour>
    </TTGlyph>
    <TTGlyph name="Sacute" xMin="2" yMin="-12" xMax="550" yMax="830">
      <component glyphName="S" x="0" y="0" flags="0x204"/>
      <component glyphName="uni0301.cap" x="240" y="8" flags="0x4"/>
    </TTGlyph>
    <TTGlyph name="Scaron" xMin="2" yMin="-12" xMax="554" yMax="830">
      <component glyphName="S" x="0" y="0" flags="0x204"/>
      <component glyphName="uni030C.cap" x="240" y="8" flags="0x4"/>
    </TTGlyph>
    <TTGlyph name="Scircumflex" xMin="2" yMin="-12" xMax="543" yMax="830">
      <component glyphName="S" x="0" y="0" flags="0x204"/>
      <component glyphName="uni0302.cap" x="240" y="8" flags="0x4"/>
    </TTGlyph>
    <TTGlyph name="T" xMin="80" yMin="0" xMax="594" yMax="650">
      <contour>
        <pt x="244" y="516" on="1"/>
        <pt x="80" y="516" on="1"/>
        <pt x="106" y="650" on="1"/>
        <pt x="594" y="650" on="1"/>
        <pt x="568" y="516" on="1"/>
        <pt x="404" y="516" on="1"/>
        <pt x="302" y="0" on="1"/>
        <pt x="142" y="0" on="1"/>
      </contour>
    </TTGlyph>
    <TTGlyph name="Tcaron" xMin="80" yMin="0" xMax="594" yMax="822">
      <component glyphName="T" x="0" y="0" flags="0x204"/>
      <component glyphName="uni030C.cap" x="230" y="0" flags="0x4"/>
    </TTGlyph>
    <TTGlyph name="Thorn" xMin="26" yMin="0" xMax="586" yMax="660">
      <contour>
        <pt x="156" y="660" on="1"/>
        <pt x="316" y="660" on="1"/>
        <pt x="296" y="560" on="1"/>
        <pt x="374" y="560" on="1"/>
        <pt x="418" y="560" on="0"/>
        <pt x="496" y="541" on="0"/>
        <pt x="553" y="499" on="0"/>
        <pt x="586" y="431" on="0"/>
        <pt x="586" y="382" on="1"/>
        <pt x="586" y="311" on="0"/>
        <pt x="535" y="212" on="0"/>
        <pt x="450" y="150" on="0"/>
        <pt x="339" y="122" on="0"/>
        <pt x="278" y="122" on="1"/>
        <pt x="208" y="122" on="1"/>
        <pt x="184" y="0" on="1"/>
        <pt x="26" y="0" on="1"/>
      </contour>
      <contour>
        <pt x="296" y="248" on="1"/>
        <pt x="359" y="248" on="0"/>
        <pt x="428" y="304" on="0"/>
        <pt x="428" y="358" on="1"/>
        <pt x="428" y="397" on="0"/>
        <pt x="383" y="434" on="0"/>
        <pt x="342" y="434" on="1"/>
        <pt x="270" y="434" on="1"/>
        <pt x="234" y="248" on="1"/>
      </contour>
    </TTGlyph>
    <TTGlyph name="U" xMin="74" yMin="-12" xMax="662" yMax="650">
      <contour>
        <pt x="152" y="650" on="1"/>
        <pt x="312" y="650" on="1"/>
        <pt x="242" y="300" on="1"/>
        <pt x="239" y="280" on="0"/>
        <pt x="234" y="244" on="0"/>
        <pt x="234" y="226" on="1"/>
        <pt x="234" y="176" on="0"/>
        <pt x="270" y="126" on="0"/>
        <pt x="320" y="126" on="1"/>
        <pt x="363" y="126" on="0"/>
        <pt x="415" y="198" on="0"/>
        <pt x="432" y="282" on="1"/>
        <pt x="506" y="650" on="1"/>
        <pt x="662" y="650" on="1"/>
        <pt x="588" y="286" on="1"/>
        <pt x="558" y="132" on="0"/>
        <pt x="428" y="-12" on="0"/>
        <pt x="316" y="-12" on="1"/>
        <pt x="194" y="-12" on="0"/>
        <pt x="74" y="101" on="0"/>
        <pt x="74" y="222" on="1"/>
        <pt x="74" y="245" on="0"/>
        <pt x="83" y="306" on="0"/>
        <pt x="88" y="332" on="1"/>
      </contour>
    </TTGlyph>
    <TTGlyph name="Uacute" xMin="74" yMin="-12" xMax="662" yMax="822">
      <component glyphName="U" x="0" y="0" flags="0x204"/>
      <component glyphName="uni0301.cap" x="292" y="0" flags="0x4"/>
    </TTGlyph>
    <TTGlyph name="Ubreve" xMin="74" yMin="-12" xMax="662" yMax="822">
      <component glyphName="U" x="0" y="0" flags="0x204"/>
      <component glyphName="uni0306.cap" x="292" y="0" flags="0x4"/>
    </TTGlyph>
    <TTGlyph name="Ucircumflex" xMin="74" yMin="-12" xMax="662" yMax="822">
      <component glyphName="U" x="0" y="0" flags="0x204"/>
      <component glyphName="uni0302.cap" x="292" y="0" flags="0x4"/>
    </TTGlyph>
    <TTGlyph name="Udieresis" xMin="74" yMin="-12" xMax="662" yMax="844">
      <component glyphName="U" x="0" y="0" flags="0x204"/>
      <component glyphName="uni0308.cap" x="292" y="0" flags="0x4"/>
    </TTGlyph>
    <TTGlyph name="Ugrave" xMin="74" yMin="-12" xMax="662" yMax="822">
      <component glyphName="U" x="0" y="0" flags="0x204"/>
      <component glyphName="uni0300.cap" x="292" y="0" flags="0x4"/>
    </TTGlyph>
    <TTGlyph name="Uhorn" xMin="74" yMin="-12" xMax="798" yMax="794">
      <contour>
        <pt x="784" y="794" on="1"/>
        <pt x="798" y="763" on="0"/>
        <pt x="798" y="728" on="1"/>
        <pt x="798" y="681" on="0"/>
        <pt x="730" y="607" on="0"/>
        <pt x="650" y="590" on="1"/>
        <pt x="588" y="286" on="1"/>
        <pt x="558" y="132" on="0"/>
        <pt x="428" y="-12" on="0"/>
        <pt x="316" y="-12" on="1"/>
        <pt x="194" y="-12" on="0"/>
        <pt x="74" y="101" on="0"/>
        <pt x="74" y="222" on="1"/>
        <pt x="74" y="245" on="0"/>
        <pt x="83" y="306" on="0"/>
        <pt x="88" y="332" on="1"/>
        <pt x="152" y="650" on="1"/>
        <pt x="312" y="650" on="1"/>
        <pt x="242" y="300" on="1"/>
        <pt x="239" y="280" on="0"/>
        <pt x="234" y="244" on="0"/>
        <pt x="234" y="226" on="1"/>
        <pt x="234" y="176" on="0"/>
        <pt x="270" y="126" on="0"/>
        <pt x="320" y="126" on="1"/>
        <pt x="363" y="126" on="0"/>
        <pt x="415" y="198" on="0"/>
        <pt x="432" y="282" on="1"/>
        <pt x="506" y="650" on="1"/>
        <pt x="600" y="650" on="1"/>
        <pt x="636" y="655" on="0"/>
        <pt x="674" y="696" on="0"/>
        <pt x="674" y="720" on="1"/>
        <pt x="674" y="739" on="0"/>
        <pt x="666" y="758" on="1"/>
      </contour>
    </TTGlyph>
    <TTGlyph name="Uhungarumlaut" xMin="74" yMin="-12" xMax="670" yMax="822">
      <component glyphName="U" x="0" y="0" flags="0x204"/>
      <component glyphName="uni030B.cap" x="292" y="0" flags="0x4"/>
    </TTGlyph>
    <TTGlyph name="Umacron" xMin="74" yMin="-12" xMax="662" yMax="818">
      <component glyphName="U" x="0" y="0" flags="0x204"/>
      <component glyphName="uni0304.cap" x="292" y="0" flags="0x4"/>
    </TTGlyph>
    <TTGlyph name="Uogonek" xMin="74" yMin="-226" xMax="662" yMax="650">
      <contour>
        <pt x="588" y="286" on="1"/>
        <pt x="576" y="219" on="0"/>
        <pt x="540" y="124" on="0"/>
        <pt x="489" y="56" on="0"/>
        <pt x="422" y="10" on="0"/>
        <pt x="378" y="-6" on="1"/>
        <pt x="327" y="-24" on="0"/>
        <pt x="284" y="-73" on="0"/>
        <pt x="284" y="-94" on="1"/>
        <pt x="284" y="-109" on="0"/>
        <pt x="304" y="-124" on="0"/>
        <pt x="318" y="-124" on="1"/>
        <pt x="329" y="-124" on="0"/>
        <pt x="342" y="-116" on="1"/>
        <pt x="372" y="-192" on="1"/>
        <pt x="349" y="-207" on="0"/>
        <pt x="285" y="-226" on="0"/>
        <pt x="258" y="-226" on="1"/>
        <pt x="214" y="-226" on="0"/>
        <pt x="160" y="-184" on="0"/>
        <pt x="160" y="-146" on="1"/>
        <pt x="160" y="-124" on="0"/>
        <pt x="178" y="-81" on="0"/>
        <pt x="205" y="-44" on="0"/>
        <pt x="235" y="-15" on="0"/>
        <pt x="248" y="-6" on="1"/>
        <pt x="162" y="9" on="0"/>
        <pt x="74" y="121" on="0"/>
        <pt x="74" y="222" on="1"/>
        <pt x="74" y="245" on="0"/>
        <pt x="83" y="306" on="0"/>
        <pt x="88" y="332" on="1"/>
        <pt x="152" y="650" on="1"/>
        <pt x="312" y="650" on="1"/>
        <pt x="242" y="300" on="1"/>
        <pt x="239" y="280" on="0"/>
        <pt x="234" y="244" on="0"/>
        <pt x="234" y="226" on="1"/>
        <pt x="234" y="176" on="0"/>
        <pt x="270" y="126" on="0"/>
        <pt x="320" y="126" on="1"/>
        <pt x="363" y="126" on="0"/>
        <pt x="415" y="198" on="0"/>
        <pt x="432" y="282" on="1"/>
        <pt x="506" y="650" on="1"/>
        <pt x="662" y="650" on="1"/>
      </contour>
    </TTGlyph>
    <TTGlyph name="Uring" xMin="74" yMin="-12" xMax="662" yMax="898">
      <component glyphName="U" x="0" y="0" flags="0x204"/>
      <component glyphName="uni030A.cap" x="292" y="0" flags="0x4"/>
    </TTGlyph>
    <TTGlyph name="Utilde" xMin="74" yMin="-12" xMax="662" yMax="840">
      <component glyphName="U" x="0" y="0" flags="0x204"/>
      <component glyphName="uni0303.cap" x="292" y="0" flags="0x4"/>
    </TTGlyph>
    <TTGlyph name="V" xMin="78" yMin="0" xMax="660" yMax="650">
      <contour>
        <pt x="78" y="650" on="1"/>
        <pt x="246" y="650" on="1"/>
        <pt x="258" y="346" on="1"/>
        <pt x="260" y="295" on="0"/>
        <pt x="262" y="192" on="0"/>
        <pt x="262" y="140" on="1"/>
        <pt x="266" y="140" on="1"/>
        <pt x="288" y="192" on="0"/>
        <pt x="330" y="294" on="0"/>
        <pt x="352" y="346" on="1"/>
        <pt x="484" y="650" on="1"/>
        <pt x="660" y="650" on="1"/>
        <pt x="326" y="0" on="1"/>
        <pt x="132" y="0" on="1"/>
      </contour>
    </TTGlyph>
    <TTGlyph name="W" xMin="70" yMin="0" xMax="866" yMax="650">
      <contour>
        <pt x="98" y="650" on="1"/>
        <pt x="262" y="650" on="1"/>
        <pt x="236" y="356" on="1"/>
        <pt x="231" y="305" on="0"/>
        <pt x="220" y="200" on="0"/>
        <pt x="212" y="148" on="1"/>
        <pt x="216" y="148" on="1"/>
        <pt x="236" y="200" on="0"/>
        <pt x="279" y="305" on="0"/>
        <pt x="298" y="356" on="1"/>
        <pt x="421" y="650" on="1"/>
        <pt x="554" y="650" on="1"/>
        <pt x="554" y="356" on="1"/>
        <pt x="552" y="306" on="0"/>
        <pt x="547" y="201" on="0"/>
        <pt x="544" y="148" on="1"/>
        <pt x="548" y="148" on="1"/>
        <pt x="565" y="201" on="0"/>
        <pt x="601" y="305" on="0"/>
        <pt x="616" y="356" on="1"/>
        <pt x="714" y="650" on="1"/>
        <pt x="866" y="650" on="1"/>
        <pt x="620" y="0" on="1"/>
        <pt x="418" y="0" on="1"/>
        <pt x="426" y="278" on="1"/>
        <pt x="426" y="293" on="0"/>
        <pt x="428" y="330" on="0"/>
        <pt x="431" y="370" on="0"/>
        <pt x="435" y="411" on="0"/>
        <pt x="437" y="429" on="1"/>
        <pt x="433" y="429" on="1"/>
        <pt x="420" y="393" on="0"/>
        <pt x="390" y="316" on="0"/>
        <pt x="376" y="278" on="1"/>
        <pt x="268" y="0" on="1"/>
        <pt x="70" y="0" on="1"/>
      </contour>
    </TTGlyph>
    <TTGlyph name="Wacute" xMin="70" yMin="0" xMax="866" yMax="822">
      <component glyphName="W" x="0" y="0" flags="0x204"/>
      <component glyphName="uni0301.cap" x="362" y="0" flags="0x4"/>
    </TTGlyph>
    <TTGlyph name="Wcircumflex" xMin="70" yMin="0" xMax="866" yMax="822">
      <component glyphName="W" x="0" y="0" flags="0x204"/>
      <component glyphName="uni0302.cap" x="362" y="0" flags="0x4"/>
    </TTGlyph>
    <TTGlyph name="Wdieresis" xMin="70" yMin="0" xMax="866" yMax="844">
      <component glyphName="W" x="0" y="0" flags="0x204"/>
      <component glyphName="uni0308.cap" x="362" y="0" flags="0x4"/>
    </TTGlyph>
    <TTGlyph name="Wgrave" xMin="70" yMin="0" xMax="866" yMax="822">
      <component glyphName="W" x="0" y="0" flags="0x204"/>
      <component glyphName="uni0300.cap" x="362" y="0" flags="0x4"/>
    </TTGlyph>
    <TTGlyph name="X" xMin="-36" yMin="0" xMax="626" yMax="650">
      <contour>
        <pt x="202" y="334" on="1"/>
        <pt x="104" y="650" on="1"/>
        <pt x="282" y="650" on="1"/>
        <pt x="306" y="536" on="1"/>
        <pt x="311" y="513" on="0"/>
        <pt x="321" y="461" on="0"/>
        <pt x="328" y="430" on="1"/>
        <pt x="332" y="430" on="1"/>
        <pt x="349" y="461" on="0"/>
        <pt x="379" y="513" on="0"/>
        <pt x="392" y="536" on="1"/>
        <pt x="456" y="650" on="1"/>
        <pt x="626" y="650" on="1"/>
        <pt x="400" y="328" on="1"/>
        <pt x="506" y="0" on="1"/>
        <pt x="328" y="0" on="1"/>
        <pt x="300" y="126" on="1"/>
        <pt x="294" y="152" on="0"/>
        <pt x="282" y="203" on="0"/>
        <pt x="276" y="232" on="1"/>
        <pt x="272" y="232" on="1"/>
        <pt x="255" y="203" on="0"/>
        <pt x="225" y="152" on="0"/>
        <pt x="210" y="126" on="1"/>
        <pt x="134" y="0" on="1"/>
        <pt x="-36" y="0" on="1"/>
      </contour>
    </TTGlyph>
    <TTGlyph name="Y" xMin="79" yMin="0" xMax="618" yMax="650">
      <contour>
        <pt x="182" y="228" on="1"/>
        <pt x="79" y="650" on="1"/>
        <pt x="245" y="650" on="1"/>
        <pt x="266" y="506" on="1"/>
        <pt x="272" y="468" on="0"/>
        <pt x="282" y="401" on="0"/>
        <pt x="288" y="362" on="1"/>
        <pt x="292" y="362" on="1"/>
        <pt x="312" y="401" on="0"/>
        <pt x="347" y="470" on="0"/>
        <pt x="368" y="508" on="1"/>
        <pt x="446" y="650" on="1"/>
        <pt x="618" y="650" on="1"/>
        <pt x="342" y="228" on="1"/>
        <pt x="296" y="0" on="1"/>
        <pt x="137" y="0" on="1"/>
      </contour>
    </TTGlyph>
    <TTGlyph name="Yacute" xMin="79" yMin="0" xMax="618" yMax="822">
      <component glyphName="Y" x="0" y="0" flags="0x204"/>
      <component glyphName="uni0301.cap" x="220" y="0" flags="0x4"/>
    </TTGlyph>
    <TTGlyph name="Ycircumflex" xMin="79" yMin="0" xMax="618" yMax="822">
      <component glyphName="Y" x="0" y="0" flags="0x204"/>
      <component glyphName="uni0302.cap" x="220" y="0" flags="0x4"/>
    </TTGlyph>
    <TTGlyph name="Ydieresis" xMin="79" yMin="0" xMax="618" yMax="844">
      <component glyphName="Y" x="0" y="0" flags="0x204"/>
      <component glyphName="uni0308.cap" x="220" y="0" flags="0x4"/>
    </TTGlyph>
    <TTGlyph name="Ygrave" xMin="79" yMin="0" xMax="618" yMax="822">
      <component glyphName="Y" x="0" y="0" flags="0x204"/>
      <component glyphName="uni0300.cap" x="220" y="0" flags="0x4"/>
    </TTGlyph>
    <TTGlyph name="Z" xMin="-6" yMin="0" xMax="562" yMax="650">
      <contour>
        <pt x="14" y="96" on="1"/>
        <pt x="344" y="516" on="1"/>
        <pt x="104" y="516" on="1"/>
        <pt x="130" y="650" on="1"/>
        <pt x="562" y="650" on="1"/>
        <pt x="542" y="554" on="1"/>
        <pt x="216" y="134" on="1"/>
        <pt x="480" y="134" on="1"/>
        <pt x="452" y="0" on="1"/>
        <pt x="-6" y="0" on="1"/>
      </contour>
    </TTGlyph>
    <TTGlyph name="Zacute" xMin="-6" yMin="0" xMax="562" yMax="822">
      <component glyphName="Z" x="0" y="0" flags="0x204"/>
      <component glyphName="uni0301.cap" x="232" y="0" flags="0x4"/>
    </TTGlyph>
    <TTGlyph name="Zcaron" xMin="-6" yMin="0" xMax="562" yMax="822">
      <component glyphName="Z" x="0" y="0" flags="0x204"/>
      <component glyphName="uni030C.cap" x="232" y="0" flags="0x4"/>
    </TTGlyph>
    <TTGlyph name="Zdotaccent" xMin="-6" yMin="0" xMax="562" yMax="862">
      <component glyphName="Z" x="0" y="0" flags="0x204"/>
      <component glyphName="uni0307.cap" x="232" y="0" flags="0x4"/>
    </TTGlyph>
    <TTGlyph name="a" xMin="28" yMin="-12" xMax="550" yMax="512">
      <contour>
        <pt x="28" y="172" on="1"/>
        <pt x="28" y="243" on="0"/>
        <pt x="72" y="367" on="0"/>
        <pt x="146" y="459" on="0"/>
        <pt x="242" y="512" on="0"/>
        <pt x="294" y="512" on="1"/>
        <pt x="326" y="512" on="0"/>
        <pt x="384" y="479" on="0"/>
        <pt x="398" y="450" on="1"/>
        <pt x="400" y="450" on="1"/>
        <pt x="422" y="500" on="1"/>
        <pt x="550" y="500" on="1"/>
        <pt x="450" y="0" on="1"/>
        <pt x="320" y="0" on="1"/>
        <pt x="320" y="62" on="1"/>
        <pt x="318" y="62" on="1"/>
        <pt x="285" y="27" on="0"/>
        <pt x="204" y="-12" on="0"/>
        <pt x="168" y="-12" on="1"/>
        <pt x="102" y="-12" on="0"/>
        <pt x="28" y="83" on="0"/>
      </contour>
      <contour>
        <pt x="240" y="118" on="1"/>
        <pt x="260" y="118" on="0"/>
        <pt x="308" y="143" on="0"/>
        <pt x="328" y="184" on="1"/>
        <pt x="360" y="344" on="1"/>
        <pt x="351" y="364" on="0"/>
        <pt x="320" y="382" on="0"/>
        <pt x="306" y="382" on="1"/>
        <pt x="284" y="382" on="0"/>
        <pt x="244" y="354" on="0"/>
        <pt x="213" y="304" on="0"/>
        <pt x="194" y="234" on="0"/>
        <pt x="194" y="192" on="1"/>
        <pt x="194" y="153" on="0"/>
        <pt x="219" y="118" on="0"/>
      </contour>
    </TTGlyph>
    <TTGlyph name="a.a" xMin="18" yMin="-12" xMax="476" yMax="512">
      <contour>
        <pt x="18" y="114" on="1"/>
        <pt x="18" y="169" on="0"/>
        <pt x="66" y="245" on="0"/>
        <pt x="147" y="291" on="0"/>
        <pt x="255" y="312" on="0"/>
        <pt x="316" y="314" on="1"/>
        <pt x="318" y="319" on="0"/>
        <pt x="318" y="325" on="0"/>
        <pt x="318" y="328" on="1"/>
        <pt x="318" y="361" on="0"/>
        <pt x="286" y="388" on="0"/>
        <pt x="260" y="388" on="1"/>
        <pt x="230" y="388" on="0"/>
        <pt x="178" y="370" on="0"/>
        <pt x="142" y="352" on="1"/>
        <pt x="94" y="462" on="1"/>
        <pt x="141" y="485" on="0"/>
        <pt x="245" y="512" on="0"/>
        <pt x="296" y="512" on="1"/>
        <pt x="382" y="512" on="0"/>
        <pt x="476" y="429" on="0"/>
        <pt x="476" y="344" on="1"/>
        <pt x="476" y="327" on="0"/>
        <pt x="473" y="291" on="0"/>
        <pt x="468" y="270" on="1"/>
        <pt x="414" y="0" on="1"/>
        <pt x="285" y="0" on="1"/>
        <pt x="282" y="48" on="1"/>
        <pt x="278" y="48" on="1"/>
        <pt x="254" y="24" on="0"/>
        <pt x="182" y="-12" on="0"/>
        <pt x="144" y="-12" on="1"/>
        <pt x="118" y="-12" on="0"/>
        <pt x="72" y="6" on="0"/>
        <pt x="38" y="39" on="0"/>
        <pt x="18" y="85" on="0"/>
      </contour>
      <contour>
        <pt x="298" y="218" on="1"/>
        <pt x="230" y="216" on="0"/>
        <pt x="174" y="175" on="0"/>
        <pt x="174" y="146" on="1"/>
        <pt x="174" y="129" on="0"/>
        <pt x="199" y="110" on="0"/>
        <pt x="220" y="110" on="1"/>
        <pt x="238" y="110" on="0"/>
        <pt x="267" y="128" on="0"/>
        <pt x="282" y="142" on="1"/>
      </contour>
    </TTGlyph>
    <TTGlyph name="a.supa" xMin="52" yMin="252" xMax="361" yMax="599">
      <contour>
        <pt x="52" y="336" on="1"/>
        <pt x="52" y="372" on="0"/>
        <pt x="83" y="421" on="0"/>
        <pt x="137" y="452" on="0"/>
        <pt x="209" y="467" on="0"/>
        <pt x="250" y="468" on="1"/>
        <pt x="250" y="474" on="1"/>
        <pt x="250" y="496" on="0"/>
        <pt x="229" y="514" on="0"/>
        <pt x="211" y="514" on="1"/>
        <pt x="193" y="514" on="0"/>
        <pt x="162" y="503" on="0"/>
        <pt x="138" y="492" on="1"/>
        <pt x="104" y="566" on="1"/>
        <pt x="136" y="580" on="0"/>
        <pt x="203" y="599" on="0"/>
        <pt x="238" y="599" on="1"/>
        <pt x="297" y="599" on="0"/>
        <pt x="361" y="545" on="0"/>
        <pt x="361" y="486" on="1"/>
        <pt x="361" y="465" on="0"/>
        <pt x="355" y="437" on="1"/>
        <pt x="320" y="260" on="1"/>
        <pt x="232" y="260" on="1"/>
        <pt x="228" y="292" on="1"/>
        <pt x="224" y="292" on="1"/>
        <pt x="209" y="275" on="0"/>
        <pt x="162" y="252" on="0"/>
        <pt x="136" y="252" on="1"/>
        <pt x="100" y="252" on="0"/>
        <pt x="52" y="298" on="0"/>
      </contour>
      <contour>
        <pt x="238" y="402" on="1"/>
        <pt x="194" y="401" on="0"/>
        <pt x="160" y="375" on="0"/>
        <pt x="160" y="358" on="1"/>
        <pt x="160" y="347" on="0"/>
        <pt x="174" y="334" on="0"/>
        <pt x="188" y="334" on="1"/>
        <pt x="200" y="334" on="0"/>
        <pt x="219" y="347" on="0"/>
        <pt x="228" y="355" on="1"/>
      </contour>
    </TTGlyph>
    <TTGlyph name="a.sups" xMin="52" yMin="252" xMax="404" yMax="600">
      <contour>
        <pt x="52" y="374" on="1"/>
        <pt x="52" y="421" on="0"/>
        <pt x="82" y="504" on="0"/>
        <pt x="131" y="565" on="0"/>
        <pt x="195" y="600" on="0"/>
        <pt x="230" y="600" on="1"/>
        <pt x="251" y="600" on="0"/>
        <pt x="285" y="576" on="0"/>
        <pt x="294" y="558" on="1"/>
        <pt x="298" y="558" on="1"/>
        <pt x="314" y="592" on="1"/>
        <pt x="404" y="592" on="1"/>
        <pt x="338" y="260" on="1"/>
        <pt x="248" y="260" on="1"/>
        <pt x="248" y="300" on="1"/>
        <pt x="244" y="300" on="1"/>
        <pt x="223" y="277" on="0"/>
        <pt x="170" y="252" on="0"/>
        <pt x="146" y="252" on="1"/>
        <pt x="102" y="252" on="0"/>
        <pt x="52" y="315" on="0"/>
      </contour>
      <contour>
        <pt x="194" y="342" on="1"/>
        <pt x="208" y="342" on="0"/>
        <pt x="238" y="358" on="0"/>
        <pt x="252" y="384" on="1"/>
        <pt x="270" y="486" on="1"/>
        <pt x="265" y="498" on="0"/>
        <pt x="247" y="510" on="0"/>
        <pt x="238" y="510" on="1"/>
        <pt x="224" y="510" on="0"/>
        <pt x="199" y="492" on="0"/>
        <pt x="178" y="460" on="0"/>
        <pt x="166" y="415" on="0"/>
        <pt x="166" y="388" on="1"/>
        <pt x="166" y="364" on="0"/>
        <pt x="182" y="342" on="0"/>
      </contour>
    </TTGlyph>
    <TTGlyph name="aacute" xMin="28" yMin="-12" xMax="550" yMax="726">
      <component glyphName="a" x="0" y="0" flags="0x204"/>
      <component glyphName="uni0301" x="220" y="0" flags="0x4"/>
    </TTGlyph>
    <TTGlyph name="aacute.a" xMin="18" yMin="-12" xMax="498" yMax="726">
      <component glyphName="a.a" x="0" y="0" flags="0x204"/>
      <component glyphName="uni0301" x="200" y="0" flags="0x4"/>
    </TTGlyph>
    <TTGlyph name="abreve" xMin="28" yMin="-12" xMax="550" yMax="716">
      <component glyphName="a" x="0" y="0" flags="0x204"/>
      <component glyphName="uni0306" x="220" y="0" flags="0x4"/>
    </TTGlyph>
    <TTGlyph name="abreve.a" xMin="18" yMin="-12" xMax="480" yMax="716">
      <component glyphName="a.a" x="0" y="0" flags="0x204"/>
      <component glyphName="uni0306" x="200" y="0" flags="0x4"/>
    </TTGlyph>
    <TTGlyph name="acircumflex" xMin="28" yMin="-12" xMax="550" yMax="726">
      <component glyphName="a" x="0" y="0" flags="0x204"/>
      <component glyphName="uni0302" x="220" y="0" flags="0x4"/>
    </TTGlyph>
    <TTGlyph name="acircumflex.a" xMin="18" yMin="-12" xMax="476" yMax="726">
      <component glyphName="a.a" x="0" y="0" flags="0x204"/>
      <component glyphName="uni0302" x="200" y="0" flags="0x4"/>
    </TTGlyph>
    <TTGlyph name="acute" xMin="244" yMin="574" xMax="518" yMax="726">
      <component glyphName="uni0301" x="220" y="0" flags="0x4"/>
    </TTGlyph>
    <TTGlyph name="adieresis" xMin="28" yMin="-12" xMax="550" yMax="714">
      <component glyphName="a" x="0" y="0" flags="0x204"/>
      <component glyphName="uni0308" x="220" y="0" flags="0x4"/>
    </TTGlyph>
    <TTGlyph name="adieresis.a" xMin="18" yMin="-12" xMax="500" yMax="714">
      <component glyphName="a.a" x="0" y="0" flags="0x204"/>
      <component glyphName="uni0308" x="200" y="0" flags="0x4"/>
    </TTGlyph>
    <TTGlyph name="ae" xMin="18" yMin="-12" xMax="724" yMax="512">
      <contour>
        <pt x="18" y="114" on="1"/>
        <pt x="18" y="169" on="0"/>
        <pt x="66" y="245" on="0"/>
        <pt x="147" y="291" on="0"/>
        <pt x="255" y="312" on="0"/>
        <pt x="316" y="314" on="1"/>
        <pt x="316" y="326" on="1"/>
        <pt x="316" y="359" on="0"/>
        <pt x="285" y="388" on="0"/>
        <pt x="256" y="388" on="1"/>
        <pt x="229" y="388" on="0"/>
        <pt x="168" y="369" on="0"/>
        <pt x="132" y="352" on="1"/>
        <pt x="98" y="462" on="1"/>
        <pt x="145" y="485" on="0"/>
        <pt x="245" y="512" on="0"/>
        <pt x="296" y="512" on="1"/>
        <pt x="381" y="512" on="0"/>
        <pt x="418" y="456" on="1"/>
        <pt x="450" y="483" on="0"/>
        <pt x="522" y="512" on="0"/>
        <pt x="558" y="512" on="1"/>
        <pt x="604" y="512" on="0"/>
        <pt x="667" y="482" on="0"/>
        <pt x="706" y="430" on="0"/>
        <pt x="724" y="361" on="0"/>
        <pt x="724" y="322" on="1"/>
        <pt x="724" y="303" on="0"/>
        <pt x="717" y="265" on="0"/>
        <pt x="708" y="232" on="0"/>
        <pt x="699" y="207" on="0"/>
        <pt x="696" y="202" on="1"/>
        <pt x="436" y="202" on="1"/>
        <pt x="435" y="177" on="0"/>
        <pt x="449" y="142" on="0"/>
        <pt x="475" y="119" on="0"/>
        <pt x="511" y="108" on="0"/>
        <pt x="532" y="108" on="1"/>
        <pt x="552" y="108" on="0"/>
        <pt x="597" y="128" on="0"/>
        <pt x="614" y="140" on="1"/>
        <pt x="670" y="40" on="1"/>
        <pt x="641" y="19" on="0"/>
        <pt x="553" y="-12" on="0"/>
        <pt x="496" y="-12" on="1"/>
        <pt x="443" y="-12" on="0"/>
        <pt x="359" y="32" on="0"/>
        <pt x="337" y="63" on="1"/>
        <pt x="294" y="28" on="0"/>
        <pt x="208" y="-12" on="0"/>
        <pt x="154" y="-12" on="1"/>
        <pt x="125" y="-12" on="0"/>
        <pt x="75" y="6" on="0"/>
        <pt x="39" y="39" on="0"/>
        <pt x="18" y="85" on="0"/>
      </contour>
      <contour>
        <pt x="590" y="298" on="1"/>
        <pt x="592" y="309" on="0"/>
        <pt x="594" y="321" on="0"/>
        <pt x="594" y="330" on="1"/>
        <pt x="594" y="356" on="0"/>
        <pt x="570" y="390" on="0"/>
        <pt x="538" y="390" on="1"/>
        <pt x="512" y="390" on="0"/>
        <pt x="463" y="346" on="0"/>
        <pt x="448" y="298" on="1"/>
      </contour>
      <contour>
        <pt x="296" y="218" on="1"/>
        <pt x="230" y="216" on="0"/>
        <pt x="174" y="175" on="0"/>
        <pt x="174" y="146" on="1"/>
        <pt x="174" y="129" on="0"/>
        <pt x="199" y="110" on="0"/>
        <pt x="220" y="110" on="1"/>
        <pt x="238" y="110" on="0"/>
        <pt x="278" y="134" on="0"/>
        <pt x="298" y="158" on="1"/>
        <pt x="296" y="172" on="0"/>
        <pt x="294" y="200" on="0"/>
      </contour>
    </TTGlyph>
    <TTGlyph name="agrave" xMin="28" yMin="-12" xMax="550" yMax="726">
      <component glyphName="a" x="0" y="0" flags="0x204"/>
      <component glyphName="uni0300" x="220" y="0" flags="0x4"/>
    </TTGlyph>
    <TTGlyph name="agrave.a" xMin="18" yMin="-12" xMax="476" yMax="726">
      <component glyphName="a.a" x="0" y="0" flags="0x204"/>
      <component glyphName="uni0300" x="200" y="0" flags="0x4"/>
    </TTGlyph>
    <TTGlyph name="amacron" xMin="28" yMin="-12" xMax="550" yMax="690">
      <component glyphName="a" x="0" y="0" flags="0x204"/>
      <component glyphName="uni0304" x="220" y="0" flags="0x4"/>
    </TTGlyph>
    <TTGlyph name="amacron.a" xMin="18" yMin="-12" xMax="476" yMax="690">
      <component glyphName="a.a" x="0" y="0" flags="0x204"/>
      <component glyphName="uni0304" x="200" y="0" flags="0x4"/>
    </TTGlyph>
    <TTGlyph name="ampersand" xMin="14" yMin="-12" xMax="660" yMax="662">
      <contour>
        <pt x="168" y="170" on="1"/>
        <pt x="168" y="143" on="0"/>
        <pt x="203" y="108" on="0"/>
        <pt x="236" y="108" on="1"/>
        <pt x="274" y="108" on="0"/>
        <pt x="311" y="125" on="1"/>
        <pt x="255" y="181" on="0"/>
        <pt x="214" y="248" on="1"/>
        <pt x="193" y="231" on="0"/>
        <pt x="168" y="193" on="0"/>
      </contour>
      <contour>
        <pt x="272" y="470" on="1"/>
        <pt x="272" y="457" on="0"/>
        <pt x="276" y="432" on="0"/>
        <pt x="279" y="419" on="1"/>
        <pt x="318" y="440" on="0"/>
        <pt x="369" y="489" on="0"/>
        <pt x="369" y="525" on="1"/>
        <pt x="369" y="558" on="0"/>
        <pt x="338" y="558" on="1"/>
        <pt x="313" y="558" on="0"/>
        <pt x="272" y="512" on="0"/>
      </contour>
      <contour>
        <pt x="660" y="372" on="1"/>
        <pt x="632" y="312" on="0"/>
        <pt x="563" y="200" on="0"/>
        <pt x="517" y="147" on="1"/>
        <pt x="543" y="134" on="0"/>
        <pt x="591" y="119" on="0"/>
        <pt x="610" y="114" on="1"/>
        <pt x="548" y="-12" on="1"/>
        <pt x="475" y="2" on="0"/>
        <pt x="406" y="47" on="1"/>
        <pt x="363" y="18" on="0"/>
        <pt x="265" y="-12" on="0"/>
        <pt x="208" y="-12" on="1"/>
        <pt x="114" y="-12" on="0"/>
        <pt x="14" y="80" on="0"/>
        <pt x="14" y="154" on="1"/>
        <pt x="14" y="194" on="0"/>
        <pt x="38" y="256" on="0"/>
        <pt x="78" y="305" on="0"/>
        <pt x="131" y="343" on="0"/>
        <pt x="160" y="359" on="1"/>
        <pt x="140" y="416" on="0"/>
        <pt x="140" y="466" on="1"/>
        <pt x="140" y="506" on="0"/>
        <pt x="172" y="577" on="0"/>
        <pt x="228" y="631" on="0"/>
        <pt x="304" y="662" on="0"/>
        <pt x="348" y="662" on="1"/>
        <pt x="417" y="662" on="0"/>
        <pt x="492" y="587" on="0"/>
        <pt x="492" y="522" on="1"/>
        <pt x="492" y="486" on="0"/>
        <pt x="463" y="427" on="0"/>
        <pt x="417" y="379" on="0"/>
        <pt x="358" y="338" on="0"/>
        <pt x="327" y="320" on="1"/>
        <pt x="347" y="291" on="0"/>
        <pt x="395" y="238" on="0"/>
        <pt x="421" y="215" on="1"/>
        <pt x="452" y="250" on="0"/>
        <pt x="498" y="327" on="0"/>
        <pt x="516" y="372" on="1"/>
      </contour>
    </TTGlyph>
    <TTGlyph name="aogonek" xMin="28" yMin="-212" xMax="550" yMax="512">
      <contour>
        <pt x="28" y="172" on="1"/>
        <pt x="28" y="243" on="0"/>
        <pt x="72" y="367" on="0"/>
        <pt x="146" y="459" on="0"/>
        <pt x="242" y="512" on="0"/>
        <pt x="294" y="512" on="1"/>
        <pt x="326" y="512" on="0"/>
        <pt x="384" y="479" on="0"/>
        <pt x="398" y="450" on="1"/>
        <pt x="400" y="450" on="1"/>
        <pt x="422" y="500" on="1"/>
        <pt x="550" y="500" on="1"/>
        <pt x="450" y="0" on="1"/>
        <pt x="402" y="-12" on="0"/>
        <pt x="346" y="-60" on="0"/>
        <pt x="346" y="-90" on="1"/>
        <pt x="346" y="-104" on="0"/>
        <pt x="366" y="-118" on="0"/>
        <pt x="380" y="-118" on="1"/>
        <pt x="393" y="-118" on="0"/>
        <pt x="410" y="-108" on="1"/>
        <pt x="436" y="-172" on="1"/>
        <pt x="413" y="-189" on="0"/>
        <pt x="349" y="-212" on="0"/>
        <pt x="322" y="-212" on="1"/>
        <pt x="283" y="-212" on="0"/>
        <pt x="232" y="-174" on="0"/>
        <pt x="232" y="-136" on="1"/>
        <pt x="232" y="-111" on="0"/>
        <pt x="252" y="-68" on="0"/>
        <pt x="280" y="-33" on="0"/>
        <pt x="310" y="-8" on="0"/>
        <pt x="320" y="0" on="1"/>
        <pt x="320" y="62" on="1"/>
        <pt x="318" y="62" on="1"/>
        <pt x="285" y="27" on="0"/>
        <pt x="204" y="-12" on="0"/>
        <pt x="168" y="-12" on="1"/>
        <pt x="102" y="-12" on="0"/>
        <pt x="28" y="83" on="0"/>
      </contour>
      <contour>
        <pt x="240" y="118" on="1"/>
        <pt x="260" y="118" on="0"/>
        <pt x="308" y="143" on="0"/>
        <pt x="328" y="184" on="1"/>
        <pt x="360" y="344" on="1"/>
        <pt x="351" y="364" on="0"/>
        <pt x="320" y="382" on="0"/>
        <pt x="306" y="382" on="1"/>
        <pt x="284" y="382" on="0"/>
        <pt x="244" y="354" on="0"/>
        <pt x="213" y="304" on="0"/>
        <pt x="194" y="234" on="0"/>
        <pt x="194" y="192" on="1"/>
        <pt x="194" y="153" on="0"/>
        <pt x="219" y="118" on="0"/>
      </contour>
    </TTGlyph>
    <TTGlyph name="aogonek.a" xMin="18" yMin="-212" xMax="476" yMax="512">
      <contour>
        <pt x="282" y="48" on="1"/>
        <pt x="278" y="48" on="1"/>
        <pt x="254" y="24" on="0"/>
        <pt x="182" y="-12" on="0"/>
        <pt x="144" y="-12" on="1"/>
        <pt x="118" y="-12" on="0"/>
        <pt x="72" y="6" on="0"/>
        <pt x="38" y="39" on="0"/>
        <pt x="18" y="85" on="0"/>
        <pt x="18" y="114" on="1"/>
        <pt x="18" y="169" on="0"/>
        <pt x="66" y="245" on="0"/>
        <pt x="147" y="291" on="0"/>
        <pt x="255" y="312" on="0"/>
        <pt x="316" y="314" on="1"/>
        <pt x="318" y="319" on="0"/>
        <pt x="318" y="325" on="0"/>
        <pt x="318" y="328" on="1"/>
        <pt x="318" y="361" on="0"/>
        <pt x="286" y="388" on="0"/>
        <pt x="260" y="388" on="1"/>
        <pt x="230" y="388" on="0"/>
        <pt x="178" y="370" on="0"/>
        <pt x="142" y="352" on="1"/>
        <pt x="94" y="462" on="1"/>
        <pt x="141" y="485" on="0"/>
        <pt x="245" y="512" on="0"/>
        <pt x="296" y="512" on="1"/>
        <pt x="382" y="512" on="0"/>
        <pt x="476" y="429" on="0"/>
        <pt x="476" y="344" on="1"/>
        <pt x="476" y="327" on="0"/>
        <pt x="473" y="291" on="0"/>
        <pt x="468" y="270" on="1"/>
        <pt x="414" y="0" on="1"/>
        <pt x="366" y="-12" on="0"/>
        <pt x="310" y="-60" on="0"/>
        <pt x="310" y="-90" on="1"/>
        <pt x="310" y="-104" on="0"/>
        <pt x="330" y="-118" on="0"/>
        <pt x="344" y="-118" on="1"/>
        <pt x="357" y="-118" on="0"/>
        <pt x="374" y="-108" on="1"/>
        <pt x="400" y="-172" on="1"/>
        <pt x="377" y="-189" on="0"/>
        <pt x="313" y="-212" on="0"/>
        <pt x="286" y="-212" on="1"/>
        <pt x="247" y="-212" on="0"/>
        <pt x="196" y="-174" on="0"/>
        <pt x="196" y="-136" on="1"/>
        <pt x="196" y="-111" on="0"/>
        <pt x="216" y="-68" on="0"/>
        <pt x="245" y="-33" on="0"/>
        <pt x="275" y="-8" on="0"/>
        <pt x="285" y="0" on="1"/>
      </contour>
      <contour>
        <pt x="298" y="218" on="1"/>
        <pt x="230" y="216" on="0"/>
        <pt x="174" y="175" on="0"/>
        <pt x="174" y="146" on="1"/>
        <pt x="174" y="129" on="0"/>
        <pt x="199" y="110" on="0"/>
        <pt x="220" y="110" on="1"/>
        <pt x="238" y="110" on="0"/>
        <pt x="267" y="128" on="0"/>
        <pt x="282" y="142" on="1"/>
      </contour>
    </TTGlyph>
    <TTGlyph name="approxequal" xMin="36" yMin="121" xMax="498" yMax="542">
      <component glyphName="asciitilde" x="0" y="120" flags="0x204"/>
      <component glyphName="asciitilde" x="0" y="-119" flags="0x4"/>
    </TTGlyph>
    <TTGlyph name="aring" xMin="28" yMin="-12" xMax="550" yMax="758">
      <component glyphName="a" x="0" y="0" flags="0x204"/>
      <component glyphName="uni030A" x="220" y="2" flags="0x4"/>
    </TTGlyph>
    <TTGlyph name="aring.a" xMin="18" yMin="-12" xMax="476" yMax="758">
      <component glyphName="a.a" x="0" y="0" flags="0x204"/>
      <component glyphName="uni030A" x="200" y="2" flags="0x4"/>
    </TTGlyph>
    <TTGlyph name="arrowdown" xMin="26" yMin="-28" xMax="566" yMax="530">
      <contour>
        <pt x="294" y="-28" on="1"/>
        <pt x="26" y="240" on="1"/>
        <pt x="110" y="314" on="1"/>
        <pt x="232" y="184" on="1"/>
        <pt x="232" y="530" on="1"/>
        <pt x="360" y="530" on="1"/>
        <pt x="360" y="184" on="1"/>
        <pt x="482" y="314" on="1"/>
        <pt x="566" y="240" on="1"/>
        <pt x="298" y="-28" on="1"/>
      </contour>
    </TTGlyph>
    <TTGlyph name="arrowup" xMin="26" yMin="-28" xMax="566" yMax="530">
      <contour>
        <pt x="298" y="530" on="1"/>
        <pt x="566" y="262" on="1"/>
        <pt x="482" y="188" on="1"/>
        <pt x="360" y="318" on="1"/>
        <pt x="360" y="-28" on="1"/>
        <pt x="232" y="-28" on="1"/>
        <pt x="232" y="318" on="1"/>
        <pt x="110" y="188" on="1"/>
        <pt x="26" y="262" on="1"/>
        <pt x="294" y="530" on="1"/>
      </contour>
    </TTGlyph>
    <TTGlyph name="asciicircum" xMin="68" yMin="272" xMax="494" yMax="670">
      <contour>
        <pt x="218" y="670" on="1"/>
        <pt x="344" y="670" on="1"/>
        <pt x="494" y="272" on="1"/>
        <pt x="364" y="272" on="1"/>
        <pt x="326" y="390" on="1"/>
        <pt x="284" y="526" on="1"/>
        <pt x="280" y="526" on="1"/>
        <pt x="236" y="390" on="1"/>
        <pt x="198" y="272" on="1"/>
        <pt x="68" y="272" on="1"/>
      </contour>
    </TTGlyph>
    <TTGlyph name="asciitilde" xMin="36" yMin="240" xMax="498" yMax="422">
      <contour>
        <pt x="36" y="314" on="1"/>
        <pt x="71" y="374" on="0"/>
        <pt x="150" y="422" on="0"/>
        <pt x="188" y="422" on="1"/>
        <pt x="216" y="422" on="0"/>
        <pt x="260" y="399" on="0"/>
        <pt x="298" y="371" on="0"/>
        <pt x="332" y="348" on="0"/>
        <pt x="352" y="348" on="1"/>
        <pt x="391" y="348" on="0"/>
        <pt x="418" y="402" on="1"/>
        <pt x="498" y="348" on="1"/>
        <pt x="463" y="288" on="0"/>
        <pt x="384" y="240" on="0"/>
        <pt x="346" y="240" on="1"/>
        <pt x="317" y="240" on="0"/>
        <pt x="274" y="263" on="0"/>
        <pt x="236" y="291" on="0"/>
        <pt x="201" y="314" on="0"/>
        <pt x="182" y="314" on="1"/>
        <pt x="143" y="314" on="0"/>
        <pt x="116" y="260" on="1"/>
      </contour>
    </TTGlyph>
    <TTGlyph name="asterisk" xMin="92" yMin="328" xMax="476" yMax="714">
      <contour>
        <pt x="112" y="396" on="1"/>
        <pt x="190" y="498" on="1"/>
        <pt x="92" y="556" on="1"/>
        <pt x="128" y="630" on="1"/>
        <pt x="238" y="596" on="1"/>
        <pt x="272" y="714" on="1"/>
        <pt x="354" y="708" on="1"/>
        <pt x="346" y="586" on="1"/>
        <pt x="464" y="600" on="1"/>
        <pt x="476" y="520" on="1"/>
        <pt x="362" y="480" on="1"/>
        <pt x="400" y="370" on="1"/>
        <pt x="326" y="328" on="1"/>
        <pt x="262" y="424" on="1"/>
        <pt x="172" y="340" on="1"/>
      </contour>
    </TTGlyph>
    <TTGlyph name="at" xMin="42" yMin="-176" xMax="850" yMax="674">
      <contour>
        <pt x="630" y="134" on="1"/>
        <pt x="649" y="134" on="0"/>
        <pt x="691" y="160" on="0"/>
        <pt x="727" y="213" on="0"/>
        <pt x="750" y="293" on="0"/>
        <pt x="750" y="346" on="1"/>
        <pt x="750" y="390" on="0"/>
        <pt x="725" y="475" on="0"/>
        <pt x="665" y="541" on="0"/>
        <pt x="568" y="582" on="0"/>
        <pt x="496" y="582" on="1"/>
        <pt x="435" y="582" on="0"/>
        <pt x="312" y="520" on="0"/>
        <pt x="213" y="412" on="0"/>
        <pt x="150" y="265" on="0"/>
        <pt x="150" y="180" on="1"/>
        <pt x="150" y="113" on="0"/>
        <pt x="195" y="15" on="0"/>
        <pt x="267" y="-49" on="0"/>
        <pt x="358" y="-80" on="0"/>
        <pt x="404" y="-80" on="1"/>
        <pt x="428" y="-80" on="0"/>
        <pt x="492" y="-61" on="0"/>
        <pt x="516" y="-46" on="1"/>
        <pt x="558" y="-132" on="1"/>
        <pt x="515" y="-153" on="0"/>
        <pt x="433" y="-176" on="0"/>
        <pt x="390" y="-176" on="1"/>
        <pt x="322" y="-176" on="0"/>
        <pt x="196" y="-135" on="0"/>
        <pt x="100" y="-51" on="0"/>
        <pt x="42" y="76" on="0"/>
        <pt x="42" y="162" on="1"/>
        <pt x="42" y="270" on="0"/>
        <pt x="119" y="457" on="0"/>
        <pt x="248" y="595" on="0"/>
        <pt x="418" y="674" on="0"/>
        <pt x="512" y="674" on="1"/>
        <pt x="592" y="674" on="0"/>
        <pt x="718" y="625" on="0"/>
        <pt x="805" y="540" on="0"/>
        <pt x="850" y="426" on="0"/>
        <pt x="850" y="362" on="1"/>
        <pt x="850" y="280" on="0"/>
        <pt x="810" y="158" on="0"/>
        <pt x="742" y="77" on="0"/>
        <pt x="651" y="36" on="0"/>
        <pt x="600" y="36" on="1"/>
        <pt x="565" y="36" on="0"/>
        <pt x="508" y="72" on="0"/>
        <pt x="498" y="110" on="1"/>
        <pt x="494" y="110" on="1"/>
        <pt x="476" y="81" on="0"/>
        <pt x="412" y="46" on="0"/>
        <pt x="382" y="46" on="1"/>
        <pt x="354" y="46" on="0"/>
        <pt x="307" y="67" on="0"/>
        <pt x="273" y="106" on="0"/>
        <pt x="254" y="161" on="0"/>
        <pt x="254" y="194" on="1"/>
        <pt x="254" y="242" on="0"/>
        <pt x="287" y="332" on="0"/>
        <pt x="343" y="402" on="0"/>
        <pt x="418" y="444" on="0"/>
        <pt x="460" y="444" on="1"/>
        <pt x="483" y="444" on="0"/>
        <pt x="516" y="422" on="0"/>
        <pt x="528" y="396" on="1"/>
        <pt x="530" y="396" on="1"/>
        <pt x="546" y="436" on="1"/>
        <pt x="642" y="436" on="1"/>
        <pt x="590" y="212" on="1"/>
        <pt x="581" y="171" on="0"/>
        <pt x="600" y="134" on="0"/>
      </contour>
      <contour>
        <pt x="372" y="202" on="1"/>
        <pt x="372" y="175" on="0"/>
        <pt x="393" y="144" on="0"/>
        <pt x="416" y="144" on="1"/>
        <pt x="430" y="144" on="0"/>
        <pt x="455" y="164" on="0"/>
        <pt x="472" y="188" on="1"/>
        <pt x="502" y="318" on="1"/>
        <pt x="490" y="344" on="0"/>
        <pt x="464" y="344" on="1"/>
        <pt x="444" y="344" on="0"/>
        <pt x="411" y="316" on="0"/>
        <pt x="386" y="274" on="0"/>
        <pt x="372" y="224" on="0"/>
      </contour>
    </TTGlyph>
    <TTGlyph name="at.case" xMin="82" yMin="-36" xMax="805" yMax="704">
      <contour>
        <pt x="615" y="234" on="1"/>
        <pt x="630" y="234" on="0"/>
        <pt x="662" y="259" on="0"/>
        <pt x="690" y="309" on="0"/>
        <pt x="708" y="380" on="0"/>
        <pt x="708" y="427" on="1"/>
        <pt x="708" y="464" on="0"/>
        <pt x="688" y="532" on="0"/>
        <pt x="639" y="584" on="0"/>
        <pt x="558" y="616" on="0"/>
        <pt x="497" y="616" on="1"/>
        <pt x="443" y="616" on="0"/>
        <pt x="333" y="564" on="0"/>
        <pt x="243" y="472" on="0"/>
        <pt x="186" y="349" on="0"/>
        <pt x="186" y="277" on="1"/>
        <pt x="186" y="221" on="0"/>
        <pt x="217" y="138" on="0"/>
        <pt x="271" y="82" on="0"/>
        <pt x="346" y="54" on="0"/>
        <pt x="390" y="54" on="1"/>
        <pt x="401" y="54" on="0"/>
        <pt x="431" y="58" on="0"/>
        <pt x="463" y="65" on="0"/>
        <pt x="493" y="75" on="0"/>
        <pt x="504" y="82" on="1"/>
        <pt x="521" y="2" on="1"/>
        <pt x="485" y="-20" on="0"/>
        <pt x="402" y="-36" on="0"/>
        <pt x="367" y="-36" on="1"/>
        <pt x="307" y="-36" on="0"/>
        <pt x="202" y="3" on="0"/>
        <pt x="126" y="78" on="0"/>
        <pt x="82" y="187" on="0"/>
        <pt x="82" y="257" on="1"/>
        <pt x="82" y="357" on="0"/>
        <pt x="155" y="522" on="0"/>
        <pt x="275" y="639" on="0"/>
        <pt x="428" y="704" on="0"/>
        <pt x="507" y="704" on="1"/>
        <pt x="584" y="704" on="0"/>
        <pt x="696" y="661" on="0"/>
        <pt x="770" y="587" on="0"/>
        <pt x="805" y="489" on="0"/>
        <pt x="805" y="434" on="1"/>
        <pt x="805" y="361" on="0"/>
        <pt x="770" y="250" on="0"/>
        <pt x="709" y="175" on="0"/>
        <pt x="627" y="136" on="0"/>
        <pt x="581" y="136" on="1"/>
        <pt x="549" y="136" on="0"/>
        <pt x="497" y="172" on="0"/>
        <pt x="489" y="210" on="1"/>
        <pt x="485" y="210" on="1"/>
        <pt x="468" y="181" on="0"/>
        <pt x="406" y="146" on="0"/>
        <pt x="380" y="146" on="1"/>
        <pt x="329" y="146" on="0"/>
        <pt x="266" y="223" on="0"/>
        <pt x="266" y="286" on="1"/>
        <pt x="266" y="328" on="0"/>
        <pt x="296" y="408" on="0"/>
        <pt x="348" y="471" on="0"/>
        <pt x="417" y="510" on="0"/>
        <pt x="457" y="510" on="1"/>
        <pt x="477" y="510" on="0"/>
        <pt x="507" y="488" on="0"/>
        <pt x="517" y="462" on="1"/>
        <pt x="518" y="462" on="1"/>
        <pt x="536" y="502" on="1"/>
        <pt x="631" y="502" on="1"/>
        <pt x="584" y="312" on="1"/>
        <pt x="574" y="271" on="0"/>
        <pt x="589" y="234" on="0"/>
      </contour>
      <contour>
        <pt x="383" y="296" on="1"/>
        <pt x="383" y="272" on="0"/>
        <pt x="400" y="244" on="0"/>
        <pt x="418" y="244" on="1"/>
        <pt x="429" y="244" on="0"/>
        <pt x="452" y="264" on="0"/>
        <pt x="466" y="288" on="1"/>
        <pt x="487" y="384" on="1"/>
        <pt x="480" y="410" on="0"/>
        <pt x="457" y="410" on="1"/>
        <pt x="440" y="410" on="0"/>
        <pt x="413" y="387" on="0"/>
        <pt x="393" y="353" on="0"/>
        <pt x="383" y="313" on="0"/>
      </contour>
    </TTGlyph>
    <TTGlyph name="atilde" xMin="28" yMin="-12" xMax="550" yMax="714">
      <component glyphName="a" x="0" y="0" flags="0x204"/>
      <component glyphName="uni0303" x="220" y="0" flags="0x4"/>
    </TTGlyph>
    <TTGlyph name="atilde.a" xMin="18" yMin="-12" xMax="516" yMax="714">
      <component glyphName="a.a" x="0" y="0" flags="0x204"/>
      <component glyphName="uni0303" x="200" y="0" flags="0x4"/>
    </TTGlyph>
    <TTGlyph name="b" xMin="8" yMin="-12" xMax="530" yMax="696">
      <contour>
        <pt x="8" y="0" on="1"/>
        <pt x="148" y="696" on="1"/>
        <pt x="308" y="696" on="1"/>
        <pt x="278" y="550" on="1"/>
        <pt x="252" y="458" on="1"/>
        <pt x="254" y="458" on="1"/>
        <pt x="286" y="484" on="0"/>
        <pt x="355" y="512" on="0"/>
        <pt x="390" y="512" on="1"/>
        <pt x="456" y="512" on="0"/>
        <pt x="530" y="417" on="0"/>
        <pt x="530" y="328" on="1"/>
        <pt x="530" y="257" on="0"/>
        <pt x="486" y="133" on="0"/>
        <pt x="412" y="41" on="0"/>
        <pt x="316" y="-12" on="0"/>
        <pt x="264" y="-12" on="1"/>
        <pt x="232" y="-12" on="0"/>
        <pt x="178" y="21" on="0"/>
        <pt x="164" y="50" on="1"/>
        <pt x="162" y="50" on="1"/>
        <pt x="140" y="0" on="1"/>
      </contour>
      <contour>
        <pt x="318" y="382" on="1"/>
        <pt x="298" y="382" on="0"/>
        <pt x="252" y="359" on="0"/>
        <pt x="234" y="326" on="1"/>
        <pt x="200" y="156" on="1"/>
        <pt x="208" y="136" on="0"/>
        <pt x="237" y="118" on="0"/>
        <pt x="252" y="118" on="1"/>
        <pt x="274" y="118" on="0"/>
        <pt x="314" y="146" on="0"/>
        <pt x="345" y="196" on="0"/>
        <pt x="364" y="266" on="0"/>
        <pt x="364" y="308" on="1"/>
        <pt x="364" y="347" on="0"/>
        <pt x="339" y="382" on="0"/>
      </contour>
    </TTGlyph>
    <TTGlyph name="b.sups" xMin="38" yMin="252" xMax="390" yMax="720">
      <contour>
        <pt x="38" y="260" on="1"/>
        <pt x="130" y="720" on="1"/>
        <pt x="242" y="720" on="1"/>
        <pt x="223" y="624" on="1"/>
        <pt x="202" y="560" on="1"/>
        <pt x="206" y="560" on="1"/>
        <pt x="224" y="577" on="0"/>
        <pt x="272" y="600" on="0"/>
        <pt x="296" y="600" on="1"/>
        <pt x="340" y="600" on="0"/>
        <pt x="390" y="537" on="0"/>
        <pt x="390" y="478" on="1"/>
        <pt x="390" y="431" on="0"/>
        <pt x="360" y="348" on="0"/>
        <pt x="311" y="287" on="0"/>
        <pt x="246" y="252" on="0"/>
        <pt x="212" y="252" on="1"/>
        <pt x="191" y="252" on="0"/>
        <pt x="157" y="275" on="0"/>
        <pt x="148" y="294" on="1"/>
        <pt x="144" y="294" on="1"/>
        <pt x="128" y="260" on="1"/>
      </contour>
      <contour>
        <pt x="248" y="510" on="1"/>
        <pt x="234" y="510" on="0"/>
        <pt x="204" y="494" on="0"/>
        <pt x="190" y="468" on="1"/>
        <pt x="172" y="366" on="1"/>
        <pt x="177" y="354" on="0"/>
        <pt x="195" y="342" on="0"/>
        <pt x="204" y="342" on="1"/>
        <pt x="217" y="342" on="0"/>
        <pt x="243" y="360" on="0"/>
        <pt x="264" y="392" on="0"/>
        <pt x="276" y="437" on="0"/>
        <pt x="276" y="464" on="1"/>
        <pt x="276" y="488" on="0"/>
        <pt x="260" y="510" on="0"/>
      </contour>
    </TTGlyph>
    <TTGlyph name="backslash" xMin="84" yMin="-160" xMax="248" yMax="710">
      <contour>
        <pt x="84" y="710" on="1"/>
        <pt x="186" y="710" on="1"/>
        <pt x="248" y="-160" on="1"/>
        <pt x="144" y="-160" on="1"/>
      </contour>
    </TTGlyph>
    <TTGlyph name="bar" xMin="86" yMin="-250" xMax="184" yMax="750">
      <contour>
        <pt x="86" y="750" on="1"/>
        <pt x="184" y="750" on="1"/>
        <pt x="184" y="-250" on="1"/>
        <pt x="86" y="-250" on="1"/>
      </contour>
    </TTGlyph>
    <TTGlyph name="braceleft" xMin="24" yMin="-152" xMax="385" yMax="708">
      <contour>
        <pt x="44" y="-62" on="1"/>
        <pt x="44" y="-32" on="0"/>
        <pt x="60" y="36" on="0"/>
        <pt x="78" y="100" on="0"/>
        <pt x="94" y="155" on="0"/>
        <pt x="94" y="172" on="1"/>
        <pt x="94" y="195" on="0"/>
        <pt x="65" y="230" on="0"/>
        <pt x="24" y="232" on="1"/>
        <pt x="44" y="324" on="1"/>
        <pt x="69" y="325" on="0"/>
        <pt x="104" y="339" on="0"/>
        <pt x="127" y="361" on="0"/>
        <pt x="139" y="387" on="0"/>
        <pt x="142" y="400" on="1"/>
        <pt x="146" y="423" on="0"/>
        <pt x="151" y="460" on="0"/>
        <pt x="154" y="496" on="0"/>
        <pt x="159" y="536" on="0"/>
        <pt x="164" y="562" on="1"/>
        <pt x="172" y="603" on="0"/>
        <pt x="196" y="659" on="0"/>
        <pt x="231" y="693" on="0"/>
        <pt x="280" y="708" on="0"/>
        <pt x="315" y="708" on="1"/>
        <pt x="385" y="708" on="1"/>
        <pt x="367" y="624" on="1"/>
        <pt x="351" y="624" on="1"/>
        <pt x="323" y="624" on="0"/>
        <pt x="299" y="595" on="0"/>
        <pt x="291" y="556" on="1"/>
        <pt x="283" y="518" on="0"/>
        <pt x="272" y="444" on="0"/>
        <pt x="264" y="400" on="1"/>
        <pt x="252" y="340" on="0"/>
        <pt x="202" y="285" on="0"/>
        <pt x="160" y="276" on="1"/>
        <pt x="159" y="272" on="1"/>
        <pt x="189" y="265" on="0"/>
        <pt x="220" y="233" on="0"/>
        <pt x="220" y="198" on="1"/>
        <pt x="220" y="173" on="0"/>
        <pt x="206" y="110" on="0"/>
        <pt x="190" y="45" on="0"/>
        <pt x="176" y="-14" on="0"/>
        <pt x="176" y="-34" on="1"/>
        <pt x="176" y="-53" on="0"/>
        <pt x="191" y="-68" on="0"/>
        <pt x="214" y="-68" on="1"/>
        <pt x="228" y="-68" on="1"/>
        <pt x="212" y="-152" on="1"/>
        <pt x="144" y="-152" on="1"/>
        <pt x="88" y="-152" on="0"/>
        <pt x="44" y="-106" on="0"/>
      </contour>
    </TTGlyph>
    <TTGlyph name="braceright" xMin="-32" yMin="-152" xMax="329" yMax="708">
      <contour>
        <pt x="309" y="618" on="1"/>
        <pt x="309" y="588" on="0"/>
        <pt x="293" y="520" on="0"/>
        <pt x="275" y="456" on="0"/>
        <pt x="259" y="401" on="0"/>
        <pt x="259" y="384" on="1"/>
        <pt x="259" y="361" on="0"/>
        <pt x="288" y="326" on="0"/>
        <pt x="329" y="324" on="1"/>
        <pt x="309" y="232" on="1"/>
        <pt x="284" y="231" on="0"/>
        <pt x="249" y="217" on="0"/>
        <pt x="226" y="195" on="0"/>
        <pt x="214" y="169" on="0"/>
        <pt x="211" y="156" on="1"/>
        <pt x="206" y="133" on="0"/>
        <pt x="202" y="96" on="0"/>
        <pt x="199" y="60" on="0"/>
        <pt x="194" y="20" on="0"/>
        <pt x="189" y="-6" on="1"/>
        <pt x="181" y="-47" on="0"/>
        <pt x="157" y="-103" on="0"/>
        <pt x="122" y="-137" on="0"/>
        <pt x="72" y="-152" on="0"/>
        <pt x="38" y="-152" on="1"/>
        <pt x="-32" y="-152" on="1"/>
        <pt x="-14" y="-68" on="1"/>
        <pt x="2" y="-68" on="1"/>
        <pt x="30" y="-68" on="0"/>
        <pt x="54" y="-39" on="0"/>
        <pt x="62" y="0" on="1"/>
        <pt x="70" y="38" on="0"/>
        <pt x="81" y="112" on="0"/>
        <pt x="89" y="156" on="1"/>
        <pt x="101" y="216" on="0"/>
        <pt x="151" y="271" on="0"/>
        <pt x="193" y="280" on="1"/>
        <pt x="194" y="284" on="1"/>
        <pt x="164" y="291" on="0"/>
        <pt x="133" y="323" on="0"/>
        <pt x="133" y="358" on="1"/>
        <pt x="133" y="383" on="0"/>
        <pt x="147" y="446" on="0"/>
        <pt x="163" y="511" on="0"/>
        <pt x="177" y="570" on="0"/>
        <pt x="177" y="590" on="1"/>
        <pt x="177" y="609" on="0"/>
        <pt x="162" y="624" on="0"/>
        <pt x="139" y="624" on="1"/>
        <pt x="125" y="624" on="1"/>
        <pt x="141" y="708" on="1"/>
        <pt x="209" y="708" on="1"/>
        <pt x="265" y="708" on="0"/>
        <pt x="309" y="662" on="0"/>
      </contour>
    </TTGlyph>
    <TTGlyph name="bracketleft" xMin="-8" yMin="-152" xMax="376" yMax="708">
      <contour>
        <pt x="222" y="-68" on="1"/>
        <pt x="204" y="-152" on="1"/>
        <pt x="-8" y="-152" on="1"/>
        <pt x="164" y="708" on="1"/>
        <pt x="376" y="708" on="1"/>
        <pt x="360" y="624" on="1"/>
        <pt x="266" y="624" on="1"/>
        <pt x="128" y="-68" on="1"/>
      </contour>
    </TTGlyph>
    <TTGlyph name="bracketright" xMin="-22" yMin="-152" xMax="362" yMax="708">
      <contour>
        <pt x="88" y="-68" on="1"/>
        <pt x="226" y="624" on="1"/>
        <pt x="134" y="624" on="1"/>
        <pt x="150" y="708" on="1"/>
        <pt x="362" y="708" on="1"/>
        <pt x="190" y="-152" on="1"/>
        <pt x="-22" y="-152" on="1"/>
        <pt x="-4" y="-68" on="1"/>
      </contour>
    </TTGlyph>
    <TTGlyph name="breve" xMin="218" yMin="574" xMax="500" yMax="716">
      <component glyphName="uni0306" x="220" y="0" flags="0x4"/>
    </TTGlyph>
    <TTGlyph name="brokenbar" xMin="86" yMin="-250" xMax="184" yMax="750">
      <contour>
        <pt x="86" y="750" on="1"/>
        <pt x="184" y="750" on="1"/>
        <pt x="184" y="316" on="1"/>
        <pt x="86" y="316" on="1"/>
      </contour>
      <contour>
        <pt x="184" y="202" on="1"/>
        <pt x="184" y="-250" on="1"/>
        <pt x="86" y="-250" on="1"/>
        <pt x="86" y="202" on="1"/>
      </contour>
    </TTGlyph>
    <TTGlyph name="bullet" xMin="38" yMin="120" xMax="306" yMax="404">
      <contour>
        <pt x="160" y="120" on="1"/>
        <pt x="107" y="120" on="0"/>
        <pt x="38" y="190" on="0"/>
        <pt x="38" y="246" on="1"/>
        <pt x="38" y="274" on="0"/>
        <pt x="59" y="331" on="0"/>
        <pt x="97" y="376" on="0"/>
        <pt x="151" y="404" on="0"/>
        <pt x="184" y="404" on="1"/>
        <pt x="237" y="404" on="0"/>
        <pt x="306" y="334" on="0"/>
        <pt x="306" y="278" on="1"/>
        <pt x="306" y="249" on="0"/>
        <pt x="285" y="193" on="0"/>
        <pt x="247" y="148" on="0"/>
        <pt x="193" y="120" on="0"/>
      </contour>
    </TTGlyph>
    <TTGlyph name="c" xMin="26" yMin="-12" xMax="462" yMax="512">
      <contour>
        <pt x="26" y="196" on="1"/>
        <pt x="26" y="259" on="0"/>
        <pt x="71" y="373" on="0"/>
        <pt x="152" y="460" on="0"/>
        <pt x="261" y="512" on="0"/>
        <pt x="326" y="512" on="1"/>
        <pt x="374" y="512" on="0"/>
        <pt x="444" y="473" on="0"/>
        <pt x="462" y="450" on="1"/>
        <pt x="374" y="356" on="1"/>
        <pt x="360" y="370" on="0"/>
        <pt x="334" y="384" on="0"/>
        <pt x="316" y="384" on="1"/>
        <pt x="289" y="384" on="0"/>
        <pt x="243" y="355" on="0"/>
        <pt x="209" y="304" on="0"/>
        <pt x="190" y="236" on="0"/>
        <pt x="190" y="198" on="1"/>
        <pt x="190" y="160" on="0"/>
        <pt x="226" y="116" on="0"/>
        <pt x="262" y="116" on="1"/>
        <pt x="285" y="116" on="0"/>
        <pt x="316" y="133" on="0"/>
        <pt x="330" y="144" on="1"/>
        <pt x="396" y="46" on="1"/>
        <pt x="367" y="25" on="0"/>
        <pt x="286" y="-12" on="0"/>
        <pt x="226" y="-12" on="1"/>
        <pt x="184" y="-12" on="0"/>
        <pt x="111" y="16" on="0"/>
        <pt x="57" y="69" on="0"/>
        <pt x="26" y="146" on="0"/>
      </contour>
    </TTGlyph>
    <TTGlyph name="c.sups" xMin="50" yMin="252" xMax="344" yMax="600">
      <contour>
        <pt x="50" y="384" on="1"/>
        <pt x="50" y="428" on="0"/>
        <pt x="80" y="506" on="0"/>
        <pt x="134" y="565" on="0"/>
        <pt x="207" y="600" on="0"/>
        <pt x="250" y="600" on="1"/>
        <pt x="281" y="600" on="0"/>
        <pt x="329" y="575" on="0"/>
        <pt x="344" y="560" on="1"/>
        <pt x="281" y="493" on="1"/>
        <pt x="273" y="503" on="0"/>
        <pt x="257" y="512" on="0"/>
        <pt x="246" y="512" on="1"/>
        <pt x="228" y="512" on="0"/>
        <pt x="198" y="493" on="0"/>
        <pt x="176" y="462" on="0"/>
        <pt x="163" y="420" on="0"/>
        <pt x="163" y="397" on="1"/>
        <pt x="163" y="367" on="0"/>
        <pt x="191" y="339" on="0"/>
        <pt x="210" y="339" on="1"/>
        <pt x="226" y="339" on="0"/>
        <pt x="245" y="350" on="0"/>
        <pt x="255" y="356" on="1"/>
        <pt x="290" y="287" on="1"/>
        <pt x="275" y="274" on="0"/>
        <pt x="219" y="252" on="0"/>
        <pt x="185" y="252" on="1"/>
        <pt x="157" y="252" on="0"/>
        <pt x="108" y="270" on="0"/>
        <pt x="71" y="304" on="0"/>
        <pt x="50" y="353" on="0"/>
      </contour>
    </TTGlyph>
    <TTGlyph name="cacute" xMin="26" yMin="-12" xMax="508" yMax="726">
      <component glyphName="c" x="0" y="0" flags="0x204"/>
      <component glyphName="uni0301" x="210" y="0" flags="0x4"/>
    </TTGlyph>
    <TTGlyph name="caron" xMin="210" yMin="574" xMax="520" yMax="726">
      <component glyphName="uni030C" x="220" y="0" flags="0x4"/>
    </TTGlyph>
    <TTGlyph name="ccaron" xMin="26" yMin="-12" xMax="510" yMax="726">
      <component glyphName="c" x="0" y="0" flags="0x204"/>
      <component glyphName="uni030C" x="210" y="0" flags="0x4"/>
    </TTGlyph>
    <TTGlyph name="ccedilla" xMin="26" yMin="-222" xMax="462" yMax="512">
      <component glyphName="c" x="0" y="0" flags="0x204"/>
      <component glyphName="uni0327" x="210" y="0" flags="0x4"/>
    </TTGlyph>
    <TTGlyph name="ccircumflex" xMin="26" yMin="-12" xMax="478" yMax="726">
      <component glyphName="c" x="0" y="0" flags="0x204"/>
      <component glyphName="uni0302" x="210" y="0" flags="0x4"/>
    </TTGlyph>
    <TTGlyph name="cdotaccent" xMin="26" yMin="-12" xMax="462" yMax="728">
      <component glyphName="c" x="0" y="0" flags="0x204"/>
      <component glyphName="uni0307" x="210" y="0" flags="0x4"/>
    </TTGlyph>
    <TTGlyph name="cedilla" xMin="78" yMin="-222" xMax="284" yMax="4">
      <component glyphName="uni0327" x="220" y="0" flags="0x4"/>
    </TTGlyph>
    <TTGlyph name="cent" xMin="70" yMin="-20" xMax="532" yMax="678">
      <contour>
        <pt x="309" y="449" on="1"/>
        <pt x="270" y="432" on="0"/>
        <pt x="226" y="358" on="0"/>
        <pt x="226" y="310" on="1"/>
        <pt x="226" y="245" on="0"/>
        <pt x="263" y="216" on="1"/>
      </contour>
      <contour>
        <pt x="462" y="128" on="1"/>
        <pt x="428" y="106" on="0"/>
        <pt x="358" y="78" on="0"/>
        <pt x="320" y="73" on="1"/>
        <pt x="302" y="-20" on="1"/>
        <pt x="216" y="-20" on="1"/>
        <pt x="234" y="73" on="1"/>
        <pt x="159" y="86" on="0"/>
        <pt x="70" y="195" on="0"/>
        <pt x="70" y="286" on="1"/>
        <pt x="70" y="350" on="0"/>
        <pt x="115" y="453" on="0"/>
        <pt x="189" y="529" on="0"/>
        <pt x="285" y="576" on="0"/>
        <pt x="336" y="584" on="1"/>
        <pt x="354" y="678" on="1"/>
        <pt x="440" y="678" on="1"/>
        <pt x="421" y="584" on="1"/>
        <pt x="457" y="576" on="0"/>
        <pt x="509" y="537" on="0"/>
        <pt x="532" y="512" on="1"/>
        <pt x="440" y="426" on="1"/>
        <pt x="416" y="448" on="0"/>
        <pt x="396" y="455" on="1"/>
        <pt x="346" y="200" on="1"/>
        <pt x="381" y="206" on="0"/>
        <pt x="414" y="230" on="1"/>
      </contour>
    </TTGlyph>
    <TTGlyph name="circumflex" xMin="178" yMin="574" xMax="488" yMax="726">
      <component glyphName="uni0302" x="220" y="0" flags="0x4"/>
    </TTGlyph>
    <TTGlyph name="colon" xMin="24" yMin="-12" xMax="268" yMax="504">
      <component glyphName="period" x="54" y="320" flags="0x204"/>
      <component glyphName="period" x="0" y="0" flags="0x4"/>
    </TTGlyph>
    <TTGlyph name="colonmonetary" xMin="54" yMin="-110" xMax="574" yMax="754">
      <contour>
        <pt x="249" y="136" on="1"/>
        <pt x="260" y="125" on="0"/>
        <pt x="278" y="120" on="1"/>
        <pt x="404" y="522" on="1"/>
        <pt x="389" y="528" on="0"/>
        <pt x="371" y="528" on="1"/>
      </contour>
      <contour>
        <pt x="315" y="515" on="1"/>
        <pt x="289" y="501" on="0"/>
        <pt x="249" y="449" on="0"/>
        <pt x="222" y="380" on="0"/>
        <pt x="208" y="297" on="0"/>
        <pt x="208" y="252" on="1"/>
        <pt x="208" y="218" on="0"/>
        <pt x="215" y="194" on="1"/>
      </contour>
      <contour>
        <pt x="472" y="66" on="1"/>
        <pt x="421" y="25" on="0"/>
        <pt x="329" y="-9" on="0"/>
        <pt x="289" y="-11" on="1"/>
        <pt x="258" y="-110" on="1"/>
        <pt x="206" y="-110" on="1"/>
        <pt x="237" y="-10" on="1"/>
        <pt x="229" y="-9" on="0"/>
        <pt x="213" y="-6" on="0"/>
        <pt x="205" y="-4" on="1"/>
        <pt x="172" y="-110" on="1"/>
        <pt x="120" y="-110" on="1"/>
        <pt x="159" y="15" on="1"/>
        <pt x="108" y="44" on="0"/>
        <pt x="54" y="157" on="0"/>
        <pt x="54" y="242" on="1"/>
        <pt x="54" y="330" on="0"/>
        <pt x="102" y="477" on="0"/>
        <pt x="184" y="585" on="0"/>
        <pt x="296" y="649" on="0"/>
        <pt x="359" y="655" on="1"/>
        <pt x="390" y="754" on="1"/>
        <pt x="442" y="754" on="1"/>
        <pt x="411" y="654" on="1"/>
        <pt x="428" y="652" on="0"/>
        <pt x="443" y="648" on="1"/>
        <pt x="476" y="754" on="1"/>
        <pt x="528" y="754" on="1"/>
        <pt x="489" y="628" on="1"/>
        <pt x="515" y="611" on="0"/>
        <pt x="557" y="563" on="0"/>
        <pt x="574" y="534" on="1"/>
        <pt x="464" y="462" on="1"/>
        <pt x="456" y="477" on="0"/>
        <pt x="446" y="490" on="1"/>
        <pt x="330" y="119" on="1"/>
        <pt x="347" y="124" on="0"/>
        <pt x="381" y="146" on="0"/>
        <pt x="398" y="160" on="1"/>
      </contour>
    </TTGlyph>
    <TTGlyph name="comma" xMin="-26" yMin="-196" xMax="224" yMax="184">
      <contour>
        <pt x="-26" y="-110" on="1"/>
        <pt x="35" y="-93" on="0"/>
        <pt x="100" y="-33" on="0"/>
        <pt x="111" y="2" on="1"/>
        <pt x="74" y="4" on="0"/>
        <pt x="26" y="45" on="0"/>
        <pt x="26" y="82" on="1"/>
        <pt x="26" y="102" on="0"/>
        <pt x="40" y="139" on="0"/>
        <pt x="67" y="167" on="0"/>
        <pt x="106" y="184" on="0"/>
        <pt x="130" y="184" on="1"/>
        <pt x="175" y="184" on="0"/>
        <pt x="224" y="127" on="0"/>
        <pt x="224" y="76" on="1"/>
        <pt x="224" y="24" on="0"/>
        <pt x="192" y="-66" on="0"/>
        <pt x="132" y="-137" on="0"/>
        <pt x="45" y="-186" on="0"/>
        <pt x="-10" y="-196" on="1"/>
      </contour>
    </TTGlyph>
    <TTGlyph name="comma.dnom" xMin="-36" yMin="-132" xMax="138" yMax="126">
      <contour>
        <pt x="-36" y="-72" on="1"/>
        <pt x="5" y="-60" on="0"/>
        <pt x="51" y="-27" on="0"/>
        <pt x="56" y="2" on="1"/>
        <pt x="33" y="2" on="0"/>
        <pt x="0" y="32" on="0"/>
        <pt x="0" y="56" on="1"/>
        <pt x="0" y="89" on="0"/>
        <pt x="44" y="126" on="0"/>
        <pt x="76" y="126" on="1"/>
        <pt x="103" y="126" on="0"/>
        <pt x="138" y="85" on="0"/>
        <pt x="138" y="52" on="1"/>
        <pt x="138" y="-17" on="0"/>
        <pt x="54" y="-111" on="0"/>
        <pt x="-24" y="-132" on="1"/>
      </contour>
    </TTGlyph>
    <TTGlyph name="comma.numr" xMin="14" yMin="138" xMax="188" yMax="396">
      <component glyphName="comma.dnom" x="50" y="270" flags="0x204"/>
    </TTGlyph>
    <TTGlyph name="comma.subs" xMin="-75" yMin="-301" xMax="99" yMax="-43">
      <component glyphName="comma.dnom" x="-39" y="-169" flags="0x204"/>
    </TTGlyph>
    <TTGlyph name="comma.sups" xMin="44" yMin="308" xMax="218" yMax="566">
      <component glyphName="comma.dnom" x="80" y="440" flags="0x204"/>
    </TTGlyph>
    <TTGlyph name="copyright" xMin="28" yMin="-8" xMax="676" yMax="656">
      <contour>
        <pt x="172" y="284" on="1"/>
        <pt x="172" y="337" on="0"/>
        <pt x="213" y="423" on="0"/>
        <pt x="278" y="483" on="0"/>
        <pt x="358" y="516" on="0"/>
        <pt x="398" y="516" on="1"/>
        <pt x="433" y="516" on="0"/>
        <pt x="487" y="482" on="0"/>
        <pt x="502" y="464" on="1"/>
        <pt x="436" y="400" on="1"/>
        <pt x="424" y="414" on="0"/>
        <pt x="398" y="424" on="0"/>
        <pt x="384" y="424" on="1"/>
        <pt x="367" y="424" on="0"/>
        <pt x="332" y="405" on="0"/>
        <pt x="304" y="372" on="0"/>
        <pt x="286" y="326" on="0"/>
        <pt x="286" y="298" on="1"/>
        <pt x="286" y="262" on="0"/>
        <pt x="323" y="220" on="0"/>
        <pt x="358" y="220" on="1"/>
        <pt x="376" y="220" on="0"/>
        <pt x="402" y="231" on="0"/>
        <pt x="422" y="244" on="1"/>
        <pt x="466" y="176" on="1"/>
        <pt x="434" y="150" on="0"/>
        <pt x="366" y="128" on="0"/>
        <pt x="332" y="128" on="1"/>
        <pt x="260" y="128" on="0"/>
        <pt x="172" y="212" on="0"/>
      </contour>
      <contour>
        <pt x="298" y="-8" on="1"/>
        <pt x="239" y="-8" on="0"/>
        <pt x="140" y="34" on="0"/>
        <pt x="68" y="108" on="0"/>
        <pt x="28" y="210" on="0"/>
        <pt x="28" y="270" on="1"/>
        <pt x="28" y="351" on="0"/>
        <pt x="84" y="492" on="0"/>
        <pt x="185" y="596" on="0"/>
        <pt x="323" y="656" on="0"/>
        <pt x="406" y="656" on="1"/>
        <pt x="464" y="656" on="0"/>
        <pt x="563" y="614" on="0"/>
        <pt x="635" y="540" on="0"/>
        <pt x="676" y="438" on="0"/>
        <pt x="676" y="378" on="1"/>
        <pt x="676" y="297" on="0"/>
        <pt x="620" y="156" on="0"/>
        <pt x="519" y="52" on="0"/>
        <pt x="380" y="-8" on="0"/>
      </contour>
      <contour>
        <pt x="400" y="588" on="1"/>
        <pt x="337" y="588" on="0"/>
        <pt x="227" y="539" on="0"/>
        <pt x="146" y="455" on="0"/>
        <pt x="100" y="341" on="0"/>
        <pt x="100" y="276" on="1"/>
        <pt x="100" y="233" on="0"/>
        <pt x="125" y="155" on="0"/>
        <pt x="176" y="95" on="0"/>
        <pt x="253" y="60" on="0"/>
        <pt x="304" y="60" on="1"/>
        <pt x="367" y="60" on="0"/>
        <pt x="476" y="109" on="0"/>
        <pt x="557" y="193" on="0"/>
        <pt x="604" y="307" on="0"/>
        <pt x="604" y="372" on="1"/>
        <pt x="604" y="415" on="0"/>
        <pt x="578" y="493" on="0"/>
        <pt x="527" y="553" on="0"/>
        <pt x="451" y="588" on="0"/>
      </contour>
    </TTGlyph>
    <TTGlyph name="currency" xMin="6" yMin="86" xMax="544" yMax="572">
      <contour>
        <pt x="349" y="150" on="1"/>
        <pt x="323" y="139" on="0"/>
        <pt x="269" y="128" on="0"/>
        <pt x="242" y="128" on="1"/>
        <pt x="186" y="128" on="0"/>
        <pt x="146" y="148" on="1"/>
        <pt x="74" y="86" on="1"/>
        <pt x="6" y="166" on="1"/>
        <pt x="69" y="220" on="1"/>
        <pt x="52" y="254" on="0"/>
        <pt x="52" y="296" on="1"/>
        <pt x="52" y="341" on="0"/>
        <pt x="83" y="416" on="0"/>
        <pt x="109" y="445" on="1"/>
        <pt x="64" y="500" on="1"/>
        <pt x="148" y="572" on="1"/>
        <pt x="199" y="509" on="1"/>
        <pt x="251" y="532" on="0"/>
        <pt x="306" y="532" on="1"/>
        <pt x="334" y="532" on="0"/>
        <pt x="384" y="521" on="0"/>
        <pt x="405" y="511" on="1"/>
        <pt x="476" y="572" on="1"/>
        <pt x="544" y="492" on="1"/>
        <pt x="480" y="437" on="1"/>
        <pt x="496" y="402" on="0"/>
        <pt x="496" y="364" on="1"/>
        <pt x="496" y="319" on="0"/>
        <pt x="465" y="244" on="0"/>
        <pt x="439" y="215" on="1"/>
        <pt x="486" y="158" on="1"/>
        <pt x="402" y="86" on="1"/>
      </contour>
      <contour>
        <pt x="288" y="420" on="1"/>
        <pt x="271" y="420" on="0"/>
        <pt x="238" y="404" on="0"/>
        <pt x="213" y="374" on="0"/>
        <pt x="198" y="333" on="0"/>
        <pt x="198" y="308" on="1"/>
        <pt x="198" y="276" on="0"/>
        <pt x="231" y="240" on="0"/>
        <pt x="260" y="240" on="1"/>
        <pt x="277" y="240" on="0"/>
        <pt x="310" y="256" on="0"/>
        <pt x="335" y="286" on="0"/>
        <pt x="350" y="327" on="0"/>
        <pt x="350" y="352" on="1"/>
        <pt x="350" y="385" on="0"/>
        <pt x="317" y="420" on="0"/>
      </contour>
    </TTGlyph>
    <TTGlyph name="d" xMin="28" yMin="-12" xMax="590" yMax="696">
      <contour>
        <pt x="402" y="550" on="1"/>
        <pt x="430" y="696" on="1"/>
        <pt x="590" y="696" on="1"/>
        <pt x="450" y="0" on="1"/>
        <pt x="320" y="0" on="1"/>
        <pt x="320" y="62" on="1"/>
        <pt x="318" y="62" on="1"/>
        <pt x="285" y="27" on="0"/>
        <pt x="204" y="-12" on="0"/>
        <pt x="168" y="-12" on="1"/>
        <pt x="102" y="-12" on="0"/>
        <pt x="28" y="83" on="0"/>
        <pt x="28" y="172" on="1"/>
        <pt x="28" y="243" on="0"/>
        <pt x="72" y="367" on="0"/>
        <pt x="146" y="459" on="0"/>
        <pt x="242" y="512" on="0"/>
        <pt x="294" y="512" on="1"/>
        <pt x="326" y="512" on="0"/>
        <pt x="376" y="482" on="0"/>
        <pt x="390" y="456" on="1"/>
        <pt x="392" y="456" on="1"/>
      </contour>
      <contour>
        <pt x="240" y="118" on="1"/>
        <pt x="259" y="118" on="0"/>
        <pt x="307" y="143" on="0"/>
        <pt x="328" y="184" on="1"/>
        <pt x="360" y="344" on="1"/>
        <pt x="351" y="364" on="0"/>
        <pt x="320" y="382" on="0"/>
        <pt x="306" y="382" on="1"/>
        <pt x="284" y="382" on="0"/>
        <pt x="244" y="354" on="0"/>
        <pt x="213" y="304" on="0"/>
        <pt x="194" y="234" on="0"/>
        <pt x="194" y="192" on="1"/>
        <pt x="194" y="153" on="0"/>
        <pt x="219" y="118" on="0"/>
      </contour>
    </TTGlyph>
    <TTGlyph name="d.sups" xMin="52" yMin="252" xMax="430" yMax="720">
      <contour>
        <pt x="300" y="628" on="1"/>
        <pt x="318" y="720" on="1"/>
        <pt x="430" y="720" on="1"/>
        <pt x="338" y="260" on="1"/>
        <pt x="248" y="260" on="1"/>
        <pt x="248" y="300" on="1"/>
        <pt x="244" y="300" on="1"/>
        <pt x="223" y="277" on="0"/>
        <pt x="169" y="252" on="0"/>
        <pt x="146" y="252" on="1"/>
        <pt x="102" y="252" on="0"/>
        <pt x="52" y="315" on="0"/>
        <pt x="52" y="374" on="1"/>
        <pt x="52" y="421" on="0"/>
        <pt x="82" y="504" on="0"/>
        <pt x="131" y="565" on="0"/>
        <pt x="195" y="600" on="0"/>
        <pt x="230" y="600" on="1"/>
        <pt x="251" y="600" on="0"/>
        <pt x="284" y="577" on="0"/>
        <pt x="292" y="562" on="1"/>
        <pt x="296" y="562" on="1"/>
      </contour>
      <contour>
        <pt x="194" y="342" on="1"/>
        <pt x="208" y="342" on="0"/>
        <pt x="238" y="358" on="0"/>
        <pt x="252" y="384" on="1"/>
        <pt x="270" y="486" on="1"/>
        <pt x="265" y="498" on="0"/>
        <pt x="246" y="510" on="0"/>
        <pt x="238" y="510" on="1"/>
        <pt x="224" y="510" on="0"/>
        <pt x="199" y="492" on="0"/>
        <pt x="178" y="460" on="0"/>
        <pt x="166" y="415" on="0"/>
        <pt x="166" y="388" on="1"/>
        <pt x="166" y="364" on="0"/>
        <pt x="182" y="342" on="0"/>
      </contour>
    </TTGlyph>
    <TTGlyph name="dagger" xMin="74" yMin="-80" xMax="526" yMax="712">
      <contour>
        <pt x="236" y="428" on="1"/>
        <pt x="74" y="418" on="1"/>
        <pt x="100" y="546" on="1"/>
        <pt x="256" y="536" on="1"/>
        <pt x="282" y="712" on="1"/>
        <pt x="410" y="712" on="1"/>
        <pt x="364" y="536" on="1"/>
        <pt x="526" y="546" on="1"/>
        <pt x="502" y="418" on="1"/>
        <pt x="344" y="428" on="1"/>
        <pt x="252" y="-80" on="1"/>
        <pt x="124" y="-80" on="1"/>
      </contour>
    </TTGlyph>
    <TTGlyph name="daggerdbl" xMin="8" yMin="-80" xMax="526" yMax="712">
      <contour>
        <pt x="32" y="212" on="1"/>
        <pt x="190" y="200" on="1"/>
        <pt x="202" y="316" on="1"/>
        <pt x="236" y="432" on="1"/>
        <pt x="74" y="418" on="1"/>
        <pt x="98" y="546" on="1"/>
        <pt x="256" y="536" on="1"/>
        <pt x="282" y="712" on="1"/>
        <pt x="408" y="712" on="1"/>
        <pt x="364" y="536" on="1"/>
        <pt x="526" y="546" on="1"/>
        <pt x="502" y="418" on="1"/>
        <pt x="344" y="432" on="1"/>
        <pt x="330" y="316" on="1"/>
        <pt x="298" y="200" on="1"/>
        <pt x="460" y="212" on="1"/>
        <pt x="434" y="84" on="1"/>
        <pt x="276" y="94" on="1"/>
        <pt x="252" y="-80" on="1"/>
        <pt x="124" y="-80" on="1"/>
        <pt x="168" y="94" on="1"/>
        <pt x="8" y="84" on="1"/>
      </contour>
    </TTGlyph>
    <TTGlyph name="dcaron" xMin="28" yMin="-12" xMax="736" yMax="774">
      <component glyphName="d" x="0" y="0" flags="0x4"/>
      <component glyphName="uni030C.a" x="580" y="0" flags="0x4"/>
    </TTGlyph>
    <TTGlyph name="dcroat" xMin="28" yMin="-12" xMax="642" yMax="696">
      <contour>
        <pt x="356" y="324" on="1"/>
        <pt x="348" y="344" on="0"/>
        <pt x="320" y="362" on="0"/>
        <pt x="306" y="362" on="1"/>
        <pt x="284" y="362" on="0"/>
        <pt x="244" y="334" on="0"/>
        <pt x="213" y="287" on="0"/>
        <pt x="194" y="226" on="0"/>
        <pt x="194" y="192" on="1"/>
        <pt x="194" y="153" on="0"/>
        <pt x="219" y="118" on="0"/>
        <pt x="240" y="118" on="1"/>
        <pt x="259" y="118" on="0"/>
        <pt x="307" y="143" on="0"/>
        <pt x="328" y="184" on="1"/>
      </contour>
      <contour>
        <pt x="626" y="558" on="1"/>
        <pt x="561" y="553" on="1"/>
        <pt x="450" y="0" on="1"/>
        <pt x="320" y="0" on="1"/>
        <pt x="320" y="62" on="1"/>
        <pt x="318" y="62" on="1"/>
        <pt x="285" y="27" on="0"/>
        <pt x="204" y="-12" on="0"/>
        <pt x="168" y="-12" on="1"/>
        <pt x="102" y="-12" on="0"/>
        <pt x="28" y="83" on="0"/>
        <pt x="28" y="172" on="1"/>
        <pt x="28" y="235" on="0"/>
        <pt x="72" y="351" on="0"/>
        <pt x="146" y="439" on="0"/>
        <pt x="242" y="492" on="0"/>
        <pt x="294" y="492" on="1"/>
        <pt x="326" y="492" on="0"/>
        <pt x="374" y="462" on="0"/>
        <pt x="386" y="436" on="1"/>
        <pt x="388" y="436" on="1"/>
        <pt x="398" y="530" on="1"/>
        <pt x="402" y="552" on="1"/>
        <pt x="264" y="552" on="1"/>
        <pt x="278" y="628" on="1"/>
        <pt x="417" y="628" on="1"/>
        <pt x="430" y="696" on="1"/>
        <pt x="590" y="696" on="1"/>
        <pt x="576" y="628" on="1"/>
        <pt x="642" y="628" on="1"/>
      </contour>
    </TTGlyph>
    <TTGlyph name="degree" xMin="92" yMin="392" xMax="384" yMax="686">
      <contour>
        <pt x="224" y="392" on="1"/>
        <pt x="165" y="392" on="0"/>
        <pt x="92" y="464" on="0"/>
        <pt x="92" y="524" on="1"/>
        <pt x="92" y="558" on="0"/>
        <pt x="118" y="617" on="0"/>
        <pt x="163" y="661" on="0"/>
        <pt x="220" y="686" on="0"/>
        <pt x="252" y="686" on="1"/>
        <pt x="311" y="686" on="0"/>
        <pt x="384" y="614" on="0"/>
        <pt x="384" y="554" on="1"/>
        <pt x="384" y="520" on="0"/>
        <pt x="358" y="461" on="0"/>
        <pt x="313" y="417" on="0"/>
        <pt x="255" y="392" on="0"/>
      </contour>
      <contour>
        <pt x="246" y="610" on="1"/>
        <pt x="214" y="610" on="0"/>
        <pt x="176" y="559" on="0"/>
        <pt x="176" y="524" on="1"/>
        <pt x="176" y="501" on="0"/>
        <pt x="203" y="468" on="0"/>
        <pt x="230" y="468" on="1"/>
        <pt x="262" y="468" on="0"/>
        <pt x="300" y="519" on="0"/>
        <pt x="300" y="554" on="1"/>
        <pt x="300" y="577" on="0"/>
        <pt x="273" y="610" on="0"/>
      </contour>
    </TTGlyph>
    <TTGlyph name="dieresis" xMin="170" yMin="566" xMax="520" yMax="714">
      <component glyphName="uni0308" x="220" y="0" flags="0x4"/>
    </TTGlyph>
    <TTGlyph name="divide" xMin="48" yMin="68" xMax="496" yMax="592">
      <contour>
        <pt x="272" y="430" on="1"/>
        <pt x="236" y="430" on="0"/>
        <pt x="186" y="476" on="0"/>
        <pt x="186" y="512" on="1"/>
        <pt x="186" y="547" on="0"/>
        <pt x="236" y="592" on="0"/>
        <pt x="272" y="592" on="1"/>
        <pt x="308" y="592" on="0"/>
        <pt x="358" y="547" on="0"/>
        <pt x="358" y="512" on="1"/>
        <pt x="358" y="476" on="0"/>
        <pt x="308" y="430" on="0"/>
      </contour>
      <contour>
        <pt x="272" y="68" on="1"/>
        <pt x="236" y="68" on="0"/>
        <pt x="186" y="112" on="0"/>
        <pt x="186" y="148" on="1"/>
        <pt x="186" y="183" on="0"/>
        <pt x="236" y="230" on="0"/>
        <pt x="272" y="230" on="1"/>
        <pt x="308" y="230" on="0"/>
        <pt x="358" y="183" on="0"/>
        <pt x="358" y="148" on="1"/>
        <pt x="358" y="112" on="0"/>
        <pt x="308" y="68" on="0"/>
      </contour>
      <contour>
        <pt x="48" y="274" on="1"/>
        <pt x="48" y="386" on="1"/>
        <pt x="496" y="386" on="1"/>
        <pt x="496" y="274" on="1"/>
      </contour>
    </TTGlyph>
    <TTGlyph name="dollar" xMin="2" yMin="-110" xMax="510" yMax="754">
      <contour>
        <pt x="410" y="472" on="1"/>
        <pt x="390" y="498" on="0"/>
        <pt x="340" y="528" on="0"/>
        <pt x="314" y="528" on="1"/>
        <pt x="284" y="528" on="0"/>
        <pt x="252" y="496" on="0"/>
        <pt x="252" y="472" on="1"/>
        <pt x="252" y="450" on="0"/>
        <pt x="281" y="415" on="0"/>
        <pt x="325" y="380" on="0"/>
        <pt x="377" y="342" on="0"/>
        <pt x="421" y="295" on="0"/>
        <pt x="450" y="235" on="0"/>
        <pt x="450" y="196" on="1"/>
        <pt x="450" y="155" on="0"/>
        <pt x="423" y="84" on="0"/>
        <pt x="373" y="31" on="0"/>
        <pt x="301" y="-4" on="0"/>
        <pt x="257" y="-9" on="1"/>
        <pt x="236" y="-110" on="1"/>
        <pt x="132" y="-110" on="1"/>
        <pt x="153" y="-4" on="1"/>
        <pt x="111" y="7" on="0"/>
        <pt x="33" y="54" on="0"/>
        <pt x="2" y="90" on="1"/>
        <pt x="100" y="186" on="1"/>
        <pt x="123" y="157" on="0"/>
        <pt x="184" y="116" on="0"/>
        <pt x="220" y="116" on="1"/>
        <pt x="256" y="116" on="0"/>
        <pt x="292" y="147" on="0"/>
        <pt x="292" y="176" on="1"/>
        <pt x="292" y="200" on="0"/>
        <pt x="263" y="239" on="0"/>
        <pt x="219" y="276" on="0"/>
        <pt x="167" y="314" on="0"/>
        <pt x="123" y="359" on="0"/>
        <pt x="94" y="416" on="0"/>
        <pt x="94" y="454" on="1"/>
        <pt x="94" y="494" on="0"/>
        <pt x="121" y="564" on="0"/>
        <pt x="171" y="616" on="0"/>
        <pt x="241" y="649" on="0"/>
        <pt x="285" y="654" on="1"/>
        <pt x="304" y="754" on="1"/>
        <pt x="408" y="754" on="1"/>
        <pt x="388" y="646" on="1"/>
        <pt x="456" y="625" on="0"/>
        <pt x="510" y="562" on="1"/>
      </contour>
    </TTGlyph>
    <TTGlyph name="dong" xMin="24" yMin="0" xMax="578" yMax="674">
      <contour>
        <pt x="40" y="78" on="1"/>
        <pt x="434" y="78" on="1"/>
        <pt x="418" y="0" on="1"/>
        <pt x="24" y="0" on="1"/>
      </contour>
      <contour>
        <pt x="326" y="354" on="1"/>
        <pt x="315" y="366" on="0"/>
        <pt x="293" y="378" on="0"/>
        <pt x="278" y="378" on="1"/>
        <pt x="266" y="378" on="0"/>
        <pt x="239" y="366" on="0"/>
        <pt x="217" y="341" on="0"/>
        <pt x="202" y="303" on="0"/>
        <pt x="202" y="278" on="1"/>
        <pt x="202" y="249" on="0"/>
        <pt x="224" y="222" on="0"/>
        <pt x="244" y="222" on="1"/>
        <pt x="261" y="222" on="0"/>
        <pt x="289" y="236" on="0"/>
        <pt x="306" y="254" on="1"/>
      </contour>
      <contour>
        <pt x="564" y="550" on="1"/>
        <pt x="494" y="544" on="1"/>
        <pt x="410" y="126" on="1"/>
        <pt x="302" y="126" on="1"/>
        <pt x="300" y="162" on="1"/>
        <pt x="298" y="162" on="1"/>
        <pt x="275" y="141" on="0"/>
        <pt x="219" y="116" on="0"/>
        <pt x="190" y="116" on="1"/>
        <pt x="131" y="116" on="0"/>
        <pt x="66" y="190" on="0"/>
        <pt x="66" y="258" on="1"/>
        <pt x="66" y="312" on="0"/>
        <pt x="104" y="396" on="0"/>
        <pt x="163" y="454" on="0"/>
        <pt x="234" y="484" on="0"/>
        <pt x="266" y="484" on="1"/>
        <pt x="298" y="484" on="0"/>
        <pt x="333" y="466" on="0"/>
        <pt x="348" y="448" on="1"/>
        <pt x="358" y="510" on="1"/>
        <pt x="365" y="544" on="1"/>
        <pt x="226" y="544" on="1"/>
        <pt x="242" y="624" on="1"/>
        <pt x="380" y="624" on="1"/>
        <pt x="390" y="674" on="1"/>
        <pt x="520" y="674" on="1"/>
        <pt x="510" y="624" on="1"/>
        <pt x="578" y="624" on="1"/>
      </contour>
    </TTGlyph>
    <TTGlyph name="dotaccent" xMin="256" yMin="564" xMax="436" yMax="728">
      <component glyphName="uni0307" x="220" y="0" flags="0x4"/>
    </TTGlyph>
    <TTGlyph name="dotlessi" xMin="8" yMin="0" xMax="268" yMax="500">
      <contour>
        <pt x="108" y="500" on="1"/>
        <pt x="268" y="500" on="1"/>
        <pt x="168" y="0" on="1"/>
        <pt x="8" y="0" on="1"/>
      </contour>
    </TTGlyph>
    <TTGlyph name="e" xMin="26" yMin="-12" xMax="474" yMax="512">
      <contour>
        <pt x="26" y="204" on="1"/>
        <pt x="26" y="273" on="0"/>
        <pt x="76" y="386" on="0"/>
        <pt x="157" y="467" on="0"/>
        <pt x="258" y="512" on="0"/>
        <pt x="308" y="512" on="1"/>
        <pt x="354" y="512" on="0"/>
        <pt x="417" y="482" on="0"/>
        <pt x="456" y="430" on="0"/>
        <pt x="474" y="361" on="0"/>
        <pt x="474" y="322" on="1"/>
        <pt x="474" y="303" on="0"/>
        <pt x="467" y="265" on="0"/>
        <pt x="458" y="232" on="0"/>
        <pt x="449" y="207" on="0"/>
        <pt x="446" y="202" on="1"/>
        <pt x="176" y="202" on="1"/>
        <pt x="178" y="152" on="0"/>
        <pt x="236" y="108" on="0"/>
        <pt x="280" y="108" on="1"/>
        <pt x="301" y="108" on="0"/>
        <pt x="347" y="128" on="0"/>
        <pt x="364" y="140" on="1"/>
        <pt x="420" y="40" on="1"/>
        <pt x="390" y="19" on="0"/>
        <pt x="296" y="-12" on="0"/>
        <pt x="234" y="-12" on="1"/>
        <pt x="188" y="-12" on="0"/>
        <pt x="112" y="18" on="0"/>
        <pt x="57" y="74" on="0"/>
        <pt x="26" y="154" on="0"/>
      </contour>
      <contour>
        <pt x="340" y="298" on="1"/>
        <pt x="342" y="304" on="0"/>
        <pt x="344" y="321" on="0"/>
        <pt x="344" y="330" on="1"/>
        <pt x="344" y="356" on="0"/>
        <pt x="320" y="390" on="0"/>
        <pt x="288" y="390" on="1"/>
        <pt x="259" y="390" on="0"/>
        <pt x="205" y="346" on="0"/>
        <pt x="188" y="298" on="1"/>
      </contour>
    </TTGlyph>
    <TTGlyph name="e.sups" xMin="50" yMin="252" xMax="351" yMax="600">
      <contour>
        <pt x="50" y="396" on="1"/>
        <pt x="50" y="441" on="0"/>
        <pt x="84" y="516" on="0"/>
        <pt x="138" y="570" on="0"/>
        <pt x="206" y="600" on="0"/>
        <pt x="240" y="600" on="1"/>
        <pt x="271" y="600" on="0"/>
        <pt x="313" y="580" on="0"/>
        <pt x="339" y="545" on="0"/>
        <pt x="351" y="498" on="0"/>
        <pt x="351" y="472" on="1"/>
        <pt x="351" y="447" on="0"/>
        <pt x="337" y="400" on="0"/>
        <pt x="332" y="392" on="1"/>
        <pt x="153" y="392" on="1"/>
        <pt x="155" y="360" on="0"/>
        <pt x="195" y="334" on="0"/>
        <pt x="225" y="334" on="1"/>
        <pt x="237" y="334" on="0"/>
        <pt x="261" y="343" on="0"/>
        <pt x="277" y="353" on="1"/>
        <pt x="309" y="283" on="1"/>
        <pt x="280" y="267" on="0"/>
        <pt x="220" y="252" on="0"/>
        <pt x="193" y="252" on="1"/>
        <pt x="129" y="252" on="0"/>
        <pt x="50" y="329" on="0"/>
      </contour>
      <contour>
        <pt x="259" y="458" on="1"/>
        <pt x="260" y="463" on="0"/>
        <pt x="261" y="472" on="0"/>
        <pt x="261" y="478" on="1"/>
        <pt x="261" y="494" on="0"/>
        <pt x="246" y="516" on="0"/>
        <pt x="226" y="516" on="1"/>
        <pt x="208" y="516" on="0"/>
        <pt x="172" y="488" on="0"/>
        <pt x="161" y="458" on="1"/>
      </contour>
    </TTGlyph>
    <TTGlyph name="eacute" xMin="26" yMin="-12" xMax="510" yMax="726">
      <component glyphName="e" x="0" y="0" flags="0x204"/>
      <component glyphName="uni0301" x="212" y="0" flags="0x4"/>
    </TTGlyph>
    <TTGlyph name="eacute.sups" xMin="50" yMin="252" xMax="376" yMax="740">
      <contour>
        <pt x="267" y="740" on="1"/>
        <pt x="376" y="740" on="1"/>
        <pt x="272" y="639" on="1"/>
        <pt x="190" y="639" on="1"/>
      </contour>
      <contour>
        <pt x="50" y="396" on="1"/>
        <pt x="50" y="441" on="0"/>
        <pt x="84" y="516" on="0"/>
        <pt x="138" y="570" on="0"/>
        <pt x="206" y="600" on="0"/>
        <pt x="240" y="600" on="1"/>
        <pt x="271" y="600" on="0"/>
        <pt x="313" y="580" on="0"/>
        <pt x="339" y="545" on="0"/>
        <pt x="351" y="498" on="0"/>
        <pt x="351" y="472" on="1"/>
        <pt x="351" y="447" on="0"/>
        <pt x="337" y="400" on="0"/>
        <pt x="332" y="392" on="1"/>
        <pt x="153" y="392" on="1"/>
        <pt x="155" y="360" on="0"/>
        <pt x="195" y="334" on="0"/>
        <pt x="225" y="334" on="1"/>
        <pt x="237" y="334" on="0"/>
        <pt x="261" y="343" on="0"/>
        <pt x="277" y="353" on="1"/>
        <pt x="309" y="283" on="1"/>
        <pt x="280" y="267" on="0"/>
        <pt x="220" y="252" on="0"/>
        <pt x="193" y="252" on="1"/>
        <pt x="129" y="252" on="0"/>
        <pt x="50" y="329" on="0"/>
      </contour>
      <contour>
        <pt x="259" y="458" on="1"/>
        <pt x="260" y="463" on="0"/>
        <pt x="261" y="472" on="0"/>
        <pt x="261" y="478" on="1"/>
        <pt x="261" y="494" on="0"/>
        <pt x="246" y="516" on="0"/>
        <pt x="226" y="516" on="1"/>
        <pt x="208" y="516" on="0"/>
        <pt x="172" y="488" on="0"/>
        <pt x="161" y="458" on="1"/>
      </contour>
    </TTGlyph>
    <TTGlyph name="ebreve" xMin="26" yMin="-12" xMax="492" yMax="716">
      <component glyphName="e" x="0" y="0" flags="0x204"/>
      <component glyphName="uni0306" x="212" y="0" flags="0x4"/>
    </TTGlyph>
    <TTGlyph name="ecaron" xMin="26" yMin="-12" xMax="512" yMax="726">
      <component glyphName="e" x="0" y="0" flags="0x204"/>
      <component glyphName="uni030C" x="212" y="0" flags="0x4"/>
    </TTGlyph>
    <TTGlyph name="ecircumflex" xMin="26" yMin="-12" xMax="480" yMax="726">
      <component glyphName="e" x="0" y="0" flags="0x204"/>
      <component glyphName="uni0302" x="212" y="0" flags="0x4"/>
    </TTGlyph>
    <TTGlyph name="edieresis" xMin="26" yMin="-12" xMax="512" yMax="714">
      <component glyphName="e" x="0" y="0" flags="0x204"/>
      <component glyphName="uni0308" x="212" y="0" flags="0x4"/>
    </TTGlyph>
    <TTGlyph name="edotaccent" xMin="26" yMin="-12" xMax="474" yMax="728">
      <component glyphName="e" x="0" y="0" flags="0x204"/>
      <component glyphName="uni0307" x="212" y="0" flags="0x4"/>
    </TTGlyph>
    <TTGlyph name="egrave" xMin="26" yMin="-12" xMax="474" yMax="726">
      <component glyphName="e" x="0" y="0" flags="0x204"/>
      <component glyphName="uni0300" x="212" y="0" flags="0x4"/>
    </TTGlyph>
    <TTGlyph name="egrave.sups" xMin="50" yMin="252" xMax="351" yMax="740">
      <contour>
        <pt x="166" y="740" on="1"/>
        <pt x="266" y="740" on="1"/>
        <pt x="304" y="639" on="1"/>
        <pt x="228" y="639" on="1"/>
      </contour>
      <contour>
        <pt x="50" y="396" on="1"/>
        <pt x="50" y="441" on="0"/>
        <pt x="84" y="516" on="0"/>
        <pt x="138" y="570" on="0"/>
        <pt x="206" y="600" on="0"/>
        <pt x="240" y="600" on="1"/>
        <pt x="271" y="600" on="0"/>
        <pt x="313" y="580" on="0"/>
        <pt x="339" y="545" on="0"/>
        <pt x="351" y="498" on="0"/>
        <pt x="351" y="472" on="1"/>
        <pt x="351" y="447" on="0"/>
        <pt x="337" y="400" on="0"/>
        <pt x="332" y="392" on="1"/>
        <pt x="153" y="392" on="1"/>
        <pt x="155" y="360" on="0"/>
        <pt x="195" y="334" on="0"/>
        <pt x="225" y="334" on="1"/>
        <pt x="237" y="334" on="0"/>
        <pt x="261" y="343" on="0"/>
        <pt x="277" y="353" on="1"/>
        <pt x="309" y="283" on="1"/>
        <pt x="280" y="267" on="0"/>
        <pt x="220" y="252" on="0"/>
        <pt x="193" y="252" on="1"/>
        <pt x="129" y="252" on="0"/>
        <pt x="50" y="329" on="0"/>
      </contour>
      <contour>
        <pt x="259" y="458" on="1"/>
        <pt x="260" y="463" on="0"/>
        <pt x="261" y="472" on="0"/>
        <pt x="261" y="478" on="1"/>
        <pt x="261" y="494" on="0"/>
        <pt x="246" y="516" on="0"/>
        <pt x="226" y="516" on="1"/>
        <pt x="208" y="516" on="0"/>
        <pt x="172" y="488" on="0"/>
        <pt x="161" y="458" on="1"/>
      </contour>
    </TTGlyph>
    <TTGlyph name="eight" xMin="38" yMin="-12" xMax="508" yMax="646">
      <contour>
        <pt x="234" y="280" on="1"/>
        <pt x="211" y="262" on="0"/>
        <pt x="180" y="207" on="0"/>
        <pt x="180" y="172" on="1"/>
        <pt x="180" y="143" on="0"/>
        <pt x="214" y="98" on="0"/>
        <pt x="250" y="98" on="1"/>
        <pt x="281" y="98" on="0"/>
        <pt x="328" y="137" on="0"/>
        <pt x="328" y="178" on="1"/>
        <pt x="328" y="210" on="0"/>
        <pt x="279" y="254" on="0"/>
      </contour>
      <contour>
        <pt x="328" y="372" on="1"/>
        <pt x="346" y="390" on="0"/>
        <pt x="372" y="439" on="0"/>
        <pt x="372" y="472" on="1"/>
        <pt x="372" y="498" on="0"/>
        <pt x="349" y="534" on="0"/>
        <pt x="318" y="534" on="1"/>
        <pt x="292" y="534" on="0"/>
        <pt x="256" y="499" on="0"/>
        <pt x="256" y="466" on="1"/>
        <pt x="256" y="435" on="0"/>
        <pt x="292" y="392" on="0"/>
      </contour>
      <contour>
        <pt x="38" y="154" on="1"/>
        <pt x="38" y="185" on="0"/>
        <pt x="58" y="239" on="0"/>
        <pt x="94" y="283" on="0"/>
        <pt x="142" y="315" on="0"/>
        <pt x="170" y="326" on="1"/>
        <pt x="170" y="330" on="1"/>
        <pt x="116" y="387" on="0"/>
        <pt x="116" y="460" on="1"/>
        <pt x="116" y="503" on="0"/>
        <pt x="150" y="572" on="0"/>
        <pt x="209" y="620" on="0"/>
        <pt x="286" y="646" on="0"/>
        <pt x="330" y="646" on="1"/>
        <pt x="362" y="646" on="0"/>
        <pt x="426" y="629" on="0"/>
        <pt x="477" y="593" on="0"/>
        <pt x="508" y="536" on="0"/>
        <pt x="508" y="496" on="1"/>
        <pt x="508" y="439" on="0"/>
        <pt x="449" y="354" on="0"/>
        <pt x="398" y="328" on="1"/>
        <pt x="398" y="324" on="1"/>
        <pt x="434" y="300" on="0"/>
        <pt x="474" y="226" on="0"/>
        <pt x="474" y="178" on="1"/>
        <pt x="474" y="134" on="0"/>
        <pt x="436" y="64" on="0"/>
        <pt x="371" y="15" on="0"/>
        <pt x="285" y="-12" on="0"/>
        <pt x="238" y="-12" on="1"/>
        <pt x="204" y="-12" on="0"/>
        <pt x="133" y="7" on="0"/>
        <pt x="75" y="47" on="0"/>
        <pt x="38" y="110" on="0"/>
      </contour>
    </TTGlyph>
    <TTGlyph name="eight.dnom" xMin="4" yMin="-12" xMax="324" yMax="402">
      <contour>
        <pt x="112" y="104" on="1"/>
        <pt x="112" y="90" on="0"/>
        <pt x="133" y="66" on="0"/>
        <pt x="150" y="66" on="1"/>
        <pt x="173" y="66" on="0"/>
        <pt x="198" y="90" on="0"/>
        <pt x="198" y="110" on="1"/>
        <pt x="198" y="128" on="0"/>
        <pt x="170" y="150" on="0"/>
        <pt x="150" y="162" on="1"/>
        <pt x="112" y="140" on="0"/>
      </contour>
      <contour>
        <pt x="196" y="240" on="1"/>
        <pt x="210" y="255" on="0"/>
        <pt x="224" y="280" on="0"/>
        <pt x="224" y="292" on="1"/>
        <pt x="224" y="307" on="0"/>
        <pt x="206" y="322" on="0"/>
        <pt x="194" y="322" on="1"/>
        <pt x="179" y="322" on="0"/>
        <pt x="158" y="304" on="0"/>
        <pt x="158" y="286" on="1"/>
        <pt x="158" y="271" on="0"/>
        <pt x="179" y="249" on="0"/>
      </contour>
      <contour>
        <pt x="4" y="94" on="1"/>
        <pt x="4" y="133" on="0"/>
        <pt x="59" y="191" on="0"/>
        <pt x="92" y="208" on="1"/>
        <pt x="94" y="212" on="1"/>
        <pt x="77" y="227" on="0"/>
        <pt x="58" y="264" on="0"/>
        <pt x="58" y="288" on="1"/>
        <pt x="58" y="313" on="0"/>
        <pt x="82" y="355" on="0"/>
        <pt x="121" y="385" on="0"/>
        <pt x="173" y="402" on="0"/>
        <pt x="202" y="402" on="1"/>
        <pt x="258" y="402" on="0"/>
        <pt x="324" y="347" on="0"/>
        <pt x="324" y="302" on="1"/>
        <pt x="324" y="267" on="0"/>
        <pt x="286" y="215" on="0"/>
        <pt x="254" y="198" on="1"/>
        <pt x="254" y="194" on="1"/>
        <pt x="275" y="179" on="0"/>
        <pt x="302" y="137" on="0"/>
        <pt x="302" y="108" on="1"/>
        <pt x="302" y="82" on="0"/>
        <pt x="277" y="39" on="0"/>
        <pt x="233" y="6" on="0"/>
        <pt x="175" y="-12" on="0"/>
        <pt x="142" y="-12" on="1"/>
        <pt x="77" y="-12" on="0"/>
        <pt x="4" y="49" on="0"/>
      </contour>
    </TTGlyph>
    <TTGlyph name="eight.numr" xMin="54" yMin="258" xMax="374" yMax="672">
      <component glyphName="eight.dnom" x="50" y="270" flags="0x204"/>
    </TTGlyph>
    <TTGlyph name="eight.onum" xMin="38" yMin="-12" xMax="508" yMax="646">
      <component glyphName="eight" x="0" y="0" flags="0x204"/>
    </TTGlyph>
    <TTGlyph name="eight.pnum" xMin="38" yMin="-12" xMax="508" yMax="646">
      <component glyphName="eight" x="0" y="0" flags="0x204"/>
    </TTGlyph>
    <TTGlyph name="eight.subs" xMin="-35" yMin="-181" xMax="285" yMax="233">
      <component glyphName="eight.dnom" x="-39" y="-169" flags="0x204"/>
    </TTGlyph>
    <TTGlyph name="eight.sups" xMin="84" yMin="428" xMax="404" yMax="842">
      <component glyphName="eight.dnom" x="80" y="440" flags="0x204"/>
    </TTGlyph>
    <TTGlyph name="eight.tnum" xMin="38" yMin="-12" xMax="508" yMax="646">
      <component glyphName="eight" x="0" y="0" flags="0x204"/>
    </TTGlyph>
    <TTGlyph name="ellipsis" xMin="64" yMin="-12" xMax="886" yMax="184">
      <component glyphName="period" x="40" y="0" flags="0x4"/>
      <component glyphName="period" x="356" y="0" flags="0x4"/>
      <component glyphName="period" x="672" y="0" flags="0x4"/>
    </TTGlyph>
    <TTGlyph name="emacron" xMin="26" yMin="-12" xMax="484" yMax="690">
      <component glyphName="e" x="0" y="0" flags="0x204"/>
      <component glyphName="uni0304" x="212" y="0" flags="0x4"/>
    </TTGlyph>
    <TTGlyph name="emdash" xMin="34" yMin="202" xMax="738" yMax="304">
      <contour>
        <pt x="54" y="304" on="1"/>
        <pt x="738" y="304" on="1"/>
        <pt x="718" y="202" on="1"/>
        <pt x="34" y="202" on="1"/>
      </contour>
    </TTGlyph>
    <TTGlyph name="endash" xMin="34" yMin="202" xMax="430" yMax="304">
      <contour>
        <pt x="54" y="304" on="1"/>
        <pt x="430" y="304" on="1"/>
        <pt x="410" y="202" on="1"/>
        <pt x="34" y="202" on="1"/>
      </contour>
    </TTGlyph>
    <TTGlyph name="eogonek" xMin="26" yMin="-212" xMax="474" yMax="512">
      <contour>
        <pt x="166" y="-136" on="1"/>
        <pt x="166" y="-111" on="0"/>
        <pt x="186" y="-69" on="0"/>
        <pt x="212" y="-37" on="0"/>
        <pt x="236" y="-16" on="0"/>
        <pt x="240" y="-12" on="1"/>
        <pt x="236" y="-12" on="1"/>
        <pt x="189" y="-12" on="0"/>
        <pt x="112" y="18" on="0"/>
        <pt x="57" y="74" on="0"/>
        <pt x="26" y="154" on="0"/>
        <pt x="26" y="204" on="1"/>
        <pt x="26" y="273" on="0"/>
        <pt x="76" y="386" on="0"/>
        <pt x="157" y="467" on="0"/>
        <pt x="258" y="512" on="0"/>
        <pt x="308" y="512" on="1"/>
        <pt x="354" y="512" on="0"/>
        <pt x="417" y="482" on="0"/>
        <pt x="456" y="430" on="0"/>
        <pt x="474" y="361" on="0"/>
        <pt x="474" y="322" on="1"/>
        <pt x="474" y="303" on="0"/>
        <pt x="467" y="265" on="0"/>
        <pt x="458" y="232" on="0"/>
        <pt x="449" y="207" on="0"/>
        <pt x="446" y="202" on="1"/>
        <pt x="176" y="202" on="1"/>
        <pt x="178" y="152" on="0"/>
        <pt x="236" y="108" on="0"/>
        <pt x="280" y="108" on="1"/>
        <pt x="301" y="108" on="0"/>
        <pt x="347" y="128" on="0"/>
        <pt x="364" y="140" on="1"/>
        <pt x="420" y="40" on="1"/>
        <pt x="374" y="19" on="0"/>
        <pt x="319" y="-19" on="0"/>
        <pt x="289" y="-52" on="0"/>
        <pt x="280" y="-80" on="0"/>
        <pt x="280" y="-90" on="1"/>
        <pt x="280" y="-104" on="0"/>
        <pt x="300" y="-118" on="0"/>
        <pt x="314" y="-118" on="1"/>
        <pt x="327" y="-118" on="0"/>
        <pt x="344" y="-108" on="1"/>
        <pt x="370" y="-172" on="1"/>
        <pt x="347" y="-189" on="0"/>
        <pt x="283" y="-212" on="0"/>
        <pt x="256" y="-212" on="1"/>
        <pt x="217" y="-212" on="0"/>
        <pt x="166" y="-174" on="0"/>
      </contour>
      <contour>
        <pt x="340" y="298" on="1"/>
        <pt x="342" y="304" on="0"/>
        <pt x="344" y="321" on="0"/>
        <pt x="344" y="330" on="1"/>
        <pt x="344" y="356" on="0"/>
        <pt x="320" y="390" on="0"/>
        <pt x="288" y="390" on="1"/>
        <pt x="259" y="390" on="0"/>
        <pt x="205" y="346" on="0"/>
        <pt x="188" y="298" on="1"/>
      </contour>
    </TTGlyph>
    <TTGlyph name="equal" xMin="48" yMin="155" xMax="496" yMax="506">
      <component glyphName="minus" x="0" y="120" flags="0x204"/>
      <component glyphName="minus" x="0" y="-119" flags="0x4"/>
    </TTGlyph>
    <TTGlyph name="estimated" xMin="66" yMin="-12" xMax="774" yMax="660">
      <contour>
        <pt x="204" y="108" on="1"/>
        <pt x="245" y="61" on="0"/>
        <pt x="357" y="8" on="0"/>
        <pt x="422" y="8" on="1"/>
        <pt x="490" y="8" on="0"/>
        <pt x="608" y="69" on="0"/>
        <pt x="650" y="120" on="1"/>
        <pt x="702" y="120" on="1"/>
        <pt x="652" y="60" on="0"/>
        <pt x="506" y="-12" on="0"/>
        <pt x="420" y="-12" on="1"/>
        <pt x="346" y="-12" on="0"/>
        <pt x="217" y="41" on="0"/>
        <pt x="121" y="132" on="0"/>
        <pt x="66" y="254" on="0"/>
        <pt x="66" y="324" on="1"/>
        <pt x="66" y="394" on="0"/>
        <pt x="121" y="516" on="0"/>
        <pt x="217" y="607" on="0"/>
        <pt x="346" y="660" on="0"/>
        <pt x="420" y="660" on="1"/>
        <pt x="493" y="660" on="0"/>
        <pt x="622" y="607" on="0"/>
        <pt x="718" y="516" on="0"/>
        <pt x="774" y="394" on="0"/>
        <pt x="774" y="324" on="1"/>
        <pt x="774" y="316" on="1"/>
        <pt x="200" y="316" on="1"/>
        <pt x="196" y="316" on="0"/>
        <pt x="196" y="312" on="1"/>
        <pt x="196" y="128" on="1"/>
        <pt x="196" y="122" on="0"/>
        <pt x="201" y="113" on="0"/>
      </contour>
      <contour>
        <pt x="640" y="334" on="1"/>
        <pt x="646" y="334" on="0"/>
        <pt x="646" y="340" on="1"/>
        <pt x="646" y="524" on="1"/>
        <pt x="646" y="536" on="0"/>
        <pt x="636" y="546" on="1"/>
        <pt x="594" y="590" on="0"/>
        <pt x="484" y="640" on="0"/>
        <pt x="422" y="640" on="1"/>
        <pt x="357" y="640" on="0"/>
        <pt x="246" y="587" on="0"/>
        <pt x="204" y="542" on="1"/>
        <pt x="201" y="537" on="0"/>
        <pt x="196" y="526" on="0"/>
        <pt x="196" y="520" on="1"/>
        <pt x="196" y="340" on="1"/>
        <pt x="196" y="334" on="0"/>
        <pt x="200" y="334" on="1"/>
      </contour>
    </TTGlyph>
    <TTGlyph name="eth" xMin="30" yMin="-12" xMax="562" yMax="744">
      <contour>
        <pt x="240" y="116" on="1"/>
        <pt x="286" y="116" on="0"/>
        <pt x="345" y="215" on="0"/>
        <pt x="353" y="295" on="1"/>
        <pt x="342" y="313" on="0"/>
        <pt x="304" y="338" on="0"/>
        <pt x="280" y="338" on="1"/>
        <pt x="253" y="338" on="0"/>
        <pt x="213" y="313" on="0"/>
        <pt x="187" y="273" on="0"/>
        <pt x="174" y="223" on="0"/>
        <pt x="174" y="198" on="1"/>
        <pt x="174" y="163" on="0"/>
        <pt x="207" y="116" on="0"/>
      </contour>
      <contour>
        <pt x="440" y="584" on="1"/>
        <pt x="471" y="536" on="0"/>
        <pt x="504" y="425" on="0"/>
        <pt x="504" y="360" on="1"/>
        <pt x="504" y="292" on="0"/>
        <pt x="471" y="159" on="0"/>
        <pt x="403" y="54" on="0"/>
        <pt x="298" y="-12" on="0"/>
        <pt x="226" y="-12" on="1"/>
        <pt x="186" y="-12" on="0"/>
        <pt x="115" y="15" on="0"/>
        <pt x="61" y="66" on="0"/>
        <pt x="30" y="139" on="0"/>
        <pt x="30" y="186" on="1"/>
        <pt x="30" y="235" on="0"/>
        <pt x="60" y="332" on="0"/>
        <pt x="118" y="410" on="0"/>
        <pt x="203" y="458" on="0"/>
        <pt x="258" y="458" on="1"/>
        <pt x="287" y="458" on="0"/>
        <pt x="336" y="435" on="0"/>
        <pt x="353" y="412" on="1"/>
        <pt x="344" y="481" on="0"/>
        <pt x="312" y="533" on="1"/>
        <pt x="168" y="476" on="1"/>
        <pt x="138" y="550" on="1"/>
        <pt x="258" y="597" on="1"/>
        <pt x="242" y="611" on="0"/>
        <pt x="205" y="638" on="0"/>
        <pt x="184" y="652" on="1"/>
        <pt x="256" y="744" on="1"/>
        <pt x="331" y="706" on="0"/>
        <pt x="388" y="649" on="1"/>
        <pt x="532" y="706" on="1"/>
        <pt x="562" y="632" on="1"/>
      </contour>
    </TTGlyph>
    <TTGlyph name="exclam" xMin="46" yMin="-12" xMax="338" yMax="670">
      <contour>
        <pt x="158" y="530" on="1"/>
        <pt x="178" y="670" on="1"/>
        <pt x="338" y="670" on="1"/>
        <pt x="306" y="530" on="1"/>
        <pt x="224" y="238" on="1"/>
        <pt x="120" y="238" on="1"/>
      </contour>
      <contour>
        <pt x="126" y="-12" on="1"/>
        <pt x="90" y="-12" on="0"/>
        <pt x="46" y="34" on="0"/>
        <pt x="46" y="72" on="1"/>
        <pt x="46" y="92" on="0"/>
        <pt x="62" y="132" on="0"/>
        <pt x="91" y="164" on="0"/>
        <pt x="131" y="184" on="0"/>
        <pt x="156" y="184" on="1"/>
        <pt x="192" y="184" on="0"/>
        <pt x="236" y="136" on="0"/>
        <pt x="236" y="100" on="1"/>
        <pt x="236" y="79" on="0"/>
        <pt x="220" y="39" on="0"/>
        <pt x="191" y="7" on="0"/>
        <pt x="151" y="-12" on="0"/>
      </contour>
    </TTGlyph>
    <TTGlyph name="exclamdown" xMin="16" yMin="-170" xMax="308" yMax="512">
      <contour>
        <pt x="196" y="-30" on="1"/>
        <pt x="176" y="-170" on="1"/>
        <pt x="16" y="-170" on="1"/>
        <pt x="48" y="-30" on="1"/>
        <pt x="130" y="262" on="1"/>
        <pt x="234" y="262" on="1"/>
      </contour>
      <contour>
        <pt x="228" y="512" on="1"/>
        <pt x="264" y="512" on="0"/>
        <pt x="308" y="466" on="0"/>
        <pt x="308" y="428" on="1"/>
        <pt x="308" y="408" on="0"/>
        <pt x="292" y="368" on="0"/>
        <pt x="263" y="336" on="0"/>
        <pt x="223" y="316" on="0"/>
        <pt x="198" y="316" on="1"/>
        <pt x="162" y="316" on="0"/>
        <pt x="118" y="364" on="0"/>
        <pt x="118" y="400" on="1"/>
        <pt x="118" y="421" on="0"/>
        <pt x="134" y="461" on="0"/>
        <pt x="163" y="493" on="0"/>
        <pt x="203" y="512" on="0"/>
      </contour>
    </TTGlyph>
    <TTGlyph name="f" xMin="34" yMin="0" xMax="458" yMax="708">
      <contour>
        <pt x="70" y="494" on="1"/>
        <pt x="136" y="500" on="1"/>
        <pt x="138" y="514" on="1"/>
        <pt x="145" y="553" on="0"/>
        <pt x="176" y="623" on="0"/>
        <pt x="226" y="677" on="0"/>
        <pt x="297" y="708" on="0"/>
        <pt x="344" y="708" on="1"/>
        <pt x="405" y="708" on="0"/>
        <pt x="458" y="680" on="1"/>
        <pt x="408" y="568" on="1"/>
        <pt x="400" y="573" on="0"/>
        <pt x="374" y="582" on="0"/>
        <pt x="362" y="582" on="1"/>
        <pt x="349" y="582" on="0"/>
        <pt x="329" y="578" on="0"/>
        <pt x="313" y="565" on="0"/>
        <pt x="302" y="540" on="0"/>
        <pt x="298" y="520" on="1"/>
        <pt x="294" y="500" on="1"/>
        <pt x="376" y="500" on="1"/>
        <pt x="352" y="376" on="1"/>
        <pt x="268" y="376" on="1"/>
        <pt x="194" y="0" on="1"/>
        <pt x="34" y="0" on="1"/>
        <pt x="110" y="376" on="1"/>
        <pt x="46" y="376" on="1"/>
      </contour>
    </TTGlyph>
    <TTGlyph name="f.sups" xMin="56" yMin="260" xMax="343" yMax="735">
      <contour>
        <pt x="309" y="640" on="1"/>
        <pt x="304" y="643" on="0"/>
        <pt x="287" y="649" on="0"/>
        <pt x="279" y="649" on="1"/>
        <pt x="262" y="649" on="0"/>
        <pt x="242" y="628" on="0"/>
        <pt x="237" y="601" on="1"/>
        <pt x="235" y="592" on="1"/>
        <pt x="290" y="592" on="1"/>
        <pt x="272" y="506" on="1"/>
        <pt x="217" y="506" on="1"/>
        <pt x="167" y="260" on="1"/>
        <pt x="56" y="260" on="1"/>
        <pt x="106" y="506" on="1"/>
        <pt x="64" y="506" on="1"/>
        <pt x="78" y="586" on="1"/>
        <pt x="123" y="591" on="1"/>
        <pt x="126" y="605" on="1"/>
        <pt x="131" y="631" on="0"/>
        <pt x="152" y="678" on="0"/>
        <pt x="185" y="714" on="0"/>
        <pt x="233" y="735" on="0"/>
        <pt x="266" y="735" on="1"/>
        <pt x="307" y="735" on="0"/>
        <pt x="343" y="716" on="1"/>
      </contour>
    </TTGlyph>
    <TTGlyph name="f_f" xMin="34" yMin="0" xMax="770" yMax="708">
      <contour>
        <pt x="720" y="568" on="1"/>
        <pt x="712" y="573" on="0"/>
        <pt x="686" y="582" on="0"/>
        <pt x="674" y="582" on="1"/>
        <pt x="661" y="582" on="0"/>
        <pt x="641" y="578" on="0"/>
        <pt x="625" y="565" on="0"/>
        <pt x="614" y="540" on="0"/>
        <pt x="610" y="520" on="1"/>
        <pt x="606" y="500" on="1"/>
        <pt x="688" y="500" on="1"/>
        <pt x="664" y="376" on="1"/>
        <pt x="581" y="376" on="1"/>
        <pt x="506" y="0" on="1"/>
        <pt x="346" y="0" on="1"/>
        <pt x="422" y="376" on="1"/>
        <pt x="269" y="376" on="1"/>
        <pt x="194" y="0" on="1"/>
        <pt x="34" y="0" on="1"/>
        <pt x="110" y="376" on="1"/>
        <pt x="46" y="376" on="1"/>
        <pt x="70" y="494" on="1"/>
        <pt x="135" y="499" on="1"/>
        <pt x="136" y="504" on="1"/>
        <pt x="143" y="543" on="0"/>
        <pt x="174" y="613" on="0"/>
        <pt x="224" y="667" on="0"/>
        <pt x="295" y="698" on="0"/>
        <pt x="342" y="698" on="1"/>
        <pt x="403" y="698" on="0"/>
        <pt x="456" y="670" on="1"/>
        <pt x="406" y="558" on="1"/>
        <pt x="398" y="563" on="0"/>
        <pt x="372" y="572" on="0"/>
        <pt x="360" y="572" on="1"/>
        <pt x="347" y="572" on="0"/>
        <pt x="327" y="568" on="0"/>
        <pt x="311" y="555" on="0"/>
        <pt x="300" y="530" on="0"/>
        <pt x="296" y="510" on="1"/>
        <pt x="294" y="500" on="1"/>
        <pt x="447" y="500" on="1"/>
        <pt x="450" y="514" on="1"/>
        <pt x="457" y="553" on="0"/>
        <pt x="488" y="623" on="0"/>
        <pt x="538" y="677" on="0"/>
        <pt x="609" y="708" on="0"/>
        <pt x="656" y="708" on="1"/>
        <pt x="717" y="708" on="0"/>
        <pt x="770" y="680" on="1"/>
      </contour>
    </TTGlyph>
    <TTGlyph name="f_t" xMin="34" yMin="-12" xMax="700" yMax="708">
      <contour>
        <pt x="526" y="188" on="1"/>
        <pt x="524" y="179" on="0"/>
        <pt x="524" y="164" on="0"/>
        <pt x="524" y="156" on="1"/>
        <pt x="524" y="112" on="0"/>
        <pt x="572" y="112" on="1"/>
        <pt x="588" y="112" on="0"/>
        <pt x="608" y="122" on="1"/>
        <pt x="636" y="10" on="1"/>
        <pt x="615" y="2" on="0"/>
        <pt x="552" y="-12" on="0"/>
        <pt x="510" y="-12" on="1"/>
        <pt x="470" y="-12" on="0"/>
        <pt x="413" y="9" on="0"/>
        <pt x="377" y="46" on="0"/>
        <pt x="360" y="97" on="0"/>
        <pt x="360" y="128" on="1"/>
        <pt x="360" y="159" on="0"/>
        <pt x="368" y="194" on="1"/>
        <pt x="406" y="376" on="1"/>
        <pt x="269" y="376" on="1"/>
        <pt x="194" y="0" on="1"/>
        <pt x="34" y="0" on="1"/>
        <pt x="110" y="376" on="1"/>
        <pt x="46" y="376" on="1"/>
        <pt x="70" y="494" on="1"/>
        <pt x="135" y="499" on="1"/>
        <pt x="138" y="514" on="1"/>
        <pt x="145" y="553" on="0"/>
        <pt x="176" y="623" on="0"/>
        <pt x="226" y="677" on="0"/>
        <pt x="297" y="708" on="0"/>
        <pt x="344" y="708" on="1"/>
        <pt x="405" y="708" on="0"/>
        <pt x="458" y="680" on="1"/>
        <pt x="408" y="568" on="1"/>
        <pt x="400" y="573" on="0"/>
        <pt x="374" y="582" on="0"/>
        <pt x="362" y="582" on="1"/>
        <pt x="349" y="582" on="0"/>
        <pt x="329" y="578" on="0"/>
        <pt x="313" y="565" on="0"/>
        <pt x="302" y="540" on="0"/>
        <pt x="298" y="520" on="1"/>
        <pt x="294" y="500" on="1"/>
        <pt x="438" y="500" on="1"/>
        <pt x="482" y="628" on="1"/>
        <pt x="616" y="628" on="1"/>
        <pt x="592" y="500" on="1"/>
        <pt x="700" y="500" on="1"/>
        <pt x="676" y="376" on="1"/>
        <pt x="564" y="376" on="1"/>
      </contour>
    </TTGlyph>
    <TTGlyph name="fi" xMin="34" yMin="0" xMax="654" yMax="728">
      <component glyphName="f" x="0" y="0" flags="0x4"/>
      <component glyphName="i" x="344" y="0" flags="0x4"/>
    </TTGlyph>
    <TTGlyph name="figuredash" xMin="34" yMin="202" xMax="486" yMax="304">
      <contour>
        <pt x="54" y="304" on="1"/>
        <pt x="486" y="304" on="1"/>
        <pt x="466" y="202" on="1"/>
        <pt x="34" y="202" on="1"/>
      </contour>
    </TTGlyph>
    <TTGlyph name="five" xMin="-8" yMin="-12" xMax="522" yMax="634">
      <contour>
        <pt x="92" y="186" on="1"/>
        <pt x="144" y="116" on="0"/>
        <pt x="210" y="116" on="1"/>
        <pt x="249" y="116" on="0"/>
        <pt x="308" y="168" on="0"/>
        <pt x="308" y="216" on="1"/>
        <pt x="308" y="254" on="0"/>
        <pt x="268" y="292" on="0"/>
        <pt x="232" y="292" on="1"/>
        <pt x="221" y="292" on="0"/>
        <pt x="203" y="290" on="0"/>
        <pt x="184" y="284" on="0"/>
        <pt x="160" y="273" on="0"/>
        <pt x="144" y="264" on="1"/>
        <pt x="86" y="312" on="1"/>
        <pt x="164" y="634" on="1"/>
        <pt x="522" y="634" on="1"/>
        <pt x="496" y="500" on="1"/>
        <pt x="276" y="500" on="1"/>
        <pt x="248" y="400" on="1"/>
        <pt x="262" y="406" on="0"/>
        <pt x="286" y="410" on="0"/>
        <pt x="300" y="410" on="1"/>
        <pt x="336" y="410" on="0"/>
        <pt x="398" y="388" on="0"/>
        <pt x="444" y="346" on="0"/>
        <pt x="470" y="283" on="0"/>
        <pt x="470" y="242" on="1"/>
        <pt x="470" y="183" on="0"/>
        <pt x="425" y="89" on="0"/>
        <pt x="352" y="23" on="0"/>
        <pt x="257" y="-12" on="0"/>
        <pt x="208" y="-12" on="1"/>
        <pt x="151" y="-12" on="0"/>
        <pt x="39" y="39" on="0"/>
        <pt x="-8" y="104" on="1"/>
      </contour>
    </TTGlyph>
    <TTGlyph name="five.dnom" xMin="-4" yMin="-12" xMax="342" yMax="390">
      <contour>
        <pt x="70" y="122" on="1"/>
        <pt x="97" y="80" on="0"/>
        <pt x="136" y="80" on="1"/>
        <pt x="160" y="80" on="0"/>
        <pt x="192" y="109" on="0"/>
        <pt x="192" y="130" on="1"/>
        <pt x="192" y="151" on="0"/>
        <pt x="168" y="172" on="0"/>
        <pt x="148" y="172" on="1"/>
        <pt x="138" y="172" on="0"/>
        <pt x="111" y="165" on="0"/>
        <pt x="96" y="156" on="1"/>
        <pt x="56" y="194" on="1"/>
        <pt x="110" y="390" on="1"/>
        <pt x="342" y="390" on="1"/>
        <pt x="324" y="292" on="1"/>
        <pt x="182" y="292" on="1"/>
        <pt x="168" y="246" on="1"/>
        <pt x="177" y="249" on="0"/>
        <pt x="194" y="250" on="0"/>
        <pt x="198" y="250" on="1"/>
        <pt x="245" y="250" on="0"/>
        <pt x="306" y="189" on="0"/>
        <pt x="306" y="136" on="1"/>
        <pt x="306" y="104" on="0"/>
        <pt x="280" y="50" on="0"/>
        <pt x="235" y="11" on="0"/>
        <pt x="177" y="-12" on="0"/>
        <pt x="144" y="-12" on="1"/>
        <pt x="91" y="-12" on="0"/>
        <pt x="19" y="32" on="0"/>
        <pt x="-4" y="68" on="1"/>
      </contour>
    </TTGlyph>
    <TTGlyph name="five.numr" xMin="46" yMin="258" xMax="392" yMax="660">
      <component glyphName="five.dnom" x="50" y="270" flags="0x204"/>
    </TTGlyph>
    <TTGlyph name="five.onum" xMin="-28" yMin="-90" xMax="506" yMax="580">
      <component glyphName="five.tnum" x="0" y="0" flags="0x204"/>
    </TTGlyph>
    <TTGlyph name="five.pnum" xMin="-17" yMin="-12" xMax="513" yMax="634">
      <component glyphName="five" x="-9" y="0" flags="0x4"/>
    </TTGlyph>
    <TTGlyph name="five.subs" xMin="-43" yMin="-181" xMax="303" yMax="221">
      <component glyphName="five.dnom" x="-39" y="-169" flags="0x204"/>
    </TTGlyph>
    <TTGlyph name="five.sups" xMin="76" yMin="428" xMax="422" yMax="830">
      <component glyphName="five.dnom" x="80" y="440" flags="0x204"/>
    </TTGlyph>
    <TTGlyph name="five.tnum" xMin="-28" yMin="-90" xMax="506" yMax="580">
      <contour>
        <pt x="72" y="108" on="1"/>
        <pt x="124" y="38" on="0"/>
        <pt x="190" y="38" on="1"/>
        <pt x="229" y="38" on="0"/>
        <pt x="288" y="92" on="0"/>
        <pt x="288" y="140" on="1"/>
        <pt x="288" y="182" on="0"/>
        <pt x="248" y="224" on="0"/>
        <pt x="212" y="224" on="1"/>
        <pt x="201" y="224" on="0"/>
        <pt x="183" y="222" on="0"/>
        <pt x="164" y="216" on="0"/>
        <pt x="140" y="205" on="0"/>
        <pt x="124" y="196" on="1"/>
        <pt x="66" y="244" on="1"/>
        <pt x="148" y="580" on="1"/>
        <pt x="506" y="580" on="1"/>
        <pt x="480" y="446" on="1"/>
        <pt x="260" y="446" on="1"/>
        <pt x="228" y="332" on="1"/>
        <pt x="242" y="338" on="0"/>
        <pt x="266" y="342" on="0"/>
        <pt x="280" y="342" on="1"/>
        <pt x="316" y="342" on="0"/>
        <pt x="378" y="320" on="0"/>
        <pt x="424" y="275" on="0"/>
        <pt x="450" y="209" on="0"/>
        <pt x="450" y="166" on="1"/>
        <pt x="450" y="107" on="0"/>
        <pt x="405" y="12" on="0"/>
        <pt x="332" y="-54" on="0"/>
        <pt x="237" y="-90" on="0"/>
        <pt x="188" y="-90" on="1"/>
        <pt x="131" y="-90" on="0"/>
        <pt x="19" y="-39" on="0"/>
        <pt x="-28" y="26" on="1"/>
      </contour>
    </TTGlyph>
    <TTGlyph name="fiveeighths" xMin="36" yMin="-12" xMax="784" yMax="672">
      <component glyphName="five.dnom" x="40" y="270" flags="0x4"/>
      <component glyphName="fraction" x="360" y="0" flags="0x4"/>
      <component glyphName="eight.dnom" x="460" y="0" flags="0x4"/>
    </TTGlyph>
    <TTGlyph name="fl" xMin="34" yMin="-12" xMax="652" yMax="708">
      <component glyphName="f" x="0" y="0" flags="0x4"/>
      <component glyphName="l" x="344" y="0" flags="0x4"/>
    </TTGlyph>
    <TTGlyph name="fl.a" xMin="34" yMin="0" xMax="652" yMax="708">
      <component glyphName="f" x="0" y="0" flags="0x4"/>
      <component glyphName="l.a" x="344" y="0" flags="0x4"/>
    </TTGlyph>
    <TTGlyph name="four" xMin="8" yMin="0" xMax="510" yMax="634">
      <contour>
        <pt x="238" y="0" on="1"/>
        <pt x="267" y="146" on="1"/>
        <pt x="8" y="146" on="1"/>
        <pt x="30" y="258" on="1"/>
        <pt x="316" y="634" on="1"/>
        <pt x="510" y="634" on="1"/>
        <pt x="437" y="268" on="1"/>
        <pt x="506" y="268" on="1"/>
        <pt x="482" y="146" on="1"/>
        <pt x="413" y="146" on="1"/>
        <pt x="384" y="0" on="1"/>
      </contour>
      <contour>
        <pt x="291" y="268" on="1"/>
        <pt x="308" y="354" on="1"/>
        <pt x="316" y="390" on="0"/>
        <pt x="334" y="464" on="0"/>
        <pt x="342" y="500" on="1"/>
        <pt x="338" y="500" on="1"/>
        <pt x="320" y="470" on="0"/>
        <pt x="286" y="408" on="0"/>
        <pt x="266" y="380" on="1"/>
        <pt x="184" y="268" on="1"/>
      </contour>
    </TTGlyph>
    <TTGlyph name="four.dnom" xMin="-12" yMin="0" xMax="346" yMax="390">
      <contour>
        <pt x="190" y="158" on="1"/>
        <pt x="198" y="196" on="1"/>
        <pt x="226" y="320" on="1"/>
        <pt x="222" y="320" on="1"/>
        <pt x="164" y="234" on="1"/>
        <pt x="106" y="158" on="1"/>
      </contour>
      <contour>
        <pt x="330" y="82" on="1"/>
        <pt x="274" y="82" on="1"/>
        <pt x="258" y="0" on="1"/>
        <pt x="158" y="0" on="1"/>
        <pt x="175" y="82" on="1"/>
        <pt x="-12" y="82" on="1"/>
        <pt x="0" y="142" on="1"/>
        <pt x="188" y="390" on="1"/>
        <pt x="334" y="390" on="1"/>
        <pt x="289" y="158" on="1"/>
        <pt x="346" y="158" on="1"/>
      </contour>
    </TTGlyph>
    <TTGlyph name="four.numr" xMin="38" yMin="270" xMax="396" yMax="660">
      <component glyphName="four.dnom" x="50" y="270" flags="0x204"/>
    </TTGlyph>
    <TTGlyph name="four.onum" xMin="0" yMin="-80" xMax="504" yMax="580">
      <component glyphName="four.tnum" x="0" y="0" flags="0x204"/>
    </TTGlyph>
    <TTGlyph name="four.pnum" xMin="16" yMin="0" xMax="518" yMax="634">
      <component glyphName="four" x="8" y="0" flags="0x4"/>
    </TTGlyph>
    <TTGlyph name="four.subs" xMin="-51" yMin="-169" xMax="307" yMax="221">
      <component glyphName="four.dnom" x="-39" y="-169" flags="0x204"/>
    </TTGlyph>
    <TTGlyph name="four.sups" xMin="68" yMin="440" xMax="426" yMax="830">
      <component glyphName="four.dnom" x="80" y="440" flags="0x204"/>
    </TTGlyph>
    <TTGlyph name="four.tnum" xMin="0" yMin="-80" xMax="504" yMax="580">
      <contour>
        <pt x="282" y="202" on="1"/>
        <pt x="302" y="300" on="1"/>
        <pt x="310" y="336" on="0"/>
        <pt x="328" y="410" on="0"/>
        <pt x="336" y="446" on="1"/>
        <pt x="332" y="446" on="1"/>
        <pt x="314" y="416" on="0"/>
        <pt x="280" y="354" on="0"/>
        <pt x="260" y="326" on="1"/>
        <pt x="176" y="202" on="1"/>
      </contour>
      <contour>
        <pt x="428" y="202" on="1"/>
        <pt x="498" y="202" on="1"/>
        <pt x="474" y="80" on="1"/>
        <pt x="404" y="80" on="1"/>
        <pt x="372" y="-80" on="1"/>
        <pt x="226" y="-80" on="1"/>
        <pt x="258" y="80" on="1"/>
        <pt x="0" y="80" on="1"/>
        <pt x="22" y="192" on="1"/>
        <pt x="310" y="580" on="1"/>
        <pt x="504" y="580" on="1"/>
      </contour>
    </TTGlyph>
    <TTGlyph name="fraction" xMin="-216" yMin="-12" xMax="344" yMax="672">
      <contour>
        <pt x="-216" y="-12" on="1"/>
        <pt x="254" y="672" on="1"/>
        <pt x="344" y="672" on="1"/>
        <pt x="-126" y="-12" on="1"/>
      </contour>
    </TTGlyph>
    <TTGlyph name="g" xMin="-16" yMin="-208" xMax="544" yMax="512">
      <contour>
        <pt x="544" y="500" on="1"/>
        <pt x="448" y="20" on="1"/>
        <pt x="425" y="-96" on="0"/>
        <pt x="282" y="-208" on="0"/>
        <pt x="172" y="-208" on="1"/>
        <pt x="130" y="-208" on="0"/>
        <pt x="29" y="-174" on="0"/>
        <pt x="-16" y="-138" on="1"/>
        <pt x="52" y="-32" on="1"/>
        <pt x="81" y="-53" on="0"/>
        <pt x="143" y="-82" on="0"/>
        <pt x="176" y="-82" on="1"/>
        <pt x="264" y="-82" on="0"/>
        <pt x="294" y="6" on="1"/>
        <pt x="318" y="84" on="1"/>
        <pt x="316" y="84" on="1"/>
        <pt x="283" y="52" on="0"/>
        <pt x="213" y="20" on="0"/>
        <pt x="174" y="20" on="1"/>
        <pt x="111" y="20" on="0"/>
        <pt x="28" y="105" on="0"/>
        <pt x="28" y="194" on="1"/>
        <pt x="28" y="261" on="0"/>
        <pt x="70" y="377" on="0"/>
        <pt x="142" y="463" on="0"/>
        <pt x="236" y="512" on="0"/>
        <pt x="288" y="512" on="1"/>
        <pt x="320" y="512" on="0"/>
        <pt x="376" y="479" on="0"/>
        <pt x="390" y="450" on="1"/>
        <pt x="392" y="450" on="1"/>
        <pt x="414" y="500" on="1"/>
      </contour>
      <contour>
        <pt x="238" y="150" on="1"/>
        <pt x="259" y="150" on="0"/>
        <pt x="306" y="171" on="0"/>
        <pt x="326" y="206" on="1"/>
        <pt x="352" y="344" on="1"/>
        <pt x="343" y="364" on="0"/>
        <pt x="314" y="382" on="0"/>
        <pt x="300" y="382" on="1"/>
        <pt x="278" y="382" on="0"/>
        <pt x="240" y="358" on="0"/>
        <pt x="211" y="313" on="0"/>
        <pt x="194" y="251" on="0"/>
        <pt x="194" y="214" on="1"/>
        <pt x="194" y="181" on="0"/>
        <pt x="218" y="150" on="0"/>
      </contour>
    </TTGlyph>
    <TTGlyph name="g.a" xMin="-30" yMin="-206" xMax="540" yMax="512">
      <contour>
        <pt x="60" y="316" on="1"/>
        <pt x="60" y="359" on="0"/>
        <pt x="95" y="431" on="0"/>
        <pt x="155" y="483" on="0"/>
        <pt x="234" y="512" on="0"/>
        <pt x="278" y="512" on="1"/>
        <pt x="299" y="512" on="0"/>
        <pt x="333" y="506" on="0"/>
        <pt x="350" y="500" on="1"/>
        <pt x="540" y="500" on="1"/>
        <pt x="518" y="382" on="1"/>
        <pt x="452" y="382" on="1"/>
        <pt x="455" y="371" on="0"/>
        <pt x="456" y="353" on="0"/>
        <pt x="456" y="342" on="1"/>
        <pt x="456" y="300" on="0"/>
        <pt x="423" y="232" on="0"/>
        <pt x="365" y="184" on="0"/>
        <pt x="284" y="158" on="0"/>
        <pt x="236" y="158" on="1"/>
        <pt x="222" y="158" on="0"/>
        <pt x="198" y="160" on="0"/>
        <pt x="190" y="162" on="1"/>
        <pt x="182" y="157" on="0"/>
        <pt x="172" y="141" on="0"/>
        <pt x="172" y="132" on="1"/>
        <pt x="172" y="124" on="0"/>
        <pt x="177" y="112" on="0"/>
        <pt x="192" y="104" on="0"/>
        <pt x="222" y="98" on="0"/>
        <pt x="248" y="95" on="1"/>
        <pt x="305" y="87" on="0"/>
        <pt x="379" y="66" on="0"/>
        <pt x="423" y="37" on="0"/>
        <pt x="440" y="0" on="0"/>
        <pt x="440" y="-24" on="1"/>
        <pt x="440" y="-70" on="0"/>
        <pt x="392" y="-139" on="0"/>
        <pt x="316" y="-184" on="0"/>
        <pt x="221" y="-206" on="0"/>
        <pt x="174" y="-206" on="1"/>
        <pt x="145" y="-206" on="0"/>
        <pt x="75" y="-198" on="0"/>
        <pt x="12" y="-174" on="0"/>
        <pt x="-30" y="-127" on="0"/>
        <pt x="-30" y="-88" on="1"/>
        <pt x="-30" y="-47" on="0"/>
        <pt x="25" y="8" on="0"/>
        <pt x="69" y="26" on="1"/>
        <pt x="69" y="30" on="1"/>
        <pt x="57" y="42" on="0"/>
        <pt x="42" y="76" on="0"/>
        <pt x="42" y="98" on="1"/>
        <pt x="42" y="130" on="0"/>
        <pt x="84" y="181" on="0"/>
        <pt x="116" y="196" on="1"/>
        <pt x="116" y="200" on="1"/>
        <pt x="90" y="223" on="0"/>
        <pt x="60" y="278" on="0"/>
      </contour>
      <contour>
        <pt x="144" y="-10" on="1"/>
        <pt x="130" y="-20" on="0"/>
        <pt x="106" y="-43" on="0"/>
        <pt x="106" y="-60" on="1"/>
        <pt x="106" y="-84" on="0"/>
        <pt x="145" y="-108" on="0"/>
        <pt x="190" y="-108" on="1"/>
        <pt x="231" y="-108" on="0"/>
        <pt x="282" y="-85" on="0"/>
        <pt x="282" y="-64" on="1"/>
        <pt x="282" y="-54" on="0"/>
        <pt x="268" y="-39" on="0"/>
        <pt x="246" y="-30" on="0"/>
        <pt x="217" y="-24" on="0"/>
        <pt x="202" y="-22" on="1"/>
        <pt x="179" y="-19" on="0"/>
      </contour>
      <contour>
        <pt x="274" y="404" on="1"/>
        <pt x="258" y="404" on="0"/>
        <pt x="233" y="388" on="0"/>
        <pt x="215" y="361" on="0"/>
        <pt x="206" y="328" on="0"/>
        <pt x="206" y="312" on="1"/>
        <pt x="206" y="283" on="0"/>
        <pt x="231" y="254" on="0"/>
        <pt x="252" y="254" on="1"/>
        <pt x="268" y="254" on="0"/>
        <pt x="293" y="270" on="0"/>
        <pt x="311" y="297" on="0"/>
        <pt x="320" y="329" on="0"/>
        <pt x="320" y="346" on="1"/>
        <pt x="320" y="375" on="0"/>
        <pt x="295" y="404" on="0"/>
      </contour>
    </TTGlyph>
    <TTGlyph name="g.supa" xMin="14" yMin="123" xMax="397" yMax="599">
      <contour>
        <pt x="74" y="470" on="1"/>
        <pt x="74" y="498" on="0"/>
        <pt x="97" y="545" on="0"/>
        <pt x="137" y="580" on="0"/>
        <pt x="190" y="599" on="0"/>
        <pt x="220" y="599" on="1"/>
        <pt x="234" y="599" on="0"/>
        <pt x="258" y="595" on="0"/>
        <pt x="269" y="591" on="1"/>
        <pt x="397" y="591" on="1"/>
        <pt x="382" y="510" on="1"/>
        <pt x="339" y="510" on="1"/>
        <pt x="341" y="503" on="0"/>
        <pt x="341" y="492" on="0"/>
        <pt x="341" y="485" on="1"/>
        <pt x="341" y="429" on="0"/>
        <pt x="259" y="365" on="0"/>
        <pt x="193" y="365" on="1"/>
        <pt x="185" y="365" on="0"/>
        <pt x="168" y="366" on="0"/>
        <pt x="163" y="367" on="1"/>
        <pt x="158" y="364" on="0"/>
        <pt x="151" y="354" on="0"/>
        <pt x="151" y="348" on="1"/>
        <pt x="151" y="343" on="0"/>
        <pt x="154" y="335" on="0"/>
        <pt x="164" y="330" on="0"/>
        <pt x="185" y="325" on="0"/>
        <pt x="202" y="323" on="1"/>
        <pt x="241" y="318" on="0"/>
        <pt x="291" y="304" on="0"/>
        <pt x="320" y="285" on="0"/>
        <pt x="332" y="260" on="0"/>
        <pt x="332" y="244" on="1"/>
        <pt x="332" y="213" on="0"/>
        <pt x="298" y="168" on="0"/>
        <pt x="245" y="138" on="0"/>
        <pt x="179" y="123" on="0"/>
        <pt x="146" y="123" on="1"/>
        <pt x="128" y="123" on="0"/>
        <pt x="82" y="128" on="0"/>
        <pt x="41" y="144" on="0"/>
        <pt x="14" y="176" on="0"/>
        <pt x="14" y="202" on="1"/>
        <pt x="14" y="228" on="0"/>
        <pt x="51" y="264" on="0"/>
        <pt x="80" y="276" on="1"/>
        <pt x="80" y="279" on="1"/>
        <pt x="62" y="295" on="0"/>
        <pt x="62" y="324" on="1"/>
        <pt x="62" y="345" on="0"/>
        <pt x="91" y="380" on="0"/>
        <pt x="112" y="390" on="1"/>
        <pt x="112" y="393" on="1"/>
        <pt x="95" y="408" on="0"/>
        <pt x="74" y="445" on="0"/>
      </contour>
      <contour>
        <pt x="131" y="252" on="1"/>
        <pt x="123" y="245" on="0"/>
        <pt x="108" y="231" on="0"/>
        <pt x="108" y="221" on="1"/>
        <pt x="108" y="205" on="0"/>
        <pt x="130" y="190" on="0"/>
        <pt x="157" y="190" on="1"/>
        <pt x="186" y="190" on="0"/>
        <pt x="222" y="203" on="0"/>
        <pt x="222" y="217" on="1"/>
        <pt x="222" y="231" on="0"/>
        <pt x="189" y="242" on="0"/>
        <pt x="170" y="244" on="1"/>
        <pt x="163" y="245" on="0"/>
        <pt x="144" y="249" on="0"/>
      </contour>
      <contour>
        <pt x="218" y="525" on="1"/>
        <pt x="198" y="525" on="0"/>
        <pt x="175" y="488" on="0"/>
        <pt x="175" y="467" on="1"/>
        <pt x="175" y="430" on="0"/>
        <pt x="204" y="430" on="1"/>
        <pt x="224" y="430" on="0"/>
        <pt x="247" y="467" on="0"/>
        <pt x="247" y="488" on="1"/>
        <pt x="247" y="525" on="0"/>
      </contour>
    </TTGlyph>
    <TTGlyph name="g.sups" xMin="23" yMin="113" xMax="404" yMax="600">
      <contour>
        <pt x="404" y="592" on="1"/>
        <pt x="338" y="262" on="1"/>
        <pt x="322" y="184" on="0"/>
        <pt x="229" y="113" on="0"/>
        <pt x="157" y="113" on="1"/>
        <pt x="128" y="113" on="0"/>
        <pt x="56" y="134" on="0"/>
        <pt x="23" y="158" on="1"/>
        <pt x="67" y="232" on="1"/>
        <pt x="89" y="219" on="0"/>
        <pt x="136" y="199" on="0"/>
        <pt x="160" y="199" on="1"/>
        <pt x="212" y="199" on="0"/>
        <pt x="232" y="255" on="1"/>
        <pt x="248" y="300" on="1"/>
        <pt x="244" y="300" on="1"/>
        <pt x="221" y="283" on="0"/>
        <pt x="174" y="265" on="0"/>
        <pt x="148" y="265" on="1"/>
        <pt x="103" y="265" on="0"/>
        <pt x="54" y="325" on="0"/>
        <pt x="54" y="381" on="1"/>
        <pt x="54" y="426" on="0"/>
        <pt x="83" y="506" on="0"/>
        <pt x="131" y="566" on="0"/>
        <pt x="195" y="600" on="0"/>
        <pt x="230" y="600" on="1"/>
        <pt x="251" y="600" on="0"/>
        <pt x="285" y="576" on="0"/>
        <pt x="294" y="558" on="1"/>
        <pt x="298" y="558" on="1"/>
        <pt x="314" y="592" on="1"/>
      </contour>
      <contour>
        <pt x="196" y="354" on="1"/>
        <pt x="210" y="354" on="0"/>
        <pt x="239" y="365" on="0"/>
        <pt x="251" y="383" on="1"/>
        <pt x="270" y="486" on="1"/>
        <pt x="265" y="498" on="0"/>
        <pt x="246" y="510" on="0"/>
        <pt x="238" y="510" on="1"/>
        <pt x="209" y="510" on="0"/>
        <pt x="169" y="446" on="0"/>
        <pt x="169" y="395" on="1"/>
        <pt x="169" y="373" on="0"/>
        <pt x="184" y="354" on="0"/>
      </contour>
    </TTGlyph>
    <TTGlyph name="gbreve" xMin="-16" yMin="-208" xMax="544" yMax="716">
      <component glyphName="g" x="0" y="0" flags="0x204"/>
      <component glyphName="uni0306" x="210" y="0" flags="0x4"/>
    </TTGlyph>
    <TTGlyph name="gbreve.a" xMin="-30" yMin="-206" xMax="540" yMax="716">
      <component glyphName="g.a" x="0" y="0" flags="0x204"/>
      <component glyphName="uni0306" x="180" y="0" flags="0x4"/>
    </TTGlyph>
    <TTGlyph name="gcaron" xMin="-16" yMin="-208" xMax="544" yMax="726">
      <component glyphName="g" x="0" y="0" flags="0x204"/>
      <component glyphName="uni030C" x="210" y="0" flags="0x4"/>
    </TTGlyph>
    <TTGlyph name="gcaron.a" xMin="-30" yMin="-206" xMax="540" yMax="726">
      <component glyphName="g.a" x="0" y="0" flags="0x204"/>
      <component glyphName="uni030C" x="180" y="0" flags="0x4"/>
    </TTGlyph>
    <TTGlyph name="gcircumflex" xMin="-16" yMin="-208" xMax="544" yMax="726">
      <component glyphName="g" x="0" y="0" flags="0x204"/>
      <component glyphName="uni0302" x="210" y="0" flags="0x4"/>
    </TTGlyph>
    <TTGlyph name="gcircumflex.a" xMin="-30" yMin="-206" xMax="540" yMax="726">
      <component glyphName="g.a" x="0" y="0" flags="0x204"/>
      <component glyphName="uni0302" x="180" y="0" flags="0x4"/>
    </TTGlyph>
    <TTGlyph name="gdotaccent" xMin="-16" yMin="-208" xMax="544" yMax="728">
      <component glyphName="g" x="0" y="0" flags="0x204"/>
      <component glyphName="uni0307" x="210" y="0" flags="0x4"/>
    </TTGlyph>
    <TTGlyph name="gdotaccent.a" xMin="-30" yMin="-206" xMax="540" yMax="728">
      <component glyphName="g.a" x="0" y="0" flags="0x204"/>
      <component glyphName="uni0307" x="180" y="0" flags="0x4"/>
    </TTGlyph>
    <TTGlyph name="germandbls" xMin="8" yMin="-12" xMax="582" yMax="708">
      <contour>
        <pt x="108" y="498" on="1"/>
        <pt x="117" y="543" on="0"/>
        <pt x="159" y="620" on="0"/>
        <pt x="223" y="676" on="0"/>
        <pt x="310" y="708" on="0"/>
        <pt x="364" y="708" on="1"/>
        <pt x="401" y="708" on="0"/>
        <pt x="474" y="690" on="0"/>
        <pt x="531" y="652" on="0"/>
        <pt x="566" y="593" on="0"/>
        <pt x="566" y="552" on="1"/>
        <pt x="566" y="511" on="0"/>
        <pt x="533" y="458" on="0"/>
        <pt x="493" y="418" on="0"/>
        <pt x="460" y="385" on="0"/>
        <pt x="460" y="366" on="1"/>
        <pt x="460" y="347" on="0"/>
        <pt x="498" y="313" on="0"/>
        <pt x="544" y="271" on="0"/>
        <pt x="582" y="213" on="0"/>
        <pt x="582" y="170" on="1"/>
        <pt x="582" y="132" on="0"/>
        <pt x="552" y="65" on="0"/>
        <pt x="499" y="16" on="0"/>
        <pt x="428" y="-12" on="0"/>
        <pt x="388" y="-12" on="1"/>
        <pt x="349" y="-12" on="0"/>
        <pt x="273" y="7" on="0"/>
        <pt x="238" y="30" on="1"/>
        <pt x="302" y="136" on="1"/>
        <pt x="320" y="124" on="0"/>
        <pt x="362" y="106" on="0"/>
        <pt x="386" y="106" on="1"/>
        <pt x="409" y="106" on="0"/>
        <pt x="434" y="133" on="0"/>
        <pt x="434" y="154" on="1"/>
        <pt x="434" y="175" on="0"/>
        <pt x="393" y="209" on="0"/>
        <pt x="345" y="248" on="0"/>
        <pt x="304" y="300" on="0"/>
        <pt x="304" y="338" on="1"/>
        <pt x="304" y="370" on="0"/>
        <pt x="338" y="415" on="0"/>
        <pt x="378" y="455" on="0"/>
        <pt x="412" y="498" on="0"/>
        <pt x="412" y="528" on="1"/>
        <pt x="412" y="554" on="0"/>
        <pt x="387" y="582" on="0"/>
        <pt x="358" y="582" on="1"/>
        <pt x="339" y="582" on="0"/>
        <pt x="308" y="564" on="0"/>
        <pt x="284" y="533" on="0"/>
        <pt x="267" y="492" on="0"/>
        <pt x="262" y="468" on="1"/>
        <pt x="168" y="0" on="1"/>
        <pt x="8" y="0" on="1"/>
      </contour>
    </TTGlyph>
    <TTGlyph name="grave" xMin="210" yMin="574" xMax="412" yMax="726">
      <component glyphName="uni0300" x="220" y="0" flags="0x4"/>
    </TTGlyph>
    <TTGlyph name="greater" xMin="48" yMin="98" xMax="498" yMax="564">
      <contour>
        <pt x="48" y="230" on="1"/>
        <pt x="206" y="284" on="1"/>
        <pt x="336" y="330" on="1"/>
        <pt x="336" y="334" on="1"/>
        <pt x="206" y="380" on="1"/>
        <pt x="48" y="434" on="1"/>
        <pt x="48" y="564" on="1"/>
        <pt x="498" y="386" on="1"/>
        <pt x="498" y="276" on="1"/>
        <pt x="48" y="98" on="1"/>
      </contour>
    </TTGlyph>
    <TTGlyph name="greaterequal" xMin="48" yMin="0" xMax="498" yMax="564">
      <contour>
        <pt x="48" y="0" on="1"/>
        <pt x="48" y="112" on="1"/>
        <pt x="496" y="112" on="1"/>
        <pt x="496" y="0" on="1"/>
      </contour>
      <contour>
        <pt x="48" y="284" on="1"/>
        <pt x="204" y="324" on="1"/>
        <pt x="338" y="356" on="1"/>
        <pt x="338" y="360" on="1"/>
        <pt x="204" y="392" on="1"/>
        <pt x="48" y="434" on="1"/>
        <pt x="48" y="564" on="1"/>
        <pt x="498" y="424" on="1"/>
        <pt x="498" y="294" on="1"/>
        <pt x="48" y="152" on="1"/>
      </contour>
    </TTGlyph>
    <TTGlyph name="guillemotleft" xMin="40" yMin="54" xMax="460" yMax="448">
      <component glyphName="guilsinglleft" x="0" y="0" flags="0x4"/>
      <component glyphName="guilsinglleft" x="200" y="0" flags="0x4"/>
    </TTGlyph>
    <TTGlyph name="guillemotright" xMin="28" yMin="54" xMax="448" yMax="448">
      <component glyphName="guilsinglright" x="0" y="0" flags="0x4"/>
      <component glyphName="guilsinglright" x="200" y="0" flags="0x4"/>
    </TTGlyph>
    <TTGlyph name="guilsinglleft" xMin="40" yMin="54" xMax="260" yMax="448">
      <contour>
        <pt x="40" y="200" on="1"/>
        <pt x="60" y="312" on="1"/>
        <pt x="212" y="448" on="1"/>
        <pt x="260" y="396" on="1"/>
        <pt x="130" y="246" on="1"/>
        <pt x="206" y="94" on="1"/>
        <pt x="144" y="54" on="1"/>
      </contour>
    </TTGlyph>
    <TTGlyph name="guilsinglright" xMin="28" yMin="54" xMax="248" yMax="448">
      <contour>
        <pt x="248" y="302" on="1"/>
        <pt x="228" y="190" on="1"/>
        <pt x="76" y="54" on="1"/>
        <pt x="28" y="106" on="1"/>
        <pt x="158" y="256" on="1"/>
        <pt x="82" y="408" on="1"/>
        <pt x="144" y="448" on="1"/>
      </contour>
    </TTGlyph>
    <TTGlyph name="h" xMin="8" yMin="0" xMax="524" yMax="696">
      <contour>
        <pt x="148" y="696" on="1"/>
        <pt x="308" y="696" on="1"/>
        <pt x="274" y="534" on="1"/>
        <pt x="250" y="446" on="1"/>
        <pt x="254" y="446" on="1"/>
        <pt x="284" y="473" on="0"/>
        <pt x="361" y="512" on="0"/>
        <pt x="406" y="512" on="1"/>
        <pt x="468" y="512" on="0"/>
        <pt x="524" y="447" on="0"/>
        <pt x="524" y="382" on="1"/>
        <pt x="524" y="365" on="0"/>
        <pt x="521" y="328" on="0"/>
        <pt x="516" y="310" on="1"/>
        <pt x="454" y="0" on="1"/>
        <pt x="294" y="0" on="1"/>
        <pt x="352" y="290" on="1"/>
        <pt x="355" y="304" on="0"/>
        <pt x="360" y="325" on="0"/>
        <pt x="360" y="334" on="1"/>
        <pt x="360" y="355" on="0"/>
        <pt x="338" y="376" on="0"/>
        <pt x="318" y="376" on="1"/>
        <pt x="297" y="376" on="0"/>
        <pt x="257" y="349" on="0"/>
        <pt x="230" y="320" on="1"/>
        <pt x="168" y="0" on="1"/>
        <pt x="8" y="0" on="1"/>
      </contour>
    </TTGlyph>
    <TTGlyph name="h.sups" xMin="38" yMin="260" xMax="389" yMax="720">
      <contour>
        <pt x="130" y="720" on="1"/>
        <pt x="242" y="720" on="1"/>
        <pt x="223" y="624" on="1"/>
        <pt x="204" y="556" on="1"/>
        <pt x="207" y="556" on="1"/>
        <pt x="227" y="573" on="0"/>
        <pt x="278" y="600" on="0"/>
        <pt x="308" y="600" on="1"/>
        <pt x="350" y="600" on="0"/>
        <pt x="389" y="554" on="0"/>
        <pt x="389" y="511" on="1"/>
        <pt x="389" y="500" on="0"/>
        <pt x="385" y="476" on="0"/>
        <pt x="383" y="465" on="1"/>
        <pt x="342" y="260" on="1"/>
        <pt x="230" y="260" on="1"/>
        <pt x="268" y="451" on="1"/>
        <pt x="270" y="461" on="0"/>
        <pt x="273" y="474" on="0"/>
        <pt x="273" y="479" on="1"/>
        <pt x="273" y="506" on="0"/>
        <pt x="247" y="506" on="1"/>
        <pt x="233" y="506" on="0"/>
        <pt x="208" y="488" on="0"/>
        <pt x="191" y="470" on="1"/>
        <pt x="150" y="260" on="1"/>
        <pt x="38" y="260" on="1"/>
      </contour>
    </TTGlyph>
    <TTGlyph name="hbar" xMin="8" yMin="0" xMax="520" yMax="696">
      <contour>
        <pt x="250" y="426" on="1"/>
        <pt x="280" y="453" on="0"/>
        <pt x="357" y="492" on="0"/>
        <pt x="402" y="492" on="1"/>
        <pt x="464" y="492" on="0"/>
        <pt x="520" y="427" on="0"/>
        <pt x="520" y="362" on="1"/>
        <pt x="520" y="345" on="0"/>
        <pt x="517" y="308" on="0"/>
        <pt x="512" y="290" on="1"/>
        <pt x="454" y="0" on="1"/>
        <pt x="294" y="0" on="1"/>
        <pt x="348" y="270" on="1"/>
        <pt x="351" y="284" on="0"/>
        <pt x="356" y="305" on="0"/>
        <pt x="356" y="314" on="1"/>
        <pt x="356" y="335" on="0"/>
        <pt x="334" y="356" on="0"/>
        <pt x="314" y="356" on="1"/>
        <pt x="293" y="356" on="0"/>
        <pt x="253" y="329" on="0"/>
        <pt x="226" y="300" on="1"/>
        <pt x="168" y="0" on="1"/>
        <pt x="8" y="0" on="1"/>
        <pt x="119" y="552" on="1"/>
        <pt x="52" y="552" on="1"/>
        <pt x="66" y="622" on="1"/>
        <pt x="134" y="628" on="1"/>
        <pt x="148" y="696" on="1"/>
        <pt x="308" y="696" on="1"/>
        <pt x="294" y="628" on="1"/>
        <pt x="450" y="628" on="1"/>
        <pt x="434" y="552" on="1"/>
        <pt x="278" y="552" on="1"/>
        <pt x="270" y="514" on="1"/>
        <pt x="246" y="426" on="1"/>
      </contour>
    </TTGlyph>
    <TTGlyph name="hcircumflex" xMin="8" yMin="0" xMax="524" yMax="878">
      <component glyphName="h" x="0" y="0" flags="0x204"/>
      <component glyphName="uni0302.cap" x="115" y="56" flags="0x4"/>
    </TTGlyph>
    <TTGlyph name="hungarumlaut" xMin="200" yMin="574" xMax="598" yMax="726">
      <component glyphName="uni030B" x="220" y="0" flags="0x4"/>
    </TTGlyph>
    <TTGlyph name="hyphen" xMin="32" yMin="198" xMax="296" yMax="310">
      <contour>
        <pt x="56" y="310" on="1"/>
        <pt x="296" y="310" on="1"/>
        <pt x="272" y="198" on="1"/>
        <pt x="32" y="198" on="1"/>
      </contour>
    </TTGlyph>
    <TTGlyph name="i" xMin="8" yMin="0" xMax="310" yMax="728">
      <contour>
        <pt x="108" y="500" on="1"/>
        <pt x="268" y="500" on="1"/>
        <pt x="168" y="0" on="1"/>
        <pt x="8" y="0" on="1"/>
      </contour>
      <contour>
        <pt x="214" y="564" on="1"/>
        <pt x="198" y="564" on="0"/>
        <pt x="168" y="573" on="0"/>
        <pt x="144" y="591" on="0"/>
        <pt x="130" y="619" on="0"/>
        <pt x="130" y="638" on="1"/>
        <pt x="130" y="656" on="0"/>
        <pt x="145" y="689" on="0"/>
        <pt x="171" y="713" on="0"/>
        <pt x="206" y="728" on="0"/>
        <pt x="226" y="728" on="1"/>
        <pt x="242" y="728" on="0"/>
        <pt x="272" y="718" on="0"/>
        <pt x="296" y="700" on="0"/>
        <pt x="310" y="672" on="0"/>
        <pt x="310" y="654" on="1"/>
        <pt x="310" y="615" on="0"/>
        <pt x="255" y="564" on="0"/>
      </contour>
    </TTGlyph>
    <TTGlyph name="i.sups" xMin="38" yMin="260" xMax="242" yMax="742">
      <contour>
        <pt x="104" y="592" on="1"/>
        <pt x="216" y="592" on="1"/>
        <pt x="150" y="260" on="1"/>
        <pt x="38" y="260" on="1"/>
      </contour>
      <contour>
        <pt x="176" y="632" on="1"/>
        <pt x="153" y="632" on="0"/>
        <pt x="118" y="656" on="0"/>
        <pt x="118" y="682" on="1"/>
        <pt x="118" y="706" on="0"/>
        <pt x="157" y="742" on="0"/>
        <pt x="184" y="742" on="1"/>
        <pt x="207" y="742" on="0"/>
        <pt x="242" y="718" on="0"/>
        <pt x="242" y="692" on="1"/>
        <pt x="242" y="668" on="0"/>
        <pt x="203" y="632" on="0"/>
      </contour>
    </TTGlyph>
    <TTGlyph name="iacute" xMin="8" yMin="0" xMax="382" yMax="726">
      <component glyphName="dotlessi" x="0" y="0" flags="0x204"/>
      <component glyphName="uni0301" x="84" y="0" flags="0x4"/>
    </TTGlyph>
    <TTGlyph name="icircumflex" xMin="8" yMin="0" xMax="352" yMax="726">
      <component glyphName="dotlessi" x="0" y="0" flags="0x204"/>
      <component glyphName="uni0302" x="84" y="0" flags="0x4"/>
    </TTGlyph>
    <TTGlyph name="idieresis" xMin="8" yMin="0" xMax="384" yMax="714">
      <component glyphName="dotlessi" x="0" y="0" flags="0x204"/>
      <component glyphName="uni0308" x="84" y="0" flags="0x4"/>
    </TTGlyph>
    <TTGlyph name="igrave" xMin="8" yMin="0" xMax="276" yMax="726">
      <component glyphName="dotlessi" x="0" y="0" flags="0x204"/>
      <component glyphName="uni0300" x="84" y="0" flags="0x4"/>
    </TTGlyph>
    <TTGlyph name="imacron" xMin="8" yMin="0" xMax="356" yMax="690">
      <component glyphName="dotlessi" x="0" y="0" flags="0x204"/>
      <component glyphName="uni0304" x="84" y="0" flags="0x4"/>
    </TTGlyph>
    <TTGlyph name="infinity" xMin="48" yMin="106" xMax="770" yMax="544">
      <contour>
        <pt x="218" y="132" on="1"/>
        <pt x="178" y="132" on="0"/>
        <pt x="115" y="162" on="0"/>
        <pt x="71" y="215" on="0"/>
        <pt x="48" y="285" on="0"/>
        <pt x="48" y="326" on="1"/>
        <pt x="48" y="368" on="0"/>
        <pt x="73" y="442" on="0"/>
        <pt x="119" y="496" on="0"/>
        <pt x="185" y="528" on="0"/>
        <pt x="226" y="528" on="1"/>
        <pt x="286" y="528" on="0"/>
        <pt x="367" y="474" on="0"/>
        <pt x="394" y="438" on="1"/>
        <pt x="398" y="438" on="1"/>
        <pt x="434" y="489" on="0"/>
        <pt x="518" y="544" on="0"/>
        <pt x="572" y="544" on="1"/>
        <pt x="613" y="544" on="0"/>
        <pt x="685" y="514" on="0"/>
        <pt x="739" y="459" on="0"/>
        <pt x="770" y="379" on="0"/>
        <pt x="770" y="330" on="1"/>
        <pt x="770" y="281" on="0"/>
        <pt x="738" y="199" on="0"/>
        <pt x="684" y="139" on="0"/>
        <pt x="612" y="106" on="0"/>
        <pt x="572" y="106" on="1"/>
        <pt x="512" y="106" on="0"/>
        <pt x="417" y="159" on="0"/>
        <pt x="372" y="222" on="1"/>
        <pt x="368" y="222" on="1"/>
        <pt x="356" y="205" on="0"/>
        <pt x="324" y="173" on="0"/>
        <pt x="286" y="148" on="0"/>
        <pt x="242" y="132" on="0"/>
      </contour>
      <contour>
        <pt x="446" y="350" on="1"/>
        <pt x="459" y="330" on="0"/>
        <pt x="487" y="295" on="0"/>
        <pt x="517" y="268" on="0"/>
        <pt x="552" y="252" on="0"/>
        <pt x="572" y="252" on="1"/>
        <pt x="610" y="252" on="0"/>
        <pt x="654" y="306" on="0"/>
        <pt x="654" y="344" on="1"/>
        <pt x="654" y="383" on="0"/>
        <pt x="605" y="428" on="0"/>
        <pt x="566" y="428" on="1"/>
        <pt x="536" y="428" on="0"/>
        <pt x="473" y="389" on="0"/>
      </contour>
      <contour>
        <pt x="230" y="248" on="1"/>
        <pt x="257" y="248" on="0"/>
        <pt x="302" y="281" on="0"/>
        <pt x="320" y="310" on="1"/>
        <pt x="302" y="340" on="0"/>
        <pt x="252" y="382" on="0"/>
        <pt x="226" y="382" on="1"/>
        <pt x="193" y="382" on="0"/>
        <pt x="164" y="343" on="0"/>
        <pt x="164" y="316" on="1"/>
        <pt x="164" y="290" on="0"/>
        <pt x="197" y="248" on="0"/>
      </contour>
    </TTGlyph>
    <TTGlyph name="integral" xMin="-34" yMin="-158" xMax="472" yMax="792">
      <contour>
        <pt x="-2" y="-36" on="1"/>
        <pt x="4" y="-38" on="0"/>
        <pt x="21" y="-40" on="0"/>
        <pt x="32" y="-40" on="1"/>
        <pt x="50" y="-40" on="0"/>
        <pt x="76" y="-26" on="0"/>
        <pt x="95" y="4" on="0"/>
        <pt x="109" y="53" on="0"/>
        <pt x="116" y="88" on="1"/>
        <pt x="128" y="146" on="0"/>
        <pt x="139" y="255" on="0"/>
        <pt x="147" y="364" on="0"/>
        <pt x="158" y="477" on="0"/>
        <pt x="170" y="540" on="1"/>
        <pt x="180" y="594" on="0"/>
        <pt x="213" y="686" on="0"/>
        <pt x="267" y="754" on="0"/>
        <pt x="347" y="792" on="0"/>
        <pt x="406" y="792" on="1"/>
        <pt x="426" y="792" on="0"/>
        <pt x="461" y="787" on="0"/>
        <pt x="472" y="784" on="1"/>
        <pt x="442" y="668" on="1"/>
        <pt x="434" y="670" on="0"/>
        <pt x="414" y="672" on="0"/>
        <pt x="400" y="672" on="1"/>
        <pt x="364" y="672" on="0"/>
        <pt x="328" y="613" on="0"/>
        <pt x="314" y="544" on="1"/>
        <pt x="303" y="486" on="0"/>
        <pt x="292" y="378" on="0"/>
        <pt x="283" y="269" on="0"/>
        <pt x="272" y="155" on="0"/>
        <pt x="260" y="92" on="1"/>
        <pt x="250" y="38" on="0"/>
        <pt x="217" y="-54" on="0"/>
        <pt x="163" y="-120" on="0"/>
        <pt x="82" y="-158" on="0"/>
        <pt x="24" y="-158" on="1"/>
        <pt x="7" y="-158" on="0"/>
        <pt x="-23" y="-155" on="0"/>
        <pt x="-34" y="-150" on="1"/>
        <pt x="-2" y="-36" on="1"/>
      </contour>
    </TTGlyph>
</ttFont>
